SplineFontDB: 3.2
FontName: Gotham-Bold
FullName: Gotham Bold
FamilyName: Gotham
Weight: Bold
Copyright: This software is the property of Hoefler & Co. You may not copy, modify, distribute, or download this software, or install it upon any computer, or host it from any location. Your right to use this software is subject to the Terms of Service agreement that exists between you and Hoefler & Co. If no such agreement exists, you may not use this software for any purpose. For more information, please visit http://www.typography.com/webfont-software, or contact Hoefler & Co. at www.typography.com
Version: 001.001
ItalicAngle: 0
UnderlinePosition: -100
UnderlineWidth: 50
Ascent: 800
Descent: 200
InvalidEm: 0
sfntRevision: 0x00034d0e
LayerCount: 2
Layer: 0 0 "Back" 1
Layer: 1 0 "Fore" 0
XUID: [1021 464 1831179004 1692]
StyleMap: 0x0020
FSType: 0
OS2Version: 3
OS2_WeightWidthSlopeOnly: 0
OS2_UseTypoMetrics: 0
CreationTime: 1310217809
ModificationTime: 1537702925
PfmFamily: 81
TTFWeight: 700
TTFWidth: 5
LineGap: 0
VLineGap: 0
Panose: 0 0 0 0 0 0 0 0 0 0
OS2TypoAscent: 800
OS2TypoAOffset: 0
OS2TypoDescent: -200
OS2TypoDOffset: 0
OS2TypoLinegap: 200
OS2WinAscent: 960
OS2WinAOffset: 0
OS2WinDescent: 240
OS2WinDOffset: 0
HheadAscent: 960
HheadAOffset: 0
HheadDescent: -240
HheadDOffset: 0
OS2SubXSize: 700
OS2SubYSize: 650
OS2SubXOff: 0
OS2SubYOff: 140
OS2SupXSize: 700
OS2SupYSize: 650
OS2SupXOff: 0
OS2SupYOff: 477
OS2StrikeYSize: 50
OS2StrikeYPos: 250
OS2CapHeight: 700
OS2XHeight: 536
OS2Vendor: 'H&Co'
OS2CodePages: 0000009f.00000000
OS2UnicodeRanges: a10002ff.4000005b.00000000.00000000
Lookup: 1 0 0 "'aalt' Access All Alternates lookup 0" { "'aalt' Access All Alternates lookup 0 subtable"  } ['aalt' ('    ' <'dflt' > 'cyrl' <'BGR ' 'MKD ' 'SRB ' 'dflt' > 'grek' <'dflt' > 'latn' <'TRK ' 'dflt' > ) ]

StartChar: .notdef
Encoding: 0 -1 0
Width: 500
GlyphClass: 1
Flags: MW
HStem: -200 50<71 429 71 500> 750 50<71 71 71 429>
VStem: 0 50<-76 -76 -76 676> 450 50<-76 676 676 676>
LayerCount: 2
Fore
SplineSet
0 -200 m 1
 0 800 l 1
 500 800 l 1
 500 -200 l 1
 0 -200 l 1
71 750 m 1
 250 360 l 1
 429 750 l 1
 71 750 l 1
50 -76 m 1
 222 300 l 1
 50 676 l 1
 50 -76 l 1
450 676 m 1
 278 300 l 1
 450 -76 l 1
 450 676 l 1
250 240 m 1
 71 -150 l 1
 429 -150 l 1
 250 240 l 1
EndSplineSet
EndChar

StartChar: D
Encoding: 4 68 4
Width: 782
GlyphClass: 1
Flags: MW
HStem: 0 139<238 357 238 357> 561 139<238 357 238 238>
VStem: 84 154<139 561 139 700 139 700> 568 161<348 350 350 352 251.5 412>
LayerCount: 2
Fore
SplineSet
84 0 m 1
 84 700 l 1
 357 700 l 2
 577 700 729 549 729 352 c 2
 729 350 l 2
 729 153 577 0 357 0 c 2
 84 0 l 1
357 561 m 2
 238 561 l 1
 238 139 l 1
 357 139 l 2
 482 139 568 224 568 348 c 2
 568 350 l 2
 568 474 482 561 357 561 c 2
EndSplineSet
EndChar

StartChar: E
Encoding: 5 69 5
Width: 670
GlyphClass: 1
Flags: MW
HStem: 0 137<237 617 237 617> 284 137<237 567 237 567> 563 137<237 612 237 237>
VStem: 84 153<137 284 421 563>
LayerCount: 2
Fore
SplineSet
84 0 m 1
 84 700 l 1
 612 700 l 1
 612 563 l 1
 237 563 l 1
 237 421 l 1
 567 421 l 1
 567 284 l 1
 237 284 l 1
 237 137 l 1
 617 137 l 1
 617 0 l 1
 84 0 l 1
EndSplineSet
EndChar

StartChar: F
Encoding: 6 70 6
Width: 656
GlyphClass: 1
Flags: MW
HStem: 0 21G<84 84 84 238> 271 140<238 572 238 572> 560 140<238 617 238 238>
VStem: 84 154<0 271 411 560>
LayerCount: 2
Fore
SplineSet
84 0 m 1
 84 700 l 1
 617 700 l 1
 617 560 l 1
 238 560 l 1
 238 411 l 1
 572 411 l 1
 572 271 l 1
 238 271 l 1
 238 0 l 1
 84 0 l 1
EndSplineSet
EndChar

StartChar: G
Encoding: 7 71 7
Width: 784
GlyphClass: 1
Flags: MW
HStem: -12 140<364 454.5 364 485> 270 133<416 571 416 720> 570 142<359 455>
VStem: 53 161<348 350 350 352 286 449.5> 571 149<170 270 270 270>
LayerCount: 2
Fore
SplineSet
421 -12 m 0
 203 -12 53 140 53 348 c 2
 53 350 l 2
 53 549 208 712 420 712 c 0
 545 712 623 678 695 616 c 1
 598 499 l 1
 545 544 495 570 415 570 c 0
 303 570 214 471 214 352 c 2
 214 350 l 2
 214 222 302 128 426 128 c 0
 483 128 532 142 571 170 c 1
 571 270 l 1
 416 270 l 1
 416 403 l 1
 720 403 l 1
 720 99 l 1
 648 38 549 -12 421 -12 c 0
EndSplineSet
EndChar

StartChar: H
Encoding: 8 72 8
Width: 760
GlyphClass: 1
Flags: MW
HStem: 0 21G<84 84 84 238 522 522 522 676> 281 142<238 522 238 522> 680 20G<84 238 238 238 522 676 676 676>
VStem: 84 154<0 281 423 700> 522 154<0 281 281 281 423 700 0 700>
LayerCount: 2
Fore
SplineSet
84 0 m 1
 84 700 l 1
 238 700 l 1
 238 423 l 1
 522 423 l 1
 522 700 l 1
 676 700 l 1
 676 0 l 1
 522 0 l 1
 522 281 l 1
 238 281 l 1
 238 0 l 1
 84 0 l 1
EndSplineSet
EndChar

StartChar: I
Encoding: 9 73 9
Width: 336
GlyphClass: 1
Flags: MW
HStem: 0 21G<91 91 91 245> 680 20G<91 245 245 245>
VStem: 91 154<0 700 0 700>
LayerCount: 2
Fore
SplineSet
91 0 m 1
 91 700 l 1
 245 700 l 1
 245 0 l 1
 91 0 l 1
EndSplineSet
EndChar

StartChar: J
Encoding: 10 74 10
Width: 564
GlyphClass: 1
Flags: MW
HStem: -10 143<214.5 268.5 214.5 281> 680 20G<333 491 491 491>
VStem: 333 158<249 700>
LayerCount: 2
Fore
SplineSet
243 -10 m 0
 134 -10 62 38 14 95 c 1
 111 203 l 1
 151 159 190 133 239 133 c 0
 298 133 333 168 333 249 c 2
 333 700 l 1
 491 700 l 1
 491 242 l 2
 491 158 468 98 425 55 c 0
 382 12 319 -10 243 -10 c 0
EndSplineSet
EndChar

StartChar: K
Encoding: 11 75 11
Width: 730
GlyphClass: 1
Flags: MW
HStem: 0 21G<84 84 84 238 536 536 536 721> 680 20G<84 238 238 238 520 709 709 709>
VStem: 84 154<0 214 394 700>
LayerCount: 2
Fore
SplineSet
84 0 m 1
 84 700 l 1
 238 700 l 1
 238 394 l 1
 520 700 l 1
 709 700 l 1
 423 403 l 1
 721 0 l 1
 536 0 l 1
 319 298 l 1
 238 214 l 1
 238 0 l 1
 84 0 l 1
EndSplineSet
EndChar

StartChar: L
Encoding: 12 76 12
Width: 619
GlyphClass: 1
Flags: MW
HStem: 0 140<238 587 238 587> 680 20G<84 238 238 238>
VStem: 84 154<140 700 140 700 140 700>
LayerCount: 2
Fore
SplineSet
84 0 m 1
 84 700 l 1
 238 700 l 1
 238 140 l 1
 587 140 l 1
 587 0 l 1
 84 0 l 1
EndSplineSet
EndChar

StartChar: M
Encoding: 13 77 13
Width: 868
GlyphClass: 1
Flags: MW
HStem: 0 21G<84 84 84 235 631 631 631 784> 680 20G<84 250 250 250 618 784 784 784>
VStem: 84 151<0 454 0 700> 631 153<0 457 457 457>
LayerCount: 2
Fore
SplineSet
84 0 m 1
 84 700 l 1
 250 700 l 1
 434 404 l 1
 618 700 l 1
 784 700 l 1
 784 0 l 1
 631 0 l 1
 631 457 l 1
 434 158 l 1
 430 158 l 1
 235 454 l 1
 235 0 l 1
 84 0 l 1
EndSplineSet
EndChar

StartChar: N
Encoding: 14 78 14
Width: 790
GlyphClass: 1
Flags: MW
HStem: 0 21G<84 84 84 236 575 575 575 706> 680 20G<84 226 226 226 554 706 706 706>
VStem: 84 152<0 445 0 700> 554 152<269 700 0 700>
LayerCount: 2
Fore
SplineSet
84 0 m 1
 84 700 l 1
 226 700 l 1
 554 269 l 1
 554 700 l 1
 706 700 l 1
 706 0 l 1
 575 0 l 1
 236 445 l 1
 236 0 l 1
 84 0 l 1
EndSplineSet
EndChar

StartChar: O
Encoding: 15 79 15
Width: 850
GlyphClass: 1
Flags: MW
HStem: -12 142<364 488 364 532> 570 142<362 486>
VStem: 53 161<348 350 350 352 290 449.5> 636 161<348 350 350 352 250.5 410>
LayerCount: 2
Fore
SplineSet
424 -12 m 0
 208 -12 53 149 53 348 c 2
 53 350 l 2
 53 549 210 712 426 712 c 0
 642 712 797 551 797 352 c 2
 797 350 l 2
 797 151 640 -12 424 -12 c 0
426 130 m 0
 550 130 636 228 636 348 c 2
 636 350 l 2
 636 470 548 570 424 570 c 0
 300 570 214 472 214 352 c 2
 214 350 l 2
 214 230 302 130 426 130 c 0
EndSplineSet
EndChar

StartChar: P
Encoding: 16 80 16
Width: 668
GlyphClass: 1
Flags: MW
HStem: 0 21G<84 84 84 238> 210 137<238 355 238 360> 561 139<238 357 238 238>
VStem: 84 154<0 210 347 561> 482 156<453 455 455 456 456 458 374.5 489.5>
LayerCount: 2
Fore
SplineSet
84 0 m 1
 84 700 l 1
 370 700 l 2
 537 700 638 602 638 458 c 2
 638 456 l 2
 638 293 512 210 355 210 c 2
 238 210 l 1
 238 0 l 1
 84 0 l 1
238 347 m 1
 360 347 l 2
 437 347 482 393 482 453 c 2
 482 455 l 2
 482 524 434 561 357 561 c 2
 238 561 l 1
 238 347 l 1
EndSplineSet
EndChar

StartChar: Q
Encoding: 17 81 17
Width: 850
GlyphClass: 1
Flags: MW
HStem: -12 142<364 443.5 364 463.5> 570 142<362 486>
VStem: 53 161<348 350 350 352 290 449.5> 636 161<348 350 350 352 312.5 410>
LayerCount: 2
Fore
SplineSet
807 88 m 1
 709 -21 l 1
 632 48 l 1
 572 9 503 -12 424 -12 c 0
 208 -12 53 149 53 348 c 2
 53 350 l 2
 53 549 210 712 426 712 c 0
 642 712 797 551 797 352 c 2
 797 350 l 2
 797 275 774 208 735 149 c 1
 807 88 l 1
426 130 m 0
 461 130 490 137 517 149 c 1
 404 246 l 1
 502 356 l 1
 617 252 l 1
 630 281 636 313 636 348 c 2
 636 350 l 2
 636 470 548 570 424 570 c 0
 300 570 214 472 214 352 c 2
 214 350 l 2
 214 230 302 130 426 130 c 0
EndSplineSet
Substitution2: "'ss01' Style Set 1 lookup 17 subtable" Q.alt
Substitution2: "'aalt' Access All Alternates lookup 0 subtable" Q.alt
EndChar

StartChar: Q.alt
Encoding: 18 -1 18
Width: 850
GlyphClass: 1
Flags: MW
HStem: -12 142<364 442.5> 570 142<362 486>
VStem: 53 161<348 350 350 352 290 449.5> 636 161<348 350 350 352 298 410>
LayerCount: 2
Fore
SplineSet
635 -101 m 1
 530 2 l 1
 496 -7 461 -12 424 -12 c 0
 208 -12 53 149 53 348 c 2
 53 350 l 2
 53 549 210 712 426 712 c 0
 642 712 797 551 797 352 c 2
 797 350 l 2
 797 246 756 154 684 87 c 1
 866 -96 l 1
 866 -101 l 1
 635 -101 l 1
426 130 m 0
 550 130 636 228 636 348 c 2
 636 350 l 2
 636 470 548 570 424 570 c 0
 300 570 214 472 214 352 c 2
 214 350 l 2
 214 230 302 130 426 130 c 0
EndSplineSet
EndChar

StartChar: R
Encoding: 19 82 19
Width: 723
GlyphClass: 1
Flags: MW
HStem: 0 21G<84 84 84 238 509 509 509 689> 224 136<238 359 238 394> 561 139<238 391 238 238>
VStem: 84 154<0 224 360 561> 512 156<459 461 461 467 467 469 410.5 494.5>
LayerCount: 2
Fore
SplineSet
84 0 m 1
 84 700 l 1
 404 700 l 2
 493 700 561 676 608 629 c 0
 648 589 668 536 668 469 c 2
 668 467 l 2
 668 354 607 283 518 250 c 1
 689 0 l 1
 509 0 l 1
 359 224 l 1
 238 224 l 1
 238 0 l 1
 84 0 l 1
238 360 m 1
 394 360 l 2
 470 360 512 399 512 459 c 2
 512 461 l 2
 512 528 467 561 391 561 c 2
 238 561 l 1
 238 360 l 1
EndSplineSet
EndChar

StartChar: S
Encoding: 20 83 20
Width: 640
GlyphClass: 1
Flags: MW
HStem: -10 136<296 368 296 408.5> 574 136<277 337>
VStem: 64 153<497 499 499 511 511 513 487.5 562.5> 437 153<192 194 194 207 207 209 137.5 213.5>
LayerCount: 2
Fore
SplineSet
333 -10 m 0
 226 -10 120 26 36 102 c 1
 127 211 l 1
 191 159 256 126 336 126 c 0
 400 126 437 151 437 192 c 2
 437 194 l 2
 437 233 413 254 296 283 c 0
 154 318 64 359 64 497 c 2
 64 499 l 2
 64 626 165 710 309 710 c 0
 412 710 497 678 569 621 c 1
 489 505 l 1
 426 548 367 574 307 574 c 0
 247 574 217 548 217 513 c 2
 217 511 l 2
 217 464 247 451 368 419 c 0
 510 381 590 331 590 209 c 2
 590 207 l 2
 590 68 484 -10 333 -10 c 0
EndSplineSet
EndChar

StartChar: T
Encoding: 21 84 21
Width: 648
GlyphClass: 1
Flags: MW
HStem: 0 21G<247 247 247 401> 558 142<34 247 34 614 401 401 401 614>
VStem: 247 154<0 558 0 558>
LayerCount: 2
Fore
SplineSet
247 0 m 1
 247 558 l 1
 34 558 l 1
 34 700 l 1
 614 700 l 1
 614 558 l 1
 401 558 l 1
 401 0 l 1
 247 0 l 1
EndSplineSet
EndChar

StartChar: U
Encoding: 22 85 22
Width: 756
GlyphClass: 1
Flags: MW
HStem: -11 142<330.5 425.5 330.5 470> 680 20G<73 227 227 227 529 683 683 683>
VStem: 73 154<300 304 304 700> 529 154<299 305 305 700>
LayerCount: 2
Fore
SplineSet
376 -11 m 0
 188 -11 73 93 73 300 c 2
 73 700 l 1
 227 700 l 1
 227 304 l 2
 227 189 283 131 378 131 c 0
 473 131 529 187 529 299 c 2
 529 700 l 1
 683 700 l 1
 683 305 l 2
 683 93 564 -11 376 -11 c 0
EndSplineSet
EndChar

StartChar: V
Encoding: 23 86 23
Width: 750
GlyphClass: 1
Flags: MW
HStem: -5 21G<307 307 307 443> 680 20G<24 194 194 194 560 726 726 726>
VStem: 24 702<700 700>
LayerCount: 2
Fore
SplineSet
307 -5 m 1
 24 700 l 1
 194 700 l 1
 377 207 l 1
 560 700 l 1
 726 700 l 1
 443 -5 l 1
 307 -5 l 1
EndSplineSet
EndChar

StartChar: W
Encoding: 24 87 24
Width: 1122
GlyphClass: 1
Flags: MW
HStem: -5 21G<269 269 269 403 719 719 719 853> 680 20G<30 195 195 195 931 1092 1092 1092> 682 20G<497 629 629 629>
VStem: 30 1062<700 700>
LayerCount: 2
Fore
SplineSet
269 -5 m 1xb0
 30 700 l 1
 195 700 l 1xd0
 340 226 l 1
 497 702 l 1
 629 702 l 1xb0
 786 226 l 1
 931 700 l 1
 1092 700 l 1xd0
 853 -5 l 1
 719 -5 l 1
 561 453 l 1
 403 -5 l 1
 269 -5 l 1xb0
EndSplineSet
EndChar

StartChar: X
Encoding: 25 88 25
Width: 732
GlyphClass: 1
Flags: MW
HStem: 0 21G<31 206 31 31 521 701 521 521> 680 20G<41 221 221 221 516 691 691 691>
VStem: 31 670<0 0>
LayerCount: 2
Fore
SplineSet
516 700 m 1
 691 700 l 1
 457 358 l 1
 701 0 l 1
 521 0 l 1
 364 240 l 1
 206 0 l 1
 31 0 l 1
 275 356 l 1
 41 700 l 1
 221 700 l 1
 367 473 l 1
 516 700 l 1
EndSplineSet
EndChar

StartChar: Y
Encoding: 26 89 26
Width: 716
GlyphClass: 1
Flags: MW
HStem: 0 21G<281 281 281 435> 680 20G<12 192 192 192 529 704 704 704>
VStem: 281 154<0 276 276 276>
LayerCount: 2
Fore
SplineSet
281 0 m 1
 281 276 l 1
 12 700 l 1
 192 700 l 1
 359 419 l 1
 529 700 l 1
 704 700 l 1
 435 279 l 1
 435 0 l 1
 281 0 l 1
EndSplineSet
EndChar

StartChar: Z
Encoding: 27 90 27
Width: 708
GlyphClass: 1
Flags: MW
HStem: 0 135<261 646 261 646> 565 135<75 448 75 646>
VStem: 63 583<0 117 117 117>
LayerCount: 2
Fore
SplineSet
63 0 m 1
 63 117 l 1
 448 565 l 1
 75 565 l 1
 75 700 l 1
 646 700 l 1
 646 583 l 1
 261 135 l 1
 646 135 l 1
 646 0 l 1
 63 0 l 1
EndSplineSet
EndChar

StartChar: a
Encoding: 28 97 28
Width: 592
GlyphClass: 1
Flags: MW
HStem: -10 105<241.5 257.5> 0 95<241.5 529 241.5 382> 236 91<255.5 279.5 188.5 306.5> 412 130<244.5 306>
VStem: 36 147<154 156 156 160 160 162 139.5 214> 382 147<0 58 58 58>
LayerCount: 2
Fore
SplineSet
220 -10 m 0xbc
 119 -10 36 47 36 154 c 2
 36 156 l 2
 36 272 125 327 252 327 c 0
 307 327 344 318 383 305 c 1
 383 314 l 2
 383 378 344 412 268 412 c 0
 209 412 169 402 120 383 c 1
 82 499 l 1
 141 524 199 542 290 542 c 0
 374 542 432 521 471 482 c 0
 511 442 529 383 529 311 c 2
 529 0 l 1
 382 0 l 1x7c
 382 58 l 1
 345 17 295 -10 220 -10 c 0xbc
266 95 m 0
 338 95 385 133 385 189 c 2
 385 216 l 1
 358 228 325 236 288 236 c 0
 223 236 183 210 183 162 c 2
 183 160 l 2
 183 119 217 95 266 95 c 0
EndSplineSet
Substitution2: "'ss03' Style Set 3 lookup 19 subtable" a.alt
Substitution2: "'aalt' Access All Alternates lookup 0 subtable" a.alt
EndChar

StartChar: a.alt
Encoding: 29 -1 29
Width: 675
GlyphClass: 1
Flags: MW
HStem: -10 129<291.5 328> 0 119<291.5 607 291.5 455> 417 119<291.5 607> 417 129<291.5 328.5 224.5 362.5>
VStem: 44 152<267 269 222.5 358.5> 455 152<0 77 77 77 466 536 0 536>
LayerCount: 2
Fore
SplineSet
288 -10 m 0x9c
 163 -10 44 88 44 267 c 2
 44 269 l 2
 44 448 161 546 288 546 c 0
 369 546 419 509 455 466 c 1x9c
 455 536 l 1
 607 536 l 1
 607 0 l 1
 455 0 l 1x6c
 455 77 l 1
 418 26 368 -10 288 -10 c 0x9c
327 119 m 0
 398 119 457 178 457 267 c 2
 457 269 l 2
 457 358 398 417 327 417 c 0
 256 417 196 359 196 269 c 2
 196 267 l 2
 196 178 256 119 327 119 c 0
EndSplineSet
EndChar

StartChar: b
Encoding: 30 98 30
Width: 675
GlyphClass: 1
Flags: MW
HStem: -10 129<346.5 383.5 312.5 450.5> 0 119<68 383.5> 417 129<347 383.5>
VStem: 68 152<0 70 459 730> 479 152<267 269 177.5 313.5>
LayerCount: 2
Fore
SplineSet
387 -10 m 0xb8
 306 -10 256 27 220 70 c 1xb8
 220 0 l 1
 68 0 l 1x78
 68 730 l 1
 220 730 l 1
 220 459 l 1
 257 510 307 546 387 546 c 0
 512 546 631 448 631 269 c 2
 631 267 l 2
 631 88 514 -10 387 -10 c 0xb8
348 119 m 0
 419 119 479 177 479 267 c 2
 479 269 l 2
 479 358 419 417 348 417 c 0
 277 417 218 358 218 269 c 2
 218 267 l 2
 218 178 277 119 348 119 c 0
EndSplineSet
EndChar

StartChar: c
Encoding: 31 99 31
Width: 571
GlyphClass: 1
Flags: MW
HStem: -12 131<286.5 353.5 286.5 374.5> 415 131<284 349.5>
VStem: 42 150<265 267 267 269 225.5 343.5>
LayerCount: 2
Fore
SplineSet
321 -12 m 0
 160 -12 42 113 42 265 c 2
 42 267 l 2
 42 420 159 546 323 546 c 0
 424 546 486 512 537 456 c 1
 444 356 l 1
 409 392 377 415 322 415 c 0
 246 415 192 349 192 269 c 2
 192 267 l 2
 192 184 245 119 328 119 c 0
 379 119 414 141 451 176 c 1
 540 86 l 1
 488 29 428 -12 321 -12 c 0
EndSplineSet
EndChar

StartChar: d
Encoding: 32 100 32
Width: 675
GlyphClass: 1
Flags: MW
HStem: -10 129<291.5 328> 0 119<291.5 607 291.5 455> 417 129<291.5 328.5 224.5 362.5>
VStem: 44 152<267 269 222.5 358.5> 455 152<0 77 77 77 466 730 0 730>
LayerCount: 2
Fore
SplineSet
288 -10 m 0xb8
 163 -10 44 88 44 267 c 2
 44 269 l 2
 44 448 161 546 288 546 c 0
 369 546 419 509 455 466 c 1
 455 730 l 1
 607 730 l 1
 607 0 l 1
 455 0 l 1x78
 455 77 l 1
 418 26 368 -10 288 -10 c 0xb8
327 119 m 0
 398 119 457 178 457 267 c 2
 457 269 l 2
 457 358 398 417 327 417 c 0
 256 417 196 359 196 269 c 2
 196 267 l 2
 196 178 256 119 327 119 c 0
EndSplineSet
EndChar

StartChar: e
Encoding: 33 101 33
Width: 613
GlyphClass: 1
Flags: MW
HStem: -12 122<290 349.5 290 370.5> 215 95<193 420 191 566 193 193> 424 122<275 339>
VStem: 42 526<265 267 267 331 249 343.5> 420 148<310 310>
LayerCount: 2
Fore
SplineSet
322 -12 m 0xf0
 161 -12 42 101 42 265 c 2
 42 267 l 2
 42 420 151 546 307 546 c 0
 486 546 568 407 568 255 c 0
 568 243 567 230 566 215 c 1xe8
 193 215 l 1
 208 146 256 110 324 110 c 0
 375 110 411 126 454 165 c 1
 541 88 l 1
 490 25 419 -12 322 -12 c 0xf0
191 310 m 1
 420 310 l 1xe8
 411 378 371 424 307 424 c 0
 243 424 203 379 191 310 c 1
EndSplineSet
EndChar

StartChar: f
Encoding: 34 102 34
Width: 382
GlyphClass: 1
Flags: MW
HStem: 0 21G<94 94 94 246> 406 124<246 246 246 367> 609 128<280.5 284 233 312.5>
VStem: 94 152<0 406 0 406 0 565>
LayerCount: 2
Fore
SplineSet
94 0 m 1
 94 406 l 1
 31 406 l 1
 31 531 l 1
 94 531 l 1
 94 565 l 2
 94 623 108 666 137 695 c 0
 165 723 206 737 260 737 c 0
 308 737 340 731 368 722 c 1
 368 596 l 1
 345 604 326 609 299 609 c 0
 262 609 244 590 244 551 c 2
 244 530 l 1
 367 530 l 1
 367 406 l 1
 246 406 l 1
 246 0 l 1
 94 0 l 1
EndSplineSet
EndChar

StartChar: g
Encoding: 35 103 35
Width: 675
GlyphClass: 1
Flags: MW
HStem: -162 121<268 356 268 360> 44 126<288.5 322.5> 420 116<289 607> 420 126<289 323.5 220.5 363.5>
VStem: 44 152<294 296 256.5 376> 457 150<105 121 121 131 131 131 294 296 296 332.5>
LayerCount: 2
Fore
SplineSet
308 -162 m 0xdc
 220 -162 139 -142 71 -106 c 1
 123 8 l 1
 179 -23 232 -41 304 -41 c 0
 408 -41 457 9 457 105 c 2
 457 131 l 1
 412 76 363 44 282 44 c 0
 157 44 44 134 44 294 c 2
 44 296 l 2
 44 456 159 546 282 546 c 0
 365 546 414 511 455 466 c 1xdc
 455 536 l 1
 607 536 l 1xec
 607 121 l 2
 607 26 584 -45 539 -90 c 0
 488 -141 412 -162 308 -162 c 0xdc
326 170 m 0
 401 170 457 221 457 294 c 2
 457 296 l 2
 457 369 401 420 326 420 c 0
 252 420 196 369 196 296 c 2
 196 294 l 2
 196 219 251 170 326 170 c 0
EndSplineSet
EndChar

StartChar: h
Encoding: 36 104 36
Width: 623
GlyphClass: 1
Flags: MW
HStem: 0 21G<68 68 68 220 407 407 407 559> 408 138<339 344.5>
VStem: 68 152<0 299 460 730> 407 152<0 299 299 335>
LayerCount: 2
Fore
SplineSet
68 0 m 1
 68 730 l 1
 220 730 l 1
 220 460 l 1
 255 505 301 546 377 546 c 0
 493 546 559 471 559 347 c 2
 559 0 l 1
 407 0 l 1
 407 299 l 2
 407 371 374 408 315 408 c 0
 256 408 220 371 220 299 c 2
 220 0 l 1
 68 0 l 1
EndSplineSet
EndChar

StartChar: i
Encoding: 37 105 37
Width: 302
GlyphClass: 1
Flags: MW
HStem: 0 21G<75 75 75 227> 595 135<71 231 71 231>
VStem: 75 152<0 536 0 536>
LayerCount: 2
Fore
SplineSet
71 595 m 1
 71 730 l 1
 231 730 l 1
 231 595 l 1
 71 595 l 1
75 0 m 1
 75 536 l 1
 227 536 l 1
 227 0 l 1
 75 0 l 1
EndSplineSet
Substitution2: "'locl' Localized Forms in Latin lookup 2 subtable" i.dot
Substitution2: "'aalt' Access All Alternates lookup 0 subtable" i.dot
EndChar

StartChar: j
Encoding: 38 106 38
Width: 302
GlyphClass: 1
Flags: MW
HStem: -163 122<16.5 111.5> 595 135<71 231 71 231>
VStem: 75 152<21 536>
LayerCount: 2
Fore
SplineSet
71 595 m 1
 71 730 l 1
 231 730 l 1
 231 595 l 1
 71 595 l 1
55 -163 m 0
 27 -163 10 -161 -11 -157 c 1
 -11 -38 l 1
 1 -40 12 -41 21 -41 c 0
 53 -41 75 -24 75 21 c 2
 75 536 l 1
 227 536 l 1
 227 9 l 2
 227 -110 168 -163 55 -163 c 0
EndSplineSet
EndChar

StartChar: k
Encoding: 39 107 39
Width: 592
GlyphClass: 1
Flags: MW
HStem: 0 21G<68 68 68 220 411 411 411 587>
VStem: 68 152<0 163 341 730>
LayerCount: 2
Fore
SplineSet
68 0 m 1
 68 730 l 1
 220 730 l 1
 220 341 l 1
 398 536 l 1
 580 536 l 1
 376 325 l 1
 587 0 l 1
 411 0 l 1
 274 220 l 1
 220 163 l 1
 220 0 l 1
 68 0 l 1
EndSplineSet
EndChar

StartChar: l
Encoding: 40 108 40
Width: 302
GlyphClass: 1
Flags: MW
HStem: 0 21G<75 75 75 227>
VStem: 75 152<0 730 0 730>
LayerCount: 2
Fore
SplineSet
75 0 m 1
 75 730 l 1
 227 730 l 1
 227 0 l 1
 75 0 l 1
EndSplineSet
EndChar

StartChar: m
Encoding: 41 109 41
Width: 950
GlyphClass: 1
Flags: MW
HStem: 0 21G<68 68 68 220 401 401 401 553 734 734 734 886> 408 128<68 340.5> 408 138<339.5 340.5 668.5 673.5>
VStem: 68 152<0 299 460 536> 401 152<0 299 0 335> 734 152<0 299 299 335>
CounterMasks: 1 1c
LayerCount: 2
Fore
SplineSet
68 0 m 1xbc
 68 536 l 1
 220 536 l 1xdc
 220 460 l 1
 255 505 301 546 378 546 c 0
 449 546 501 516 529 461 c 1
 576 517 632 546 705 546 c 0
 818 546 886 478 886 349 c 2
 886 0 l 1
 734 0 l 1
 734 299 l 2
 734 371 702 408 645 408 c 0
 588 408 553 371 553 299 c 2
 553 0 l 1
 401 0 l 1
 401 299 l 2
 401 371 369 408 312 408 c 0
 255 408 220 371 220 299 c 2
 220 0 l 1
 68 0 l 1xbc
EndSplineSet
EndChar

StartChar: n
Encoding: 42 110 42
Width: 623
GlyphClass: 1
Flags: MW
HStem: 0 21G<68 68 68 220 407 407 407 559> 408 128<68 344.5> 408 138<339 344.5>
VStem: 68 152<0 299 460 536> 407 152<0 299 299 335>
LayerCount: 2
Fore
SplineSet
68 0 m 1xb8
 68 536 l 1
 220 536 l 1xd8
 220 460 l 1
 255 505 301 546 377 546 c 0
 493 546 559 471 559 347 c 2
 559 0 l 1
 407 0 l 1
 407 299 l 2
 407 371 374 408 315 408 c 0
 256 408 220 371 220 299 c 2
 220 0 l 1
 68 0 l 1xb8
EndSplineSet
EndChar

StartChar: o
Encoding: 43 111 43
Width: 664
GlyphClass: 1
Flags: MW
HStem: -12 131<291 376.5 291 414.5> 415 131<287.5 373>
VStem: 42 150<265 267 267 269 227.5 344> 472 150<265 267 267 269 190 306.5>
LayerCount: 2
Fore
SplineSet
331 -12 m 0
 166 -12 42 110 42 265 c 2
 42 267 l 2
 42 421 166 546 333 546 c 0
 498 546 622 424 622 269 c 2
 622 267 l 2
 622 113 498 -12 331 -12 c 0
333 119 m 0
 420 119 472 185 472 265 c 2
 472 267 l 2
 472 346 415 415 331 415 c 0
 244 415 192 349 192 269 c 2
 192 267 l 2
 192 188 249 119 333 119 c 0
EndSplineSet
EndChar

StartChar: p
Encoding: 44 112 44
Width: 675
GlyphClass: 1
Flags: MW
HStem: -160 21G<68 68 68 220> -10 129<346.5 383.5 312.5 450.5> 417 119<68 383.5> 417 129<347 383.5>
VStem: 68 152<-160 70 459 536> 479 152<267 269 177.5 313.5>
LayerCount: 2
Fore
SplineSet
68 -160 m 1xdc
 68 536 l 1
 220 536 l 1xec
 220 459 l 1
 257 510 307 546 387 546 c 0
 512 546 631 448 631 269 c 2
 631 267 l 2
 631 88 514 -10 387 -10 c 0
 306 -10 256 27 220 70 c 1
 220 -160 l 1
 68 -160 l 1xdc
348 119 m 0
 419 119 479 177 479 267 c 2
 479 269 l 2
 479 358 419 417 348 417 c 0xdc
 277 417 218 358 218 269 c 2
 218 267 l 2
 218 178 277 119 348 119 c 0
EndSplineSet
EndChar

StartChar: q
Encoding: 45 113 45
Width: 675
GlyphClass: 1
Flags: MW
HStem: -160 21G<455 455 455 607> -10 129<291.5 328> 417 119<291.5 607> 417 129<291.5 328.5 224.5 362.5>
VStem: 44 152<267 269 222.5 358.5> 455 152<-160 77 77 77 466 536 -160 536>
LayerCount: 2
Fore
SplineSet
455 -160 m 1xdc
 455 77 l 1
 418 26 368 -10 288 -10 c 0
 163 -10 44 88 44 267 c 2
 44 269 l 2
 44 448 161 546 288 546 c 0
 369 546 419 509 455 466 c 1xdc
 455 536 l 1
 607 536 l 1xec
 607 -160 l 1
 455 -160 l 1xdc
327 119 m 0
 398 119 457 178 457 267 c 2
 457 269 l 2
 457 358 398 417 327 417 c 0
 256 417 196 359 196 269 c 2
 196 267 l 2
 196 178 256 119 327 119 c 0
EndSplineSet
EndChar

StartChar: r
Encoding: 46 114 46
Width: 418
GlyphClass: 1
Flags: MW
HStem: 0 21G<68 68 68 220> 387 149<68 383> 387 159<332.5 391 383 391>
VStem: 68 152<0 198 428 536>
LayerCount: 2
Fore
SplineSet
68 0 m 1xb0
 68 536 l 1
 220 536 l 1xd0
 220 428 l 1
 251 501 300 550 391 546 c 1
 391 387 l 1
 383 387 l 2
 282 387 220 327 220 198 c 2
 220 0 l 1
 68 0 l 1xb0
EndSplineSet
EndChar

StartChar: s
Encoding: 47 115 47
Width: 502
GlyphClass: 1
Flags: MW
HStem: -10 117<234.5 282 234.5 314> 427 117<227.5 265.5>
VStem: 53 137<372 388 374 388 388 390 374 428.5> 324 137<147 149 149 163 163 165 103.5 165.5>
LayerCount: 2
Fore
SplineSet
256 -10 m 0
 180 -10 98 15 26 71 c 1
 91 171 l 1
 150 128 209 107 260 107 c 0
 304 107 324 123 324 147 c 2
 324 149 l 2
 324 182 272 192 213 211 c 0
 138 232 53 268 53 372 c 2
 53 374 l 2
 53 483 141 544 249 544 c 0
 317 544 390 521 449 482 c 1
 391 377 l 1
 338 408 285 427 246 427 c 0
 209 427 190 411 190 390 c 2
 190 388 l 2
 190 360 241 342 299 324 c 0
 374 300 461 263 461 165 c 2
 461 163 l 2
 461 44 372 -10 256 -10 c 0
EndSplineSet
EndChar

StartChar: t
Encoding: 48 116 48
Width: 415
GlyphClass: 1
Flags: MW
HStem: -9 21G<203 274.5> -9 134<203 307.5> 406 130<29 93 29 93 245 371>
VStem: 93 152<159.5 177 177 406 536 673>
LayerCount: 2
Fore
SplineSet
249 -9 m 0xb0
 157 -9 93 28 93 152 c 2
 93 406 l 1
 29 406 l 1
 29 536 l 1
 93 536 l 1
 93 673 l 1
 245 673 l 1
 245 536 l 1
 371 536 l 1
 371 406 l 1
 245 406 l 1
 245 177 l 2
 245 142 261 125 294 125 c 0
 321 125 346 131 369 144 c 1x70
 369 22 l 1
 337 3 300 -9 249 -9 c 0xb0
EndSplineSet
EndChar

StartChar: u
Encoding: 49 117 49
Width: 623
GlyphClass: 1
Flags: MW
HStem: -10 138<278.5 284> 0 128<278.5 555 278.5 403>
VStem: 64 152<201 237 237 536> 403 152<0 76 76 76 237 536 0 536>
LayerCount: 2
Fore
SplineSet
246 -10 m 0xb0
 130 -10 64 65 64 189 c 2
 64 536 l 1
 216 536 l 1
 216 237 l 2
 216 165 249 128 308 128 c 0xb0
 367 128 403 165 403 237 c 2
 403 536 l 1
 555 536 l 1
 555 0 l 1
 403 0 l 1x70
 403 76 l 1
 368 31 322 -10 246 -10 c 0xb0
EndSplineSet
EndChar

StartChar: v
Encoding: 50 118 50
Width: 600
GlyphClass: 1
Flags: MW
HStem: -4 21G<231 231 231 369>
VStem: 20 560<536 536>
LayerCount: 2
Fore
SplineSet
231 -4 m 1
 20 536 l 1
 181 536 l 1
 301 177 l 1
 422 536 l 1
 580 536 l 1
 369 -4 l 1
 231 -4 l 1
EndSplineSet
EndChar

StartChar: w
Encoding: 51 119 51
Width: 861
GlyphClass: 1
Flags: MW
HStem: -4 21G<189 189 189 325 533 533 533 670> 518 20G<365 496 496 496>
VStem: 24 813<536 536>
LayerCount: 2
Fore
SplineSet
189 -4 m 1
 24 536 l 1
 178 536 l 1
 264 211 l 1
 365 538 l 1
 496 538 l 1
 598 210 l 1
 686 536 l 1
 837 536 l 1
 670 -4 l 1
 533 -4 l 1
 430 325 l 1
 325 -4 l 1
 189 -4 l 1
EndSplineSet
EndChar

StartChar: x
Encoding: 52 120 52
Width: 584
GlyphClass: 1
Flags: MW
HStem: 0 21G<23 182 23 23 398 561 398 398>
VStem: 23 538<0 0>
LayerCount: 2
Fore
SplineSet
193 536 m 1
 293 379 l 1
 394 536 l 1
 553 536 l 1
 372 274 l 1
 561 0 l 1
 398 0 l 1
 290 167 l 1
 182 0 l 1
 23 0 l 1
 211 272 l 1
 30 536 l 1
 193 536 l 1
EndSplineSet
EndChar

StartChar: y
Encoding: 53 121 53
Width: 600
GlyphClass: 1
Flags: MW
HStem: -163 126<168 190.5 167 241>
VStem: 20 558<536 536>
LayerCount: 2
Fore
SplineSet
303 171 m 1
 420 536 l 1
 578 536 l 1
 372 -13 l 2
 332 -122 286 -163 196 -163 c 0
 140 -163 100 -149 61 -126 c 1
 112 -16 l 1
 132 -28 157 -37 177 -37 c 0
 204 -37 217 -29 230 -2 c 1
 20 536 l 1
 181 536 l 1
 303 171 l 1
EndSplineSet
EndChar

StartChar: z
Encoding: 54 122 54
Width: 563
GlyphClass: 1
Flags: MW
HStem: 0 123<238 516 238 516> 413 123<59 327 59 516>
VStem: 50 466<0 107 107 107>
LayerCount: 2
Fore
SplineSet
50 0 m 1
 50 107 l 1
 327 413 l 1
 59 413 l 1
 59 536 l 1
 516 536 l 1
 516 429 l 1
 238 123 l 1
 516 123 l 1
 516 0 l 1
 50 0 l 1
EndSplineSet
EndChar

StartChar: uni0391
Encoding: 55 913 55
Width: 790
GlyphClass: 1
Flags: MW
HStem: 0 21G<24 24 24 181 605 605 605 766> 157 136<300 486 300 541 245 486> 685 20G<324 466 466 466>
VStem: 24 742<0 0>
LayerCount: 2
Fore
SplineSet
24 0 m 1
 324 705 l 1
 466 705 l 1
 766 0 l 1
 605 0 l 1
 541 157 l 1
 245 157 l 1
 181 0 l 1
 24 0 l 1
300 293 m 1
 486 293 l 1
 393 520 l 1
 300 293 l 1
EndSplineSet
EndChar

StartChar: uni0392
Encoding: 56 914 56
Width: 722
GlyphClass: 1
Flags: MW
HStem: 0 135<234 417 234 417> 289 128<234 376 376 410 234 412 234 376> 565 135<234 386 234 234>
VStem: 84 150<135 289 417 565> 487 153<491 493 493 516.5> 526 153<128 213 128 236.5>
LayerCount: 2
Fore
SplineSet
84 0 m 1xf4
 84 700 l 1
 409 700 l 2
 490 700 551 679 592 638 c 0
 624 606 640 566 640 519 c 2
 640 517 l 2xf8
 640 439 598 392 548 366 c 1
 629 335 679 287 679 194 c 2
 679 192 l 2
 679 64 575 0 417 0 c 2
 84 0 l 1xf4
487 491 m 2
 487 493 l 2
 487 540 451 565 386 565 c 2
 234 565 l 1
 234 417 l 1
 376 417 l 2
 444 417 487 439 487 491 c 2
526 211 m 2xf4
 526 213 l 2
 526 260 492 289 412 289 c 2
 234 289 l 1
 234 135 l 1
 417 135 l 2
 485 135 526 159 526 211 c 2xf4
EndSplineSet
EndChar

StartChar: uni0393
Encoding: 57 915 57
Width: 619
GlyphClass: 1
Flags: MW
HStem: 0 21G<84 84 84 238> 560 140<238 587 238 238>
VStem: 84 154<0 560 0 700 0 700>
LayerCount: 2
Fore
SplineSet
84 0 m 1
 84 700 l 1
 587 700 l 1
 587 560 l 1
 238 560 l 1
 238 0 l 1
 84 0 l 1
EndSplineSet
EndChar

StartChar: uni0394
Encoding: 58 916 58
Width: 786
GlyphClass: 1
Flags: MW
HStem: 0 136<219 563 219 730> 685 20G<313 473 473 473>
VStem: 44 698<111 111>
LayerCount: 2
Fore
SplineSet
56 0 m 1
 44 111 l 1
 313 705 l 1
 473 705 l 1
 742 111 l 1
 730 0 l 1
 56 0 l 1
219 136 m 1
 563 136 l 1
 391 536 l 1
 219 136 l 1
EndSplineSet
EndChar

StartChar: uni0395
Encoding: 59 917 59
Width: 670
GlyphClass: 1
Flags: MW
HStem: 0 137<237 617 237 617> 284 137<237 567 237 567> 563 137<237 612 237 237>
VStem: 84 153<137 284 421 563>
LayerCount: 2
Fore
SplineSet
84 0 m 1
 84 700 l 1
 612 700 l 1
 612 563 l 1
 237 563 l 1
 237 421 l 1
 567 421 l 1
 567 284 l 1
 237 284 l 1
 237 137 l 1
 617 137 l 1
 617 0 l 1
 84 0 l 1
EndSplineSet
EndChar

StartChar: uni0396
Encoding: 60 918 60
Width: 708
GlyphClass: 1
Flags: MW
HStem: 0 135<261 646 261 646> 565 135<75 448 75 646>
VStem: 63 583<0 117 117 117>
LayerCount: 2
Fore
SplineSet
63 0 m 1
 63 117 l 1
 448 565 l 1
 75 565 l 1
 75 700 l 1
 646 700 l 1
 646 583 l 1
 261 135 l 1
 646 135 l 1
 646 0 l 1
 63 0 l 1
EndSplineSet
EndChar

StartChar: uni0397
Encoding: 61 919 61
Width: 760
GlyphClass: 1
Flags: MW
HStem: 0 21G<84 84 84 238 522 522 522 676> 281 142<238 522 238 522> 680 20G<84 238 238 238 522 676 676 676>
VStem: 84 154<0 281 423 700> 522 154<0 281 281 281 423 700 0 700>
LayerCount: 2
Fore
SplineSet
84 0 m 1
 84 700 l 1
 238 700 l 1
 238 423 l 1
 522 423 l 1
 522 700 l 1
 676 700 l 1
 676 0 l 1
 522 0 l 1
 522 281 l 1
 238 281 l 1
 238 0 l 1
 84 0 l 1
EndSplineSet
EndChar

StartChar: uni0398
Encoding: 62 920 62
Width: 850
GlyphClass: 1
Flags: MW
HStem: -12 140<360.5 492 360.5 532> 282 141<291 559 291 559> 572 140<358 489.5>
VStem: 53 156<348 350 350 352 286.5 449.5> 291 268<282 423 282 423> 641 156<348 350 350 352 250.5 413.5>
CounterMasks: 1 1c
LayerCount: 2
Fore
SplineSet
424 -12 m 0
 208 -12 53 149 53 348 c 2
 53 350 l 2
 53 549 210 712 426 712 c 0
 642 712 797 551 797 352 c 2
 797 350 l 2
 797 151 640 -12 424 -12 c 0
426 128 m 0
 558 128 641 221 641 348 c 2
 641 350 l 2
 641 477 555 572 424 572 c 0
 292 572 209 479 209 352 c 2
 209 350 l 2
 209 223 295 128 426 128 c 0
559 423 m 1
 559 282 l 1
 291 282 l 1
 291 423 l 1
 559 423 l 1
EndSplineSet
EndChar

StartChar: uni0399
Encoding: 63 921 63
Width: 336
GlyphClass: 1
Flags: MW
HStem: 0 21G<91 91 91 245> 680 20G<91 245 245 245>
VStem: 91 154<0 700 0 700>
LayerCount: 2
Fore
SplineSet
91 0 m 1
 91 700 l 1
 245 700 l 1
 245 0 l 1
 91 0 l 1
EndSplineSet
Substitution2: "Single Substitution lookup 26 subtable" uni0399.calt
Substitution2: "'aalt' Access All Alternates lookup 0 subtable" uni0399.calt
EndChar

StartChar: uni039A
Encoding: 64 922 64
Width: 730
GlyphClass: 1
Flags: MW
HStem: 0 21G<84 84 84 238 536 536 536 721> 680 20G<84 238 238 238 520 709 709 709>
VStem: 84 154<0 214 394 700>
LayerCount: 2
Fore
SplineSet
84 0 m 1
 84 700 l 1
 238 700 l 1
 238 394 l 1
 520 700 l 1
 709 700 l 1
 423 403 l 1
 721 0 l 1
 536 0 l 1
 319 298 l 1
 238 214 l 1
 238 0 l 1
 84 0 l 1
EndSplineSet
EndChar

StartChar: uni039B
Encoding: 65 923 65
Width: 770
GlyphClass: 1
Flags: MW
HStem: 0 21G<24 190 24 24 576 746 576 576> 685 20G<317 453 453 453>
VStem: 24 722<0 0>
LayerCount: 2
Fore
SplineSet
453 705 m 1
 746 0 l 1
 576 0 l 1
 382 489 l 1
 190 0 l 1
 24 0 l 1
 317 705 l 1
 453 705 l 1
EndSplineSet
EndChar

StartChar: uni039C
Encoding: 66 924 66
Width: 868
GlyphClass: 1
Flags: MW
HStem: 0 21G<84 84 84 235 631 631 631 784> 680 20G<84 250 250 250 618 784 784 784>
VStem: 84 151<0 454 0 700> 631 153<0 457 457 457>
LayerCount: 2
Fore
SplineSet
84 0 m 1
 84 700 l 1
 250 700 l 1
 434 404 l 1
 618 700 l 1
 784 700 l 1
 784 0 l 1
 631 0 l 1
 631 457 l 1
 434 158 l 1
 430 158 l 1
 235 454 l 1
 235 0 l 1
 84 0 l 1
EndSplineSet
EndChar

StartChar: uni039D
Encoding: 67 925 67
Width: 790
GlyphClass: 1
Flags: MW
HStem: 0 21G<84 84 84 236 575 575 575 706> 680 20G<84 226 226 226 554 706 706 706>
VStem: 84 152<0 445 0 700> 554 152<269 700 0 700>
LayerCount: 2
Fore
SplineSet
84 0 m 1
 84 700 l 1
 226 700 l 1
 554 269 l 1
 554 700 l 1
 706 700 l 1
 706 0 l 1
 575 0 l 1
 236 445 l 1
 236 0 l 1
 84 0 l 1
EndSplineSet
EndChar

StartChar: uni039E
Encoding: 68 926 68
Width: 659
GlyphClass: 1
Flags: MW
HStem: 0 139<53 606 53 606> 283 139<83 576 83 576> 561 139<58 601 58 601>
VStem: 53 553<0 139 0 139>
LayerCount: 2
Fore
SplineSet
601 561 m 1
 58 561 l 1
 58 700 l 1
 601 700 l 1
 601 561 l 1
576 283 m 1
 83 283 l 1
 83 422 l 1
 576 422 l 1
 576 283 l 1
606 0 m 1
 53 0 l 1
 53 139 l 1
 606 139 l 1
 606 0 l 1
EndSplineSet
Substitution2: "'ss07' Style Set 7 lookup 23 subtable" uni039E.alt
Substitution2: "'aalt' Access All Alternates lookup 0 subtable" uni039E.alt
EndChar

StartChar: uni039E.alt
Encoding: 69 -1 69
Width: 739
GlyphClass: 1
Flags: MW
HStem: 0 136<53 296 443 686 53 296> 285 135<83 296 83 296 443 656> 564 136<58 296 58 681 443 443 443 681>
VStem: 296 147<136 285 136 285 420 564>
LayerCount: 2
Fore
SplineSet
686 136 m 1
 686 0 l 1
 53 0 l 1
 53 136 l 1
 296 136 l 1
 296 285 l 1
 83 285 l 1
 83 420 l 1
 296 420 l 1
 296 564 l 1
 58 564 l 1
 58 700 l 1
 681 700 l 1
 681 564 l 1
 443 564 l 1
 443 420 l 1
 656 420 l 1
 656 285 l 1
 443 285 l 1
 443 136 l 1
 686 136 l 1
EndSplineSet
EndChar

StartChar: uni039F
Encoding: 70 927 70
Width: 850
GlyphClass: 1
Flags: MW
HStem: -12 142<364 488 364 532> 570 142<362 486>
VStem: 53 161<348 350 350 352 290 449.5> 636 161<348 350 350 352 250.5 410>
LayerCount: 2
Fore
SplineSet
424 -12 m 0
 208 -12 53 149 53 348 c 2
 53 350 l 2
 53 549 210 712 426 712 c 0
 642 712 797 551 797 352 c 2
 797 350 l 2
 797 151 640 -12 424 -12 c 0
426 130 m 0
 550 130 636 228 636 348 c 2
 636 350 l 2
 636 470 548 570 424 570 c 0
 300 570 214 472 214 352 c 2
 214 350 l 2
 214 230 302 130 426 130 c 0
EndSplineSet
EndChar

StartChar: uni03A0
Encoding: 71 928 71
Width: 755
GlyphClass: 1
Flags: MW
HStem: 0 21G<84 84 84 238 517 517 517 671> 560 140<238 517 238 238>
VStem: 84 154<0 560 0 700 0 700> 517 154<0 560 560 560>
LayerCount: 2
Fore
SplineSet
84 0 m 1
 84 700 l 1
 671 700 l 1
 671 0 l 1
 517 0 l 1
 517 560 l 1
 238 560 l 1
 238 0 l 1
 84 0 l 1
EndSplineSet
EndChar

StartChar: uni03A1
Encoding: 72 929 72
Width: 668
GlyphClass: 1
Flags: MW
HStem: 0 21G<84 84 84 238> 210 137<238 355 238 360> 561 139<238 357 238 238>
VStem: 84 154<0 210 347 561> 482 156<453 455 455 456 456 458 374.5 489.5>
LayerCount: 2
Fore
SplineSet
84 0 m 1
 84 700 l 1
 370 700 l 2
 537 700 638 602 638 458 c 2
 638 456 l 2
 638 293 512 210 355 210 c 2
 238 210 l 1
 238 0 l 1
 84 0 l 1
238 347 m 1
 360 347 l 2
 437 347 482 393 482 453 c 2
 482 455 l 2
 482 524 434 561 357 561 c 2
 238 561 l 1
 238 347 l 1
EndSplineSet
EndChar

StartChar: uni03A3
Encoding: 73 931 73
Width: 696
GlyphClass: 1
Flags: MW
HStem: 0 135<282 642 282 642> 565 135<284 637 284 284> 586 114<68 637>
VStem: 66 576<0 114 114 114>
LayerCount: 2
Fore
SplineSet
501 350 m 1xd0
 282 135 l 1
 642 135 l 1
 642 0 l 1
 66 0 l 1
 66 114 l 1
 304 350 l 1
 68 586 l 1xb0
 68 700 l 1
 637 700 l 1
 637 565 l 1
 284 565 l 1
 501 350 l 1xd0
EndSplineSet
EndChar

StartChar: uni03A4
Encoding: 74 932 74
Width: 648
GlyphClass: 1
Flags: MW
HStem: 0 21G<247 247 247 401> 558 142<34 247 34 614 401 401 401 614>
VStem: 247 154<0 558 0 558>
LayerCount: 2
Fore
SplineSet
247 0 m 1
 247 558 l 1
 34 558 l 1
 34 700 l 1
 614 700 l 1
 614 558 l 1
 401 558 l 1
 401 0 l 1
 247 0 l 1
EndSplineSet
EndChar

StartChar: uni03A5
Encoding: 75 933 75
Width: 716
GlyphClass: 1
Flags: MW
HStem: 0 21G<281 281 281 435> 680 20G<12 192 192 192 529 704 704 704>
VStem: 281 154<0 276 276 276>
LayerCount: 2
Fore
SplineSet
281 0 m 1
 281 276 l 1
 12 700 l 1
 192 700 l 1
 359 419 l 1
 529 700 l 1
 704 700 l 1
 435 279 l 1
 435 0 l 1
 281 0 l 1
EndSplineSet
Substitution2: "Single Substitution lookup 26 subtable" uni03A5.calt
Substitution2: "'aalt' Access All Alternates lookup 0 subtable" uni03A5.calt
EndChar

StartChar: uni03A6
Encoding: 76 934 76
Width: 976
GlyphClass: 1
Flags: MW
HStem: -8 21G<411 411 411 565> 62 134<411 411> 508 134<411 414> 508 200<414 414 562 562>
VStem: 48 160<351 352 307 434> 411 154<-8 62 -8 62 642 708> 414 148<196 508 196 508> 768 160<352 353 270.5 397>
LayerCount: 2
Fore
SplineSet
411 -8 m 1xed
 411 62 l 1
 179 65 48 186 48 351 c 2
 48 352 l 2
 48 516 179 637 411 642 c 1xed
 411 708 l 1
 565 708 l 1xdd
 565 642 l 1
 794 637 928 519 928 353 c 2
 928 352 l 2
 928 189 797 65 565 62 c 1
 565 -8 l 1
 411 -8 l 1xed
768 352 m 2xdb
 768 353 l 2
 768 441 702 507 562 508 c 1
 562 196 l 1
 702 197 768 260 768 352 c 2xdb
208 352 m 2
 208 351 l 2
 208 263 274 196 414 196 c 1
 414 508 l 1
 274 507 208 443 208 352 c 2
EndSplineSet
EndChar

StartChar: uni03A7
Encoding: 77 935 77
Width: 732
GlyphClass: 1
Flags: MW
HStem: 0 21G<31 206 31 31 521 701 521 521> 680 20G<41 221 221 221 516 691 691 691>
VStem: 31 670<0 0>
LayerCount: 2
Fore
SplineSet
516 700 m 1
 691 700 l 1
 457 358 l 1
 701 0 l 1
 521 0 l 1
 364 240 l 1
 206 0 l 1
 31 0 l 1
 275 356 l 1
 41 700 l 1
 221 700 l 1
 367 473 l 1
 516 700 l 1
EndSplineSet
EndChar

StartChar: uni03A8
Encoding: 78 936 78
Width: 854
GlyphClass: 1
Flags: MW
HStem: 0 21G<351 503 351 351> 680 20G<65 217 217 217 353 501 501 501 637 789 789 789>
VStem: 65 152<445 449 449 700> 353 148<286 700 286 700> 637 152<444 450 450 700>
CounterMasks: 1 38
LayerCount: 2
Fore
SplineSet
789 700 m 1
 789 450 l 2
 789 246 682 152 503 144 c 1
 503 0 l 1
 351 0 l 1
 351 144 l 1
 171 149 65 245 65 445 c 2
 65 700 l 1
 217 700 l 1
 217 449 l 2
 217 334 260 290 353 286 c 1
 353 700 l 1
 501 700 l 1
 501 286 l 1
 594 289 637 333 637 444 c 2
 637 700 l 1
 789 700 l 1
EndSplineSet
EndChar

StartChar: uni03A9
Encoding: 79 937 79
Width: 870
GlyphClass: 1
Flags: MW
HStem: 0 131<57 214 57 367 57 214 655 813> 570 142<371.5 498>
VStem: 73 161<315 391 315 477> 636 161<369 370 370 389 389 390 328 429>
LayerCount: 2
Fore
SplineSet
436 712 m 0
 663 712 797 572 797 390 c 2
 797 389 l 2
 797 267 731 188 655 131 c 1
 813 131 l 1
 813 0 l 1
 503 0 l 1
 503 129 l 1
 575 180 636 247 636 369 c 2
 636 370 l 2
 636 488 562 570 434 570 c 0
 309 570 234 489 234 374 c 2
 234 373 l 2
 234 257 289 185 367 129 c 1
 367 0 l 1
 57 0 l 1
 57 131 l 1
 214 131 l 1
 136 190 73 269 73 390 c 2
 73 391 l 2
 73 563 207 712 436 712 c 0
EndSplineSet
EndChar

StartChar: uni03B1
Encoding: 80 945 80
Width: 714
GlyphClass: 1
Flags: MW
HStem: -10 129<291.5 338> -6 125 417 119<291.5 607> 417 129<291.5 328.5 224.5 362.5>
VStem: 44 152<267 269 222.5 358.5> 457 150<267 269 269 313.5>
LayerCount: 2
Fore
SplineSet
690 122 m 1x9c
 690 5 l 1
 670 -2 645 -6 608 -6 c 0x5c
 537 -6 494 17 474 72 c 1
 435 25 380 -10 296 -10 c 0
 163 -10 44 88 44 267 c 2
 44 269 l 2
 44 448 161 546 288 546 c 0
 369 546 419 509 455 466 c 1x9c
 455 536 l 1
 607 536 l 1xac
 607 174 l 2
 607 133 626 119 659 119 c 0
 672 119 682 120 690 122 c 1x9c
327 119 m 0x9c
 398 119 457 178 457 267 c 2
 457 269 l 2
 457 358 398 417 327 417 c 0
 256 417 196 359 196 269 c 2
 196 267 l 2
 196 178 256 119 327 119 c 0x9c
EndSplineSet
EndChar

StartChar: uni03B2
Encoding: 81 946 81
Width: 662
GlyphClass: 1
Flags: MW
HStem: -160 21G<68 220 68 68> -10 127<361 397.5 319.5 471.5> 305 107<218 296 296 297 218 296> 612 125<302.5 373>
VStem: 68 152<-160 70 -160 472> 442 148<520 521 521 535 535 536 492.5 546.5> 467 150<130 205 130 238.5>
LayerCount: 2
Fore
SplineSet
405 -10 m 0xfa
 317 -10 255 25 220 70 c 1
 220 -160 l 1
 68 -160 l 1
 68 472 l 2
 68 639 167 737 340 737 c 0
 507 737 590 650 590 536 c 2
 590 535 l 2xfc
 590 450 547 387 463 362 c 1
 560 337 617 290 617 189 c 2
 617 188 l 2
 617 72 538 -10 405 -10 c 0xfa
363 117 m 0
 432 117 467 156 467 204 c 2
 467 205 l 2
 467 272 416 306 297 305 c 2
 218 305 l 1
 218 289 l 2
 218 166 276 117 363 117 c 0
218 473 m 2
 218 412 l 1
 296 412 l 2
 389 412 442 452 442 520 c 2
 442 521 l 2xfc
 442 572 405 612 341 612 c 0
 264 612 218 557 218 473 c 2
EndSplineSet
EndChar

StartChar: uni03B3
Encoding: 82 947 82
Width: 600
GlyphClass: 1
Flags: MW
HStem: -160 21G<224 376 224 224>
VStem: 224 152<-160 23>
LayerCount: 2
Fore
SplineSet
376 -160 m 1
 224 -160 l 1
 224 23 l 1
 20 536 l 1
 182 536 l 1
 301 188 l 1
 421 536 l 1
 580 536 l 1
 376 23 l 1
 376 -160 l 1
EndSplineSet
EndChar

StartChar: uni03B4
Encoding: 83 948 83
Width: 648
GlyphClass: 1
Flags: MW
HStem: -12 128<282.5 361.5 282.5 407.5> 608 122
VStem: 42 148<250 251 214 316> 456 148<249 250 250 257 257 258 182.5 279.5>
LayerCount: 2
Fore
SplineSet
122 616 m 1
 122 730 l 1
 541 730 l 1
 541 606 l 1
 320 610 l 1
 426 535 l 2
 549 450 604 376 604 258 c 2
 604 257 l 2
 604 108 496 -12 319 -12 c 0
 152 -12 42 106 42 250 c 2
 42 251 l 2
 42 381 103 450 236 519 c 1
 122 616 l 1
456 249 m 2
 456 250 l 2
 456 309 434 351 339 433 c 1
 226 371 190 318 190 251 c 2
 190 250 l 2
 190 178 243 116 322 116 c 0
 401 116 456 180 456 249 c 2
EndSplineSet
EndChar

StartChar: uni03B5
Encoding: 84 949 84
Width: 569
GlyphClass: 1
Flags: MW
HStem: -10 120<258.5 323.5 258.5 332> 214 109<252.5 397 282 397> 424 120<268.5 328>
VStem: 47 147<148 149 149 164 164 165 147.5 182> 61 147<356 386 356 431.5>
LayerCount: 2
Fore
SplineSet
397 214 m 1xf0
 282 214 l 2
 223 214 194 198 194 165 c 2
 194 164 l 2
 194 131 223 110 294 110 c 0
 353 110 418 132 473 167 c 1
 536 68 l 1
 464 17 376 -10 288 -10 c 0
 131 -10 47 52 47 148 c 2
 47 149 l 2xf0
 47 215 92 249 139 270 c 1
 92 294 61 329 61 385 c 2
 61 386 l 2
 61 477 141 544 294 544 c 0
 393 544 466 517 531 468 c 1
 456 367 l 1
 411 402 356 424 300 424 c 0
 237 424 208 401 208 373 c 2
 208 372 l 2
 208 340 229 323 282 323 c 2xe8
 397 323 l 1
 397 214 l 1xf0
EndSplineSet
EndChar

StartChar: uni03B6
Encoding: 85 950 85
Width: 556
GlyphClass: 1
Flags: MW
HStem: -13 21G<372 372> 605 125<80 324 80 515>
VStem: 40 150<200 201 201 217 217 218 191.5 240.5> 372 141<-128 -13 -13 -13>
LayerCount: 2
Fore
SplineSet
513 102 m 1
 513 -128 l 1
 372 -128 l 1
 372 -13 l 1
 275 0 l 2
 112 21 40 87 40 200 c 2
 40 201 l 2
 40 280 69 337 141 412 c 2
 324 605 l 1
 80 605 l 1
 80 730 l 1
 515 730 l 1
 515 613 l 1
 242 319 l 2
 203 276 190 253 190 218 c 2
 190 217 l 2
 190 166 229 141 301 132 c 2
 513 102 l 1
EndSplineSet
EndChar

StartChar: uni03B7
Encoding: 86 951 86
Width: 623
GlyphClass: 1
Flags: MW
HStem: -160 21G<407 559 407 407> 0 21G<68 220 68 68> 408 128<68 344.5> 408 138<339 344.5>
VStem: 68 152<0 299 460 536> 407 152<-160 299 299 335>
LayerCount: 2
Fore
SplineSet
220 0 m 1xdc
 68 0 l 1
 68 536 l 1
 220 536 l 1xec
 220 460 l 1
 255 505 301 546 377 546 c 0
 493 546 559 471 559 347 c 2
 559 -160 l 1
 407 -160 l 1
 407 299 l 2
 407 371 374 408 315 408 c 0
 256 408 220 371 220 299 c 2
 220 0 l 1xdc
EndSplineSet
EndChar

StartChar: uni03B8
Encoding: 87 952 87
Width: 675
GlyphClass: 1
Flags: MW
HStem: -12 127<296.5 379.5 296.5 419.5> 302 123<198 476 198 476> 610 127<295.5 377.5>
VStem: 52 146<302 375 302 425 302 487> 476 147<302 302 238 425>
LayerCount: 2
Fore
SplineSet
336 -12 m 0
 169 -12 52 126 52 350 c 2
 52 375 l 2
 52 599 172 737 339 737 c 0
 506 737 623 599 623 375 c 2
 623 350 l 2
 623 126 503 -12 336 -12 c 0
338 115 m 0
 421 115 472 185 476 302 c 1
 198 302 l 1
 203 185 255 115 338 115 c 0
337 610 m 0
 254 610 203 541 198 425 c 1
 476 425 l 1
 471 541 418 610 337 610 c 0
EndSplineSet
EndChar

StartChar: uni03B9
Encoding: 88 953 88
Width: 325
GlyphClass: 1
Flags: MW
HStem: -6 125<166.5 276.5>
VStem: 66 152<167 174 174 536>
LayerCount: 2
Fore
SplineSet
66 167 m 2
 66 536 l 1
 218 536 l 1
 218 174 l 2
 218 133 237 119 270 119 c 0
 283 119 293 120 301 122 c 1
 301 5 l 1
 281 -2 255 -6 218 -6 c 0
 115 -6 66 43 66 167 c 2
EndSplineSet
EndChar

StartChar: uni03BA
Encoding: 89 954 89
Width: 592
GlyphClass: 1
Flags: MW
HStem: 0 21G<68 220 68 68 410 587 410 410>
VStem: 68 152<0 138 323 536>
LayerCount: 2
Fore
SplineSet
220 536 m 1
 220 323 l 1
 398 536 l 1
 583 536 l 1
 381 313 l 1
 587 0 l 1
 410 0 l 1
 280 204 l 1
 220 138 l 1
 220 0 l 1
 68 0 l 1
 68 536 l 1
 220 536 l 1
EndSplineSet
EndChar

StartChar: uni03BB
Encoding: 90 955 90
Width: 616
GlyphClass: 1
Flags: MW
HStem: 0 21G<22 180 22 22 437 437 437 598> 608 129<172.5 176.5>
VStem: 22 576<0 0>
LayerCount: 2
Fore
SplineSet
180 0 m 1
 22 0 l 1
 240 530 l 1
 228 561 l 2
 216 592 193 608 160 608 c 0
 139 608 121 605 97 596 c 1
 97 721 l 1
 124 732 154 737 191 737 c 0
 287 737 328 702 365 603 c 2
 598 0 l 1
 437 0 l 1
 309 359 l 1
 180 0 l 1
EndSplineSet
EndChar

StartChar: uni03BC
Encoding: 91 956 91
Width: 670
GlyphClass: 1
Flags: MW
HStem: -160 21G<68 217 68 68> -6 125<532.5 621.5> -6 129<297 343.5>
VStem: 68 152<196.5 233 233 536> 411 152<233 536>
LayerCount: 2
Fore
SplineSet
646 122 m 1xd8
 646 5 l 1
 626 -2 602 -6 565 -6 c 0
 500 -6 459 14 436 59 c 1
 407 14 367 -6 320 -6 c 0
 274 -6 218 16 199 64 c 1
 197 64 l 1
 206 29 217 -7 217 -54 c 2
 217 -160 l 1
 68 -160 l 1
 68 536 l 1
 220 536 l 1
 220 233 l 2
 220 160 254 123 314 123 c 0xb8
 374 123 411 160 411 233 c 2
 411 536 l 1
 563 536 l 1
 563 174 l 2
 563 133 582 119 615 119 c 0
 628 119 638 120 646 122 c 1xd8
EndSplineSet
EndChar

StartChar: uni03BD
Encoding: 92 957 92
Width: 600
GlyphClass: 1
Flags: MW
HStem: -4 21G<231 231 231 369>
VStem: 20 560<536 536>
LayerCount: 2
Fore
SplineSet
231 -4 m 1
 20 536 l 1
 181 536 l 1
 301 177 l 1
 422 536 l 1
 580 536 l 1
 369 -4 l 1
 231 -4 l 1
EndSplineSet
EndChar

StartChar: uni03BE
Encoding: 93 958 93
Width: 556
GlyphClass: 1
Flags: MW
HStem: -13 21G<367 367> 297 124<286 444 360 444 360 444> 605 132<296 356.5>
VStem: 43 150<192 193 193 212 212 213 186.5 238.5> 75 150<486.5 530 486.5 587> 367 141<-128 -13 -13 -13>
LayerCount: 2
Fore
SplineSet
547 663 m 1xec
 473 547 l 1
 430 582 385 605 328 605 c 0
 264 605 225 568 225 516 c 2
 225 515 l 2xec
 225 458 277 420 360 421 c 2
 444 421 l 1
 444 297 l 1
 330 297 l 2
 242 297 193 264 193 213 c 2
 193 212 l 2
 193 161 233 136 302 128 c 2
 508 100 l 1
 508 -128 l 1
 367 -128 l 1
 367 -13 l 1
 267 0 l 2
 128 16 43 68 43 192 c 2
 43 193 l 2xf4
 43 284 96 338 185 365 c 1
 124 392 75 437 75 529 c 2
 75 530 l 2
 75 644 169 737 329 737 c 0
 430 737 495 704 547 663 c 1xec
EndSplineSet
EndChar

StartChar: uni03BF
Encoding: 94 959 94
Width: 664
GlyphClass: 1
Flags: MW
HStem: -12 131<291 376.5 291 414.5> 415 131<287.5 373>
VStem: 42 150<265 267 267 269 227.5 344> 472 150<265 267 267 269 190 306.5>
LayerCount: 2
Fore
SplineSet
331 -12 m 0
 166 -12 42 110 42 265 c 2
 42 267 l 2
 42 421 166 546 333 546 c 0
 498 546 622 424 622 269 c 2
 622 267 l 2
 622 113 498 -12 331 -12 c 0
333 119 m 0
 420 119 472 185 472 265 c 2
 472 267 l 2
 472 346 415 415 331 415 c 0
 244 415 192 349 192 269 c 2
 192 267 l 2
 192 188 249 119 333 119 c 0
EndSplineSet
EndChar

StartChar: uni03C0
Encoding: 95 960 95
Width: 708
GlyphClass: 1
Flags: MW
HStem: -6 125<530.5 640.5> 0 21G<109 261 109 109> 401 135<26 109 26 665 261 430 261 261 582 582 582 665>
VStem: 109 152<0 401 0 401> 430 152<167 174 174 401>
LayerCount: 2
Fore
SplineSet
430 167 m 2x78
 430 401 l 1
 261 401 l 1
 261 0 l 1
 109 0 l 1x78
 109 401 l 1
 26 401 l 1
 26 536 l 1
 665 536 l 1
 665 401 l 1
 582 401 l 1
 582 174 l 2
 582 133 601 119 634 119 c 0
 647 119 657 120 665 122 c 1
 665 5 l 1
 645 -2 619 -6 582 -6 c 0xb8
 479 -6 430 43 430 167 c 2x78
EndSplineSet
EndChar

StartChar: uni03C1
Encoding: 96 961 96
Width: 666
GlyphClass: 1
Flags: MW
HStem: -160 21G<59 59 59 211> -10 129<339.5 374.5 303.5 443> 417 129<303.5 374.5>
VStem: 59 152<-160 70 -160 251> 470 152<267 269 180.5 313.5>
LayerCount: 2
Fore
SplineSet
59 -160 m 1
 59 251 l 2
 59 428 165 546 340 546 c 0
 508 546 622 424 622 269 c 2
 622 267 l 2
 622 94 503 -10 383 -10 c 0
 296 -10 248 23 211 70 c 1
 211 -160 l 1
 59 -160 l 1
339 119 m 0
 410 119 470 177 470 267 c 2
 470 269 l 2
 470 358 410 417 339 417 c 0
 268 417 209 358 209 269 c 2
 209 267 l 2
 209 178 268 119 339 119 c 0
EndSplineSet
EndChar

StartChar: uni03C3
Encoding: 97 963 97
Width: 696
GlyphClass: 1
Flags: MW
HStem: -12 131<287.5 373.5 287.5 412> 407 129
VStem: 42 150<259 260 220.5 336> 466 148<174 259 174 298>
LayerCount: 2
Fore
SplineSet
328 -12 m 0
 163 -12 42 107 42 259 c 2
 42 260 l 2
 42 412 161 536 346 536 c 2
 669 536 l 1
 669 406 l 1
 533 408 l 1
 586 368 614 319 614 247 c 2
 614 246 l 2
 614 102 496 -12 328 -12 c 0
330 119 m 0
 417 119 466 180 466 258 c 2
 466 259 l 2
 466 337 417 405 328 405 c 0
 241 405 192 338 192 260 c 2
 192 259 l 2
 192 182 245 119 330 119 c 0
EndSplineSet
EndChar

StartChar: uni03C2
Encoding: 98 962 98
Width: 574
GlyphClass: 1
Flags: MW
HStem: -11 21G<373 373> 415 131<280 346>
VStem: 42 150<274 275 275 277 277 278 231.5 346.5> 373 141<-128 -11 -11 -11>
LayerCount: 2
Fore
SplineSet
373 -128 m 1
 373 -11 l 1
 320 -4 l 2
 141 21 42 113 42 274 c 2
 42 275 l 2
 42 418 149 546 321 546 c 0
 425 546 486 510 537 453 c 1
 442 350 l 1
 409 389 374 415 318 415 c 0
 242 415 192 349 192 278 c 2
 192 277 l 2
 192 186 247 140 360 125 c 2
 514 103 l 1
 514 -128 l 1
 373 -128 l 1
EndSplineSet
EndChar

StartChar: uni03C4
Encoding: 99 964 99
Width: 576
GlyphClass: 1
Flags: MW
HStem: -7 125<401.5 406.5> 401 135<32 204 32 538 356 538 356 356>
VStem: 204 152<180 189 189 401>
LayerCount: 2
Fore
SplineSet
538 401 m 1
 356 401 l 1
 356 189 l 2
 356 137 379 118 424 118 c 0
 443 118 465 121 489 127 c 1
 489 8 l 1
 460 -1 428 -7 385 -7 c 0
 256 -7 204 43 204 180 c 2
 204 401 l 1
 32 401 l 1
 32 536 l 1
 538 536 l 1
 538 401 l 1
EndSplineSet
EndChar

StartChar: uni03C5
Encoding: 100 965 100
Width: 625
GlyphClass: 1
Flags: MW
HStem: -12 131<277.5 348.5 277.5 387>
VStem: 62 152<226 231 231 536> 411 152<228 230 230 536>
LayerCount: 2
Fore
SplineSet
311 -12 m 0
 159 -12 62 67 62 226 c 2
 62 536 l 1
 214 536 l 1
 214 231 l 2
 214 160 242 119 313 119 c 0
 384 119 411 160 411 228 c 2
 411 536 l 1
 563 536 l 1
 563 230 l 2
 563 67 463 -12 311 -12 c 0
EndSplineSet
EndChar

StartChar: uni03C6
Encoding: 101 966 101
Width: 852
GlyphClass: 1
Flags: MW
HStem: -160 21G<351 501 351 351> -1 127<351 354> 410 127<351 354>
VStem: 42 148<267 268 268 269 226.5 341> 351 150<-160 -1 537 730> 354 144<126 410 126 410> 663 147<267 268 268 269 194 309.5>
LayerCount: 2
Fore
SplineSet
501 -160 m 1xfa
 351 -160 l 1
 351 -1 l 1
 154 7 42 117 42 267 c 2
 42 268 l 2
 42 414 154 529 351 537 c 1
 351 730 l 1
 501 730 l 1
 501 537 l 1
 697 529 810 417 810 269 c 2
 810 268 l 2
 810 120 696 7 501 -1 c 1
 501 -160 l 1xfa
663 267 m 2
 663 268 l 2xfa
 663 351 602 407 498 410 c 1
 498 126 l 1xf6
 607 129 663 186 663 267 c 2
190 269 m 2
 190 268 l 2xfa
 190 185 250 130 354 126 c 1
 354 410 l 1xf6
 245 406 190 349 190 269 c 2
EndSplineSet
EndChar

StartChar: uni03C7
Encoding: 102 967 102
Width: 612
GlyphClass: 1
Flags: MW
HStem: -160 21G<-2 161 -2 -2 447 614 447 447>
VStem: -2 616<-160 -160>
LayerCount: 2
Fore
SplineSet
186 536 m 1
 307 318 l 1
 429 536 l 1
 592 536 l 1
 390 205 l 1
 614 -160 l 1
 447 -160 l 1
 304 92 l 1
 161 -160 l 1
 -2 -160 l 1
 221 203 l 1
 19 536 l 1
 186 536 l 1
EndSplineSet
EndChar

StartChar: uni03C8
Encoding: 103 968 103
Width: 832
GlyphClass: 1
Flags: MW
HStem: -160 21G<341 491 341 341> -2 131<257 342>
VStem: 62 151<264 267 267 536> 342 148<129 730 129 730> 619 151<265 268 268 536>
CounterMasks: 1 38
LayerCount: 2
Fore
SplineSet
491 -160 m 1
 341 -160 l 1
 341 -2 l 1
 173 -2 62 87 62 264 c 2
 62 536 l 1
 213 536 l 1
 213 267 l 2
 213 180 265 130 342 129 c 1
 342 730 l 1
 490 730 l 1
 490 129 l 1
 567 130 619 180 619 265 c 2
 619 536 l 1
 770 536 l 1
 770 268 l 2
 770 86 656 1 491 -2 c 1
 491 -160 l 1
EndSplineSet
EndChar

StartChar: uni03C9
Encoding: 104 969 104
Width: 880
GlyphClass: 1
Flags: MW
HStem: -12 135<282 306.5 282 309.5 573.5 626>
VStem: 48 148<257 258 258 261 261 262 213.5 312> 366 148<248 432> 684 148<177 263 177 309.5>
CounterMasks: 1 70
LayerCount: 2
Fore
SplineSet
366 432 m 1
 514 432 l 1
 514 248 l 2
 514 165 549 123 598 123 c 0
 654 123 684 166 684 262 c 2
 684 263 l 2
 684 356 647 435 564 536 c 1
 725 536 l 1
 793 456 832 368 832 257 c 2
 832 256 l 2
 832 98 760 -12 619 -12 c 0
 519 -12 466 45 439 118 c 1
 409 45 360 -12 259 -12 c 0
 118 -12 48 97 48 257 c 2
 48 258 l 2
 48 366 87 457 155 536 c 1
 314 536 l 1
 232 435 196 356 196 262 c 2
 196 261 l 2
 196 166 226 122 282 123 c 0
 331 123 366 165 366 248 c 2
 366 432 l 1
EndSplineSet
EndChar

StartChar: uni0410
Encoding: 105 1040 105
Width: 790
GlyphClass: 1
Flags: MW
HStem: 0 21G<24 24 24 181 605 605 605 766> 157 136<300 486 300 541 245 486> 685 20G<324 466 466 466>
VStem: 24 742<0 0>
LayerCount: 2
Fore
SplineSet
24 0 m 1
 324 705 l 1
 466 705 l 1
 766 0 l 1
 605 0 l 1
 541 157 l 1
 245 157 l 1
 181 0 l 1
 24 0 l 1
300 293 m 1
 486 293 l 1
 393 520 l 1
 300 293 l 1
EndSplineSet
EndChar

StartChar: uni0411
Encoding: 106 1041 106
Width: 708
GlyphClass: 1
Flags: MW
HStem: 0 136<234 404> 295 133<234 408 234 410> 564 136<234 602 234 234>
VStem: 84 150<136 136 136 295 428 564> 509 154<216 217 217 219 219 220 151.5 241.5>
LayerCount: 2
Fore
SplineSet
84 0 m 1
 84 700 l 1
 602 700 l 1
 602 564 l 1
 234 564 l 1
 234 428 l 1
 410 428 l 2
 570 428 663 356 663 220 c 2
 663 219 l 2
 663 84 572 0 404 0 c 2
 84 0 l 1
234 136 m 1
 407 136 l 2
 467 136 509 164 509 216 c 2
 509 217 l 2
 509 266 472 295 408 295 c 2
 234 295 l 1
 234 136 l 1
EndSplineSet
EndChar

StartChar: uni0412
Encoding: 107 1042 107
Width: 722
GlyphClass: 1
Flags: MW
HStem: 0 135<234 417 234 417> 289 128<234 376 376 410 234 412 234 376> 565 135<234 386 234 234>
VStem: 84 150<135 289 417 565> 487 153<491 493 493 516.5> 526 153<128 213 128 236.5>
LayerCount: 2
Fore
SplineSet
84 0 m 1xf4
 84 700 l 1
 409 700 l 2
 490 700 551 679 592 638 c 0
 624 606 640 566 640 519 c 2
 640 517 l 2xf8
 640 439 598 392 548 366 c 1
 629 335 679 287 679 194 c 2
 679 192 l 2
 679 64 575 0 417 0 c 2
 84 0 l 1xf4
487 491 m 2
 487 493 l 2
 487 540 451 565 386 565 c 2
 234 565 l 1
 234 417 l 1
 376 417 l 2
 444 417 487 439 487 491 c 2
526 211 m 2xf4
 526 213 l 2
 526 260 492 289 412 289 c 2
 234 289 l 1
 234 135 l 1
 417 135 l 2
 485 135 526 159 526 211 c 2xf4
EndSplineSet
EndChar

StartChar: uni0413
Encoding: 108 1043 108
Width: 619
GlyphClass: 1
Flags: MW
HStem: 0 21G<84 84 84 238> 560 140<238 587 238 238>
VStem: 84 154<0 560 0 700 0 700>
LayerCount: 2
Fore
SplineSet
84 0 m 1
 84 700 l 1
 587 700 l 1
 587 560 l 1
 238 560 l 1
 238 0 l 1
 84 0 l 1
EndSplineSet
EndChar

StartChar: uni0414
Encoding: 109 1044 109
Width: 842
GlyphClass: 1
Flags: MW
HStem: 0 134<258 580 258 668 174 580> 0 140<30 668 30 174> 685 20G<340 502 502 502>
VStem: 30 144<-142 0 -142 140 -142 140> 668 144<-142 0 0 0>
LayerCount: 2
Fore
SplineSet
30 140 m 1x78
 100 140 l 1
 340 705 l 1
 502 705 l 1
 740 140 l 1
 812 140 l 1x78
 812 -142 l 1
 668 -142 l 1
 668 0 l 1
 174 0 l 1xb8
 174 -142 l 1
 30 -142 l 1
 30 140 l 1x78
419 535 m 1
 258 134 l 1
 580 134 l 1xb8
 419 535 l 1
EndSplineSet
EndChar

StartChar: uni0415
Encoding: 110 1045 110
Width: 670
GlyphClass: 1
Flags: MW
HStem: 0 137<237 617 237 617> 284 137<237 567 237 567> 563 137<237 612 237 237>
VStem: 84 153<137 284 421 563>
LayerCount: 2
Fore
SplineSet
84 0 m 1
 84 700 l 1
 612 700 l 1
 612 563 l 1
 237 563 l 1
 237 421 l 1
 567 421 l 1
 567 284 l 1
 237 284 l 1
 237 137 l 1
 617 137 l 1
 617 0 l 1
 84 0 l 1
EndSplineSet
EndChar

StartChar: uni0401
Encoding: 111 1025 111
Width: 670
GlyphClass: 1
Flags: MW
HStem: 0 137<237 617 237 617> 284 137<237 567 237 567> 563 137<237 612 237 237> 755 127<168 314 168 314 168 386 386 532>
VStem: 84 153<137 284 421 563> 168 146<755 882 755 882> 386 146<755 882 755 882>
LayerCount: 2
Fore
SplineSet
84 0 m 1xfa
 84 700 l 1
 612 700 l 1
 612 563 l 1
 237 563 l 1
 237 421 l 1
 567 421 l 1
 567 284 l 1
 237 284 l 1
 237 137 l 1
 617 137 l 1
 617 0 l 1
 84 0 l 1xfa
386 755 m 1
 386 882 l 1
 532 882 l 1
 532 755 l 1
 386 755 l 1
168 755 m 1xf6
 168 882 l 1
 314 882 l 1
 314 755 l 1
 168 755 l 1xf6
EndSplineSet
EndChar

StartChar: uni0416
Encoding: 112 1046 112
Width: 1094
GlyphClass: 1
Flags: MW
HStem: 0 21G<5 186 5 5 471 623 471 471 906 1089 906 906> 287 130<440 472 440 472 428 472 621 655> 680 20G<30 213 213 213 471 623 623 623 883 1064 1064 1064>
VStem: 471 150
LayerCount: 2
Fore
SplineSet
30 700 m 1
 213 700 l 1
 440 417 l 1
 472 417 l 1
 471 700 l 1
 623 700 l 1
 621 417 l 1
 655 417 l 1
 883 700 l 1
 1064 700 l 1
 781 358 l 1
 1089 0 l 1
 906 0 l 1
 662 287 l 1
 621 287 l 1
 623 0 l 1
 471 0 l 1
 472 287 l 1
 428 287 l 1
 186 0 l 1
 5 0 l 1
 314 358 l 1
 30 700 l 1
EndSplineSet
EndChar

StartChar: uni0417
Encoding: 113 1047 113
Width: 668
GlyphClass: 1
Flags: MW
HStem: -12 138<293 371 293 422> 289 128<203 332 203 336> 574 138<300 336>
VStem: 446 156<499 500 500 522 522 523 476.5 523.5> 465 156<136.5 210 136.5 235.5>
LayerCount: 2
Fore
SplineSet
143 492 m 1xe8
 50 596 l 1
 129 667 214 712 339 712 c 0
 507 712 602 639 602 523 c 2
 602 522 l 2xf0
 602 431 555 389 483 360 c 1
 564 338 621 296 621 197 c 2
 621 196 l 2
 621 77 515 -12 329 -12 c 0
 201 -12 108 33 37 96 c 1
 128 206 l 1
 188 159 253 126 333 126 c 0
 409 126 465 153 465 209 c 2
 465 210 l 2xe8
 465 261 416 290 332 289 c 2
 203 289 l 1
 203 417 l 1
 336 417 l 2
 408 417 446 451 446 499 c 2
 446 500 l 2xf0
 446 547 405 575 336 574 c 0
 264 574 202 540 143 492 c 1xe8
EndSplineSet
EndChar

StartChar: uni0418
Encoding: 114 1048 114
Width: 790
GlyphClass: 1
Flags: MW
HStem: 0 21G<84 220 84 84 552 706 552 552> 680 20G<84 238 238 238 559 706 706 706>
VStem: 84 154<257 700 257 700 257 700> 552 154<0 457 457 457>
LayerCount: 2
Fore
SplineSet
706 0 m 1
 552 0 l 1
 552 457 l 1
 220 0 l 1
 84 0 l 1
 84 700 l 1
 238 700 l 1
 238 257 l 1
 559 700 l 1
 706 700 l 1
 706 0 l 1
EndSplineSet
EndChar

StartChar: uni0419
Encoding: 115 1049 115
Width: 790
GlyphClass: 1
Flags: MW
HStem: 0 21G<84 220 84 84 552 706 552 552> 680 20G<84 238 238 238 559 706 706 706> 753 100<369.5 420.5 369.5 448.5>
VStem: 84 154<257 700 257 700 257 700> 552 154<0 457 457 457>
LayerCount: 2
Fore
SplineSet
706 0 m 1
 552 0 l 1
 552 457 l 1
 220 0 l 1
 84 0 l 1
 84 700 l 1
 238 700 l 1
 238 257 l 1
 559 700 l 1
 706 700 l 1
 706 0 l 1
395 753 m 0
 288 753 214 806 205 902 c 1
 309 902 l 1
 321 871 344 853 395 853 c 0
 446 853 469 871 481 902 c 1
 585 902 l 1
 576 806 502 753 395 753 c 0
EndSplineSet
EndChar

StartChar: uni041A
Encoding: 116 1050 116
Width: 740
GlyphClass: 1
Flags: MW
HStem: 0 21G<84 84 84 238 544 544 544 740> 285 134<236 285 236 289 236 285> 680 20G<84 238 238 238 530 721 721 721>
VStem: 84 153
LayerCount: 2
Fore
SplineSet
84 0 m 1
 84 700 l 1
 238 700 l 1
 236 419 l 1
 285 419 l 1
 530 700 l 1
 721 700 l 1
 408 361 l 1
 740 0 l 1
 544 0 l 1
 289 285 l 1
 236 285 l 1
 238 0 l 1
 84 0 l 1
EndSplineSet
EndChar

StartChar: uni041B
Encoding: 117 1051 117
Width: 770
GlyphClass: 1
Flags: MW
HStem: 0 21G<24 190 24 24 576 746 576 576> 685 20G<317 453 453 453>
VStem: 24 722<0 0>
LayerCount: 2
Fore
SplineSet
453 705 m 1
 746 0 l 1
 576 0 l 1
 382 489 l 1
 190 0 l 1
 24 0 l 1
 317 705 l 1
 453 705 l 1
EndSplineSet
EndChar

StartChar: uni041C
Encoding: 118 1052 118
Width: 868
GlyphClass: 1
Flags: MW
HStem: 0 21G<84 84 84 235 631 631 631 784> 680 20G<84 250 250 250 618 784 784 784>
VStem: 84 151<0 454 0 700> 631 153<0 457 457 457>
LayerCount: 2
Fore
SplineSet
84 0 m 1
 84 700 l 1
 250 700 l 1
 434 404 l 1
 618 700 l 1
 784 700 l 1
 784 0 l 1
 631 0 l 1
 631 457 l 1
 434 158 l 1
 430 158 l 1
 235 454 l 1
 235 0 l 1
 84 0 l 1
EndSplineSet
EndChar

StartChar: uni041D
Encoding: 119 1053 119
Width: 760
GlyphClass: 1
Flags: MW
HStem: 0 21G<84 84 84 238 522 522 522 676> 281 142<238 522 238 522> 680 20G<84 238 238 238 522 676 676 676>
VStem: 84 154<0 281 423 700> 522 154<0 281 281 281 423 700 0 700>
LayerCount: 2
Fore
SplineSet
84 0 m 1
 84 700 l 1
 238 700 l 1
 238 423 l 1
 522 423 l 1
 522 700 l 1
 676 700 l 1
 676 0 l 1
 522 0 l 1
 522 281 l 1
 238 281 l 1
 238 0 l 1
 84 0 l 1
EndSplineSet
EndChar

StartChar: uni041E
Encoding: 120 1054 120
Width: 850
GlyphClass: 1
Flags: MW
HStem: -12 142<364 488 364 532> 570 142<362 486>
VStem: 53 161<348 350 350 352 290 449.5> 636 161<348 350 350 352 250.5 410>
LayerCount: 2
Fore
SplineSet
424 -12 m 0
 208 -12 53 149 53 348 c 2
 53 350 l 2
 53 549 210 712 426 712 c 0
 642 712 797 551 797 352 c 2
 797 350 l 2
 797 151 640 -12 424 -12 c 0
426 130 m 0
 550 130 636 228 636 348 c 2
 636 350 l 2
 636 470 548 570 424 570 c 0
 300 570 214 472 214 352 c 2
 214 350 l 2
 214 230 302 130 426 130 c 0
EndSplineSet
EndChar

StartChar: uni041F
Encoding: 121 1055 121
Width: 755
GlyphClass: 1
Flags: MW
HStem: 0 21G<84 84 84 238 517 517 517 671> 560 140<238 517 238 238>
VStem: 84 154<0 560 0 700 0 700> 517 154<0 560 560 560>
LayerCount: 2
Fore
SplineSet
84 0 m 1
 84 700 l 1
 671 700 l 1
 671 0 l 1
 517 0 l 1
 517 560 l 1
 238 560 l 1
 238 0 l 1
 84 0 l 1
EndSplineSet
EndChar

StartChar: uni0420
Encoding: 122 1056 122
Width: 668
GlyphClass: 1
Flags: MW
HStem: 0 21G<84 84 84 238> 210 137<238 355 238 360> 561 139<238 357 238 238>
VStem: 84 154<0 210 347 561> 482 156<453 455 455 456 456 458 374.5 489.5>
LayerCount: 2
Fore
SplineSet
84 0 m 1
 84 700 l 1
 370 700 l 2
 537 700 638 602 638 458 c 2
 638 456 l 2
 638 293 512 210 355 210 c 2
 238 210 l 1
 238 0 l 1
 84 0 l 1
238 347 m 1
 360 347 l 2
 437 347 482 393 482 453 c 2
 482 455 l 2
 482 524 434 561 357 561 c 2
 238 561 l 1
 238 347 l 1
EndSplineSet
EndChar

StartChar: uni0421
Encoding: 123 1057 123
Width: 738
GlyphClass: 1
Flags: MW
HStem: -12 142<357 457 357 480> 570 142<358 452.5>
VStem: 53 161<348 350 350 352 290 449.5>
LayerCount: 2
Fore
SplineSet
412 -12 m 0
 206 -12 53 147 53 348 c 2
 53 350 l 2
 53 549 203 712 418 712 c 0
 549 712 630 668 694 604 c 1
 596 491 l 1
 541 540 488 570 417 570 c 0
 299 570 214 472 214 352 c 2
 214 350 l 2
 214 230 297 130 417 130 c 0
 497 130 546 161 601 212 c 1
 699 113 l 1
 627 36 548 -12 412 -12 c 0
EndSplineSet
EndChar

StartChar: uni0422
Encoding: 124 1058 124
Width: 648
GlyphClass: 1
Flags: MW
HStem: 0 21G<247 247 247 401> 558 142<34 247 34 614 401 401 401 614>
VStem: 247 154<0 558 0 558>
LayerCount: 2
Fore
SplineSet
247 0 m 1
 247 558 l 1
 34 558 l 1
 34 700 l 1
 614 700 l 1
 614 558 l 1
 401 558 l 1
 401 0 l 1
 247 0 l 1
EndSplineSet
EndChar

StartChar: uni0423
Encoding: 125 1059 125
Width: 724
GlyphClass: 1
Flags: MW
HStem: 0 21G<153 324 153 153> 680 20G<21 195 195 195 542 713 713 713>
VStem: 21 692<700 700>
LayerCount: 2
Fore
SplineSet
324 0 m 1
 153 0 l 1
 290 240 l 1
 21 700 l 1
 195 700 l 1
 376 380 l 1
 542 700 l 1
 713 700 l 1
 324 0 l 1
EndSplineSet
EndChar

StartChar: uni0424
Encoding: 126 1060 126
Width: 976
GlyphClass: 1
Flags: MW
HStem: -8 21G<411 411 411 565> 62 134<411 411> 508 134<411 414> 508 200<414 414 562 562>
VStem: 48 160<351 352 307 434> 411 154<-8 62 -8 62 642 708> 414 148<196 508 196 508> 768 160<352 353 270.5 397>
LayerCount: 2
Fore
SplineSet
411 -8 m 1xed
 411 62 l 1
 179 65 48 186 48 351 c 2
 48 352 l 2
 48 516 179 637 411 642 c 1xed
 411 708 l 1
 565 708 l 1xdd
 565 642 l 1
 794 637 928 519 928 353 c 2
 928 352 l 2
 928 189 797 65 565 62 c 1
 565 -8 l 1
 411 -8 l 1xed
768 352 m 2xdb
 768 353 l 2
 768 441 702 507 562 508 c 1
 562 196 l 1
 702 197 768 260 768 352 c 2xdb
208 352 m 2
 208 351 l 2
 208 263 274 196 414 196 c 1
 414 508 l 1
 274 507 208 443 208 352 c 2
EndSplineSet
Substitution2: "'locl' Localized Forms in Cyrillic lookup 5 subtable" uni0424.bgr
Substitution2: "'aalt' Access All Alternates lookup 0 subtable" uni0424.bgr
EndChar

StartChar: uni0424.bgr
Encoding: 127 -1 127
Width: 990
GlyphClass: 1
Flags: MW
HStem: -1 139<418 423> 561 140<418 423>
VStem: 53 159<348 350 350 352 292 446> 418 154<-100 -1 -100 -1 701 800> 423 144<138 561 138 561> 778 159<348 350 350 352 254 408>
LayerCount: 2
Fore
SplineSet
418 -100 m 1xf4
 418 -1 l 1
 194 12 53 155 53 348 c 2
 53 350 l 2
 53 542 197 688 418 701 c 1
 418 800 l 1
 572 800 l 1
 572 701 l 1
 796 688 937 544 937 352 c 2
 937 350 l 2
 937 158 793 12 572 -1 c 1
 572 -100 l 1
 418 -100 l 1xf4
778 348 m 2
 778 350 l 2xf4
 778 466 701 553 567 561 c 1
 567 138 l 1xec
 702 146 778 230 778 348 c 2
212 352 m 2
 212 350 l 2xf4
 212 234 289 146 423 138 c 1
 423 561 l 1xec
 288 553 212 469 212 352 c 2
EndSplineSet
EndChar

StartChar: uni0425
Encoding: 128 1061 128
Width: 732
GlyphClass: 1
Flags: MW
HStem: 0 21G<31 206 31 31 521 701 521 521> 680 20G<41 221 221 221 516 691 691 691>
VStem: 31 670<0 0>
LayerCount: 2
Fore
SplineSet
516 700 m 1
 691 700 l 1
 457 358 l 1
 701 0 l 1
 521 0 l 1
 364 240 l 1
 206 0 l 1
 31 0 l 1
 275 356 l 1
 41 700 l 1
 221 700 l 1
 367 473 l 1
 516 700 l 1
EndSplineSet
EndChar

StartChar: uni0426
Encoding: 129 1062 129
Width: 789
GlyphClass: 1
Flags: MW
HStem: 0 140<238 517 238 618> 680 20G<84 238 238 238 517 671 671 671>
VStem: 84 154<140 700 140 700 140 700> 517 154<140 700 140 700> 618 144<-142 0 0 0>
LayerCount: 2
Fore
SplineSet
618 -142 m 1xe8
 618 0 l 1xe8
 84 0 l 1
 84 700 l 1
 238 700 l 1
 238 140 l 1
 517 140 l 1
 517 700 l 1
 671 700 l 1
 671 140 l 1xf0
 762 140 l 1
 762 -142 l 1
 618 -142 l 1xe8
EndSplineSet
EndChar

StartChar: uni0427
Encoding: 130 1063 130
Width: 714
GlyphClass: 1
Flags: MW
HStem: 0 21G<476 476 476 630> 210 140<304.5 354.5> 680 20G<66 220 220 220 476 630 630 630>
VStem: 66 154<453 470 470 700> 476 154<0 226 226 226 366 700 0 700>
LayerCount: 2
Fore
SplineSet
476 0 m 1
 476 226 l 1
 431 217 378 210 331 210 c 0
 171 210 66 285 66 453 c 2
 66 700 l 1
 220 700 l 1
 220 470 l 2
 220 386 262 350 347 350 c 0
 394 350 437 355 476 366 c 1
 476 700 l 1
 630 700 l 1
 630 0 l 1
 476 0 l 1
EndSplineSet
EndChar

StartChar: uni0428
Encoding: 131 1064 131
Width: 1128
GlyphClass: 1
Flags: MW
HStem: 0 140<238 487 641 890> 680 20G<84 238 238 238 487 641 641 641 890 1044 1044 1044>
VStem: 84 154<140 700 140 700 140 700> 487 154<140 700 140 700> 890 154<140 700 0 700>
CounterMasks: 1 38
LayerCount: 2
Fore
SplineSet
84 0 m 1
 84 700 l 1
 238 700 l 1
 238 140 l 1
 487 140 l 1
 487 700 l 1
 641 700 l 1
 641 140 l 1
 890 140 l 1
 890 700 l 1
 1044 700 l 1
 1044 0 l 1
 84 0 l 1
EndSplineSet
EndChar

StartChar: uni0429
Encoding: 132 1065 132
Width: 1162
GlyphClass: 1
Flags: MW
HStem: 0 140<238 487 641 890> 680 20G<84 238 238 238 487 641 641 641 890 1044 1044 1044>
VStem: 84 154<140 700 140 700 140 700> 487 154<140 700 140 700> 890 154<140 700 140 700> 991 144<-142 0 0 0>
LayerCount: 2
Fore
SplineSet
84 0 m 1xf8
 84 700 l 1
 238 700 l 1
 238 140 l 1
 487 140 l 1
 487 700 l 1
 641 700 l 1
 641 140 l 1
 890 140 l 1
 890 700 l 1
 1044 700 l 1
 1044 140 l 1xf8
 1135 140 l 1
 1135 -142 l 1
 991 -142 l 1
 991 0 l 1xf4
 84 0 l 1xf8
EndSplineSet
EndChar

StartChar: uni042A
Encoding: 133 1066 133
Width: 832
GlyphClass: 1
Flags: MW
HStem: 0 139<397 515> 343 137<397 519 397 521> 563 137<34 243 34 397>
VStem: 243 154<139 139 139 343 480 563 563 563> 641 156<241 242 242 243 243 244 168.5 274>
LayerCount: 2
Fore
SplineSet
243 0 m 1
 243 563 l 1
 34 563 l 1
 34 700 l 1
 397 700 l 1
 397 480 l 1
 521 480 l 2
 689 480 797 400 797 244 c 2
 797 243 l 2
 797 94 698 0 515 0 c 2
 243 0 l 1
397 139 m 1
 518 139 l 2
 594 139 641 173 641 241 c 2
 641 242 l 2
 641 306 599 343 519 343 c 2
 397 343 l 1
 397 139 l 1
EndSplineSet
EndChar

StartChar: uni042B
Encoding: 134 1067 134
Width: 978
GlyphClass: 1
Flags: MW
HStem: 0 139<238 356> 343 137<238 360 238 362> 680 20G<84 238 238 238 740 894 894 894>
VStem: 84 154<139 139 139 343 480 700> 482 156<241 242 242 243 243 244 168.5 274> 740 154<0 700 0 700>
LayerCount: 2
Fore
SplineSet
84 0 m 1
 84 700 l 1
 238 700 l 1
 238 480 l 1
 362 480 l 2
 530 480 638 400 638 244 c 2
 638 243 l 2
 638 94 539 0 356 0 c 2
 84 0 l 1
740 0 m 1
 740 700 l 1
 894 700 l 1
 894 0 l 1
 740 0 l 1
238 139 m 1
 359 139 l 2
 435 139 482 173 482 241 c 2
 482 242 l 2
 482 306 440 343 360 343 c 2
 238 343 l 1
 238 139 l 1
EndSplineSet
EndChar

StartChar: uni042C
Encoding: 135 1068 135
Width: 673
GlyphClass: 1
Flags: MW
HStem: 0 139<238 356> 343 137<238 360 238 362> 680 20G<84 238 238 238>
VStem: 84 154<139 139 139 343 480 700> 482 156<241 242 242 243 243 244 168.5 274>
LayerCount: 2
Fore
SplineSet
84 0 m 1
 84 700 l 1
 238 700 l 1
 238 480 l 1
 362 480 l 2
 530 480 638 400 638 244 c 2
 638 243 l 2
 638 94 539 0 356 0 c 2
 84 0 l 1
238 139 m 1
 359 139 l 2
 435 139 482 173 482 241 c 2
 482 242 l 2
 482 306 440 343 360 343 c 2
 238 343 l 1
 238 139 l 1
EndSplineSet
EndChar

StartChar: uni042D
Encoding: 136 1069 136
Width: 734
GlyphClass: 1
Flags: MW
HStem: -12 139<286.5 372.5 286.5 430.5> 288 130<210 516 210 516 210 518> 573 139<286 375.5>
VStem: 39 642<102 350>
LayerCount: 2
Fore
SplineSet
210 288 m 1
 210 418 l 1
 516 418 l 1
 495 510 423 573 328 573 c 0
 244 573 190 539 137 494 c 1
 46 599 l 1
 115 665 198 712 336 712 c 0
 535 712 681 563 681 352 c 2
 681 350 l 2
 681 145 536 -12 325 -12 c 0
 198 -12 111 33 39 102 c 1
 136 210 l 1
 197 157 249 127 324 127 c 0
 421 127 496 191 518 288 c 1
 210 288 l 1
EndSplineSet
EndChar

StartChar: uni042E
Encoding: 137 1070 137
Width: 1119
GlyphClass: 1
Flags: MW
HStem: -12 142<648.5 767.5 648.5 810> 0 21G<84 84 84 238> 281 142<238 354 238 355> 570 142<646.5 765.5> 680 20G<84 238 238 238>
VStem: 84 154<0 281 423 700> 905 161<348 350 350 352 252 410>
LayerCount: 2
Fore
SplineSet
84 0 m 1x76
 84 700 l 1
 238 700 l 1xae
 238 423 l 1
 355 423 l 1
 387 585 525 712 708 712 c 0
 917 712 1066 548 1066 352 c 2
 1066 350 l 2
 1066 154 914 -12 706 -12 c 0xb6
 521 -12 383 116 354 281 c 1
 238 281 l 1
 238 0 l 1
 84 0 l 1x76
708 130 m 0
 827 130 905 227 905 348 c 2
 905 350 l 2
 905 470 825 570 706 570 c 0xb6
 587 570 509 473 509 352 c 2
 509 350 l 2
 509 230 589 130 708 130 c 0
EndSplineSet
EndChar

StartChar: uni042F
Encoding: 138 1071 138
Width: 723
GlyphClass: 1
Flags: MW
HStem: 0 21G<34 216 34 34 485 639 485 485> 224 136<373 485 373 373> 561 139<294 639 348 485>
VStem: 55 156<458 459 459 460> 485 154<0 224 224 224 360 561 561 561>
LayerCount: 2
Fore
SplineSet
639 700 m 1
 639 0 l 1
 485 0 l 1
 485 224 l 1
 373 224 l 1
 216 0 l 1
 34 0 l 1
 211 248 l 1
 121 280 55 348 55 458 c 2
 55 459 l 2
 55 623 169 700 348 700 c 2
 639 700 l 1
485 561 m 1
 332 561 l 2
 256 561 211 528 211 460 c 2
 211 459 l 2
 211 399 253 359 329 360 c 2
 485 360 l 1
 485 561 l 1
EndSplineSet
EndChar

StartChar: uni0430
Encoding: 139 1072 139
Width: 592
GlyphClass: 1
Flags: MW
HStem: -10 105<241.5 257.5> 0 95<241.5 529 241.5 382> 236 91<255.5 279.5 188.5 306.5> 412 130<244.5 306>
VStem: 36 147<154 156 156 160 160 162 139.5 214> 382 147<0 58 58 58>
LayerCount: 2
Fore
SplineSet
220 -10 m 0xbc
 119 -10 36 47 36 154 c 2
 36 156 l 2
 36 272 125 327 252 327 c 0
 307 327 344 318 383 305 c 1
 383 314 l 2
 383 378 344 412 268 412 c 0
 209 412 169 402 120 383 c 1
 82 499 l 1
 141 524 199 542 290 542 c 0
 374 542 432 521 471 482 c 0
 511 442 529 383 529 311 c 2
 529 0 l 1
 382 0 l 1x7c
 382 58 l 1
 345 17 295 -10 220 -10 c 0xbc
266 95 m 0
 338 95 385 133 385 189 c 2
 385 216 l 1
 358 228 325 236 288 236 c 0
 223 236 183 210 183 162 c 2
 183 160 l 2
 183 119 217 95 266 95 c 0
EndSplineSet
EndChar

StartChar: uni0431
Encoding: 140 1073 140
Width: 657
GlyphClass: 1
Flags: MW
HStem: -12 127<289 369 289 413> 383 111<332.5 377.5>
VStem: 47 150<209.5 317 209.5 430.5> 465 149<254 255 255 256 256 257 180 291.5>
LayerCount: 2
Fore
SplineSet
327 -12 m 0
 242 -12 175 21 134 62 c 0
 78 118 47 195 47 316 c 2
 47 317 l 2
 47 544 138 674 333 706 c 2
 535 740 l 1
 559 601 l 1
 360 570 l 2
 256 553 204 507 189 435 c 1
 232 470 296 494 369 494 c 0
 527 494 614 398 614 257 c 2
 614 256 l 2
 614 104 499 -12 327 -12 c 0
329 115 m 0
 409 115 465 174 465 254 c 2
 465 255 l 2
 465 328 419 383 336 383 c 0
 245 383 197 321 197 247 c 2
 197 246 l 2
 197 173 249 115 329 115 c 0
EndSplineSet
Substitution2: "'locl' Localized Forms in Cyrillic lookup 4 subtable" uni0431.srb
Substitution2: "'locl' Localized Forms in Cyrillic lookup 3 subtable" uni0431.srb
Substitution2: "'aalt' Access All Alternates lookup 0 subtable" uni0431.srb
EndChar

StartChar: uni0432
Encoding: 141 1074 141
Width: 595
GlyphClass: 1
Flags: MW
HStem: 0 107<216 333 333 343> 219 102<216 312 216 312 312 330> 429 107<216 313 216 216>
VStem: 68 148<107 219 107 321 321 429> 383 147<376 377 377 391.5> 407 147<100 165 100 181.5>
LayerCount: 2
Fore
SplineSet
68 0 m 1xf4
 68 536 l 1
 343 536 l 2
 455 536 530 485 530 397 c 2
 530 396 l 2xf8
 530 333 499 303 454 280 c 1
 514 257 554 225 554 153 c 2
 554 152 l 2
 554 48 467 0 343 0 c 2
 68 0 l 1xf4
216 321 m 1
 312 321 l 2
 363 321 383 343 383 376 c 2
 383 377 l 2
 383 406 360 430 313 429 c 2
 216 429 l 1
 216 321 l 1
216 219 m 1
 216 107 l 1
 333 107 l 2
 380 107 407 125 407 164 c 2
 407 165 l 2
 407 198 382 220 330 219 c 2xf4
 216 219 l 1
EndSplineSet
Substitution2: "'locl' Localized Forms in Cyrillic lookup 5 subtable" uni0432.bgr
Substitution2: "'aalt' Access All Alternates lookup 0 subtable" uni0432.bgr
EndChar

StartChar: uni0432.bgr
Encoding: 142 -1 142
Width: 653
GlyphClass: 1
Flags: MW
HStem: -12 125<296.5 380 296.5 421.5> 305 107<210 287 287 288 210 287> 612 125<293.5 364>
VStem: 59 151<266 267 267 305 217 412 412 472 472 473> 433 148<520 521 521 532 532 533 485.5 546.5> 458 150<129 205 129 238.5>
LayerCount: 2
Fore
SplineSet
344 -12 m 0xf4
 168 -12 59 71 59 266 c 2
 59 472 l 2
 59 639 158 737 331 737 c 0
 485 737 581 656 581 533 c 2
 581 532 l 2xf8
 581 439 523 387 454 363 c 1
 551 339 608 290 608 189 c 2
 608 188 l 2
 608 70 499 -12 344 -12 c 0xf4
344 113 m 0
 416 113 458 152 458 204 c 2
 458 205 l 2
 458 272 407 306 288 305 c 2
 210 305 l 1
 210 267 l 2
 210 167 249 113 344 113 c 0
210 473 m 2
 210 412 l 1
 287 412 l 2
 380 412 433 452 433 520 c 2
 433 521 l 2xf8
 433 572 396 612 332 612 c 0
 255 612 210 557 210 473 c 2
EndSplineSet
EndChar

StartChar: uni0433
Encoding: 143 1075 143
Width: 510
GlyphClass: 1
Flags: MW
HStem: 0 21G<68 68 68 220> 399 137<220 478 220 220>
VStem: 68 152<0 399 0 536 0 536>
LayerCount: 2
Fore
SplineSet
68 0 m 1
 68 536 l 1
 478 536 l 1
 478 399 l 1
 220 399 l 1
 220 0 l 1
 68 0 l 1
EndSplineSet
Substitution2: "'locl' Localized Forms in Cyrillic lookup 5 subtable" uni0433.bgr
Substitution2: "'aalt' Access All Alternates lookup 0 subtable" uni0433.bgr
EndChar

StartChar: uni0433.bgr
Encoding: 144 -1 144
Width: 523
GlyphClass: 1
Flags: MW
HStem: -10 117<230 258.5 230 273> 427 117<254.5 280>
VStem: 36 137<134 150 134 195.5> 334 137<335.5 390 335.5 400.5>
LayerCount: 2
Fore
SplineSet
227 -10 m 0
 114 -10 36 45 36 148 c 2
 36 150 l 2
 36 241 94 286 213 323 c 0
 309 352 334 362 334 389 c 2
 334 390 l 2
 334 411 317 428 280 427 c 0
 229 427 174 406 113 371 c 1
 55 475 l 1
 126 519 205 544 282 544 c 0
 406 544 471 482 471 385 c 2
 471 383 l 2
 471 288 405 251 293 216 c 0
 190 184 173 169 173 145 c 2
 173 144 l 2
 173 124 189 106 230 107 c 0
 287 107 350 131 426 179 c 1
 488 78 l 1
 407 22 319 -10 227 -10 c 0
EndSplineSet
EndChar

StartChar: uni0434
Encoding: 145 1076 145
Width: 680
GlyphClass: 1
Flags: MW
HStem: 1 130<234 443 234 521 159 443> 1 136<22 521 22 159> 520 20G<260 420 420 420>
VStem: 22 137<-128 1 -128 137 -128 137> 521 137<-128 1 1 1>
LayerCount: 2
Fore
SplineSet
420 540 m 1xb8
 598 137 l 1
 658 137 l 1x78
 658 -128 l 1
 521 -128 l 1
 521 1 l 1
 159 1 l 1xb8
 159 -128 l 1
 22 -128 l 1
 22 137 l 1
 82 137 l 1x78
 260 540 l 1
 420 540 l 1xb8
339 384 m 1
 234 131 l 1
 443 131 l 1xb8
 339 384 l 1
EndSplineSet
Substitution2: "'locl' Localized Forms in Cyrillic lookup 5 subtable" uni0434.bgr
Substitution2: "'aalt' Access All Alternates lookup 0 subtable" uni0434.bgr
EndChar

StartChar: uni0434.bgr
Encoding: 146 -1 146
Width: 675
GlyphClass: 1
Flags: MW
HStem: -162 121<268 356 268 360> 44 126<288.5 322.5> 420 116<289 607> 420 126<289 323.5 220.5 363.5>
VStem: 44 152<294 296 256.5 376> 457 150<105 121 121 131 131 131 294 296 296 332.5>
LayerCount: 2
Fore
SplineSet
308 -162 m 0xdc
 220 -162 139 -142 71 -106 c 1
 123 8 l 1
 179 -23 232 -41 304 -41 c 0
 408 -41 457 9 457 105 c 2
 457 131 l 1
 412 76 363 44 282 44 c 0
 157 44 44 134 44 294 c 2
 44 296 l 2
 44 456 159 546 282 546 c 0
 365 546 414 511 455 466 c 1xdc
 455 536 l 1
 607 536 l 1xec
 607 121 l 2
 607 26 584 -45 539 -90 c 0
 488 -141 412 -162 308 -162 c 0xdc
326 170 m 0
 401 170 457 221 457 294 c 2
 457 296 l 2
 457 369 401 420 326 420 c 0
 252 420 196 369 196 296 c 2
 196 294 l 2
 196 219 251 170 326 170 c 0
EndSplineSet
EndChar

StartChar: uni0435
Encoding: 147 1077 147
Width: 613
GlyphClass: 1
Flags: MW
HStem: -12 122<290 349.5 290 370.5> 215 95<193 420 191 566 193 193> 424 122<275 339>
VStem: 42 526<265 267 267 331 249 343.5> 420 148<310 310>
LayerCount: 2
Fore
SplineSet
322 -12 m 0xf0
 161 -12 42 101 42 265 c 2
 42 267 l 2
 42 420 151 546 307 546 c 0
 486 546 568 407 568 255 c 0
 568 243 567 230 566 215 c 1xe8
 193 215 l 1
 208 146 256 110 324 110 c 0
 375 110 411 126 454 165 c 1
 541 88 l 1
 490 25 419 -12 322 -12 c 0xf0
191 310 m 1
 420 310 l 1xe8
 411 378 371 424 307 424 c 0
 243 424 203 379 191 310 c 1
EndSplineSet
EndChar

StartChar: uni0451
Encoding: 148 1105 148
Width: 613
GlyphClass: 1
Flags: MW
HStem: -12 122<290 349.5 290 370.5> 215 95<193 420 191 566 193 193> 424 122<275 339> 595 135<128 274 128 274 128 336 336 482>
VStem: 128 146<595 730 595 730> 336 146<595 730 595 730> 420 148<310 310>
LayerCount: 2
Fore
SplineSet
322 -12 m 0xfc
 161 -12 42 101 42 265 c 2
 42 267 l 2
 42 420 151 546 307 546 c 0
 486 546 568 407 568 255 c 0
 568 243 567 230 566 215 c 1xfa
 193 215 l 1
 208 146 256 110 324 110 c 0
 375 110 411 126 454 165 c 1
 541 88 l 1
 490 25 419 -12 322 -12 c 0xfc
191 310 m 1
 420 310 l 1xfa
 411 378 371 424 307 424 c 0
 243 424 203 379 191 310 c 1
336 595 m 1xfc
 336 730 l 1
 482 730 l 1
 482 595 l 1
 336 595 l 1xfc
128 595 m 1
 128 730 l 1
 274 730 l 1
 274 595 l 1
 128 595 l 1
EndSplineSet
EndChar

StartChar: uni0436
Encoding: 149 1078 149
Width: 908
GlyphClass: 1
Flags: MW
HStem: 0 21G<4 181 4 4 380 528 380 380 727 904 727 727> 206 129<344 381 344 381 340 381 526 565>
VStem: 380 146
LayerCount: 2
Fore
SplineSet
528 536 m 1
 526 335 l 1
 565 335 l 1
 719 536 l 1
 895 536 l 1
 680 275 l 1
 904 0 l 1
 727 0 l 1
 566 206 l 1
 526 206 l 1
 528 0 l 1
 380 0 l 1
 381 206 l 1
 340 206 l 1
 181 0 l 1
 4 0 l 1
 228 267 l 1
 13 536 l 1
 191 536 l 1
 344 335 l 1
 381 335 l 1
 380 536 l 1
 528 536 l 1
EndSplineSet
Substitution2: "'locl' Localized Forms in Cyrillic lookup 5 subtable" uni0436.bgr
Substitution2: "'aalt' Access All Alternates lookup 0 subtable" uni0436.bgr
EndChar

StartChar: uni0436.bgr
Encoding: 150 -1 150
Width: 908
GlyphClass: 1
Flags: MW
HStem: 0 21G<4 181 4 4 380 528 380 380 727 904 727 727> 206 129<344 381 344 381 340 381 526 565>
VStem: 380 146
LayerCount: 2
Fore
SplineSet
528 730 m 1
 526 335 l 1
 565 335 l 1
 719 536 l 1
 895 536 l 1
 680 275 l 1
 904 0 l 1
 727 0 l 1
 566 206 l 1
 526 206 l 1
 528 0 l 1
 380 0 l 1
 381 206 l 1
 340 206 l 1
 181 0 l 1
 4 0 l 1
 228 267 l 1
 13 536 l 1
 191 536 l 1
 344 335 l 1
 381 335 l 1
 380 730 l 1
 528 730 l 1
EndSplineSet
EndChar

StartChar: uni0437
Encoding: 151 1079 151
Width: 562
GlyphClass: 1
Flags: MW
HStem: -12 122<248.5 310 248.5 356.5> 214 109<171 284 284 285 171 284> 424 122<244.5 275>
VStem: 360 147<373 374 374 389.5> 374 147<104 166 104 181.5>
LayerCount: 2
Fore
SplineSet
33 68 m 1xe8
 108 168 l 1
 163 129 219 110 278 110 c 0
 342 110 374 128 374 165 c 2
 374 166 l 2
 374 197 345 215 285 214 c 2xe8
 171 214 l 1
 171 323 l 1
 284 323 l 2
 337 323 360 340 360 373 c 2
 360 374 l 2
 360 405 330 425 275 424 c 0
 214 424 167 404 119 367 c 1
 39 460 l 1
 102 515 176 546 285 546 c 0
 418 546 507 484 507 393 c 2
 507 392 l 2xf0
 507 332 474 296 421 273 c 1
 481 254 521 217 521 149 c 2
 521 148 l 2
 521 60 434 -12 279 -12 c 0
 175 -12 104 15 33 68 c 1xe8
EndSplineSet
EndChar

StartChar: uni0438
Encoding: 152 1080 152
Width: 639
GlyphClass: 1
Flags: MW
HStem: 0 21G<68 68 68 203 420 420 420 571>
VStem: 68 151<241 536 241 536 241 536> 420 151<0 306 306 306>
LayerCount: 2
Fore
SplineSet
68 0 m 1
 68 536 l 1
 219 536 l 1
 219 241 l 1
 428 536 l 1
 571 536 l 1
 571 0 l 1
 420 0 l 1
 420 306 l 1
 203 0 l 1
 68 0 l 1
EndSplineSet
Substitution2: "'locl' Localized Forms in Cyrillic lookup 5 subtable" uni0438.bgr
Substitution2: "'aalt' Access All Alternates lookup 0 subtable" uni0438.bgr
EndChar

StartChar: uni0438.bgr
Encoding: 153 -1 153
Width: 623
GlyphClass: 1
Flags: MW
HStem: -10 138<278.5 284> 0 128<278.5 555 278.5 403>
VStem: 64 152<201 237 237 536> 403 152<0 76 76 76 237 536 0 536>
LayerCount: 2
Fore
SplineSet
246 -10 m 0xb0
 130 -10 64 65 64 189 c 2
 64 536 l 1
 216 536 l 1
 216 237 l 2
 216 165 249 128 308 128 c 0xb0
 367 128 403 165 403 237 c 2
 403 536 l 1
 555 536 l 1
 555 0 l 1
 403 0 l 1x70
 403 76 l 1
 368 31 322 -10 246 -10 c 0xb0
EndSplineSet
EndChar

StartChar: uni0439
Encoding: 154 1081 154
Width: 639
GlyphClass: 1
Flags: MW
HStem: 0 21G<68 68 68 203 420 420 420 571> 593 99<293.5 344.5 293.5 372.5>
VStem: 68 151<241 536 241 536 241 536> 420 151<0 306 306 306>
LayerCount: 2
Fore
SplineSet
68 0 m 1
 68 536 l 1
 219 536 l 1
 219 241 l 1
 428 536 l 1
 571 536 l 1
 571 0 l 1
 420 0 l 1
 420 306 l 1
 203 0 l 1
 68 0 l 1
319 593 m 0
 212 593 140 651 131 752 c 1
 233 752 l 1
 245 716 268 692 319 692 c 0
 370 692 393 716 405 752 c 1
 507 752 l 1
 498 651 426 593 319 593 c 0
EndSplineSet
Substitution2: "'locl' Localized Forms in Cyrillic lookup 5 subtable" uni0439.bgr
Substitution2: "'aalt' Access All Alternates lookup 0 subtable" uni0439.bgr
EndChar

StartChar: uni0439.bgr
Encoding: 155 -1 155
Width: 623
GlyphClass: 1
Flags: MW
HStem: -10 138<278.5 284> 0 128<278.5 555 278.5 403> 593 99<283.5 334.5 283.5 362.5>
VStem: 64 152<201 237 237 536> 403 152<0 76 76 76 237 536 0 536>
LayerCount: 2
Fore
SplineSet
246 -10 m 0xb8
 130 -10 64 65 64 189 c 2
 64 536 l 1
 216 536 l 1
 216 237 l 2
 216 165 249 128 308 128 c 0xb8
 367 128 403 165 403 237 c 2
 403 536 l 1
 555 536 l 1
 555 0 l 1
 403 0 l 1x78
 403 76 l 1
 368 31 322 -10 246 -10 c 0xb8
309 593 m 0
 202 593 130 651 121 752 c 1
 223 752 l 1
 235 716 258 692 309 692 c 0
 360 692 383 716 395 752 c 1
 497 752 l 1
 488 651 416 593 309 593 c 0
EndSplineSet
EndChar

StartChar: uni043A
Encoding: 156 1082 156
Width: 605
GlyphClass: 1
Flags: MW
HStem: 0 21G<68 220 68 68 420 601 420 420> 205 131<220 257 220 258 220 257>
VStem: 68 152<0 205 336 536>
LayerCount: 2
Fore
SplineSet
220 536 m 1
 220 336 l 1
 257 336 l 1
 408 536 l 1
 593 536 l 1
 374 274 l 1
 601 0 l 1
 420 0 l 1
 258 205 l 1
 220 205 l 1
 220 0 l 1
 68 0 l 1
 68 536 l 1
 220 536 l 1
EndSplineSet
Substitution2: "'locl' Localized Forms in Cyrillic lookup 5 subtable" uni043A.bgr
Substitution2: "'aalt' Access All Alternates lookup 0 subtable" uni043A.bgr
EndChar

StartChar: uni043A.bgr
Encoding: 157 -1 157
Width: 605
GlyphClass: 1
Flags: MW
HStem: 0 21G<68 220 68 68 420 601 420 420> 205 131<220 257 220 258 220 257>
VStem: 68 152<0 205 0 336 336 730>
LayerCount: 2
Fore
SplineSet
601 0 m 1
 420 0 l 1
 258 205 l 1
 220 205 l 1
 220 0 l 1
 68 0 l 1
 68 730 l 1
 220 730 l 1
 220 336 l 1
 257 336 l 1
 408 536 l 1
 593 536 l 1
 374 274 l 1
 601 0 l 1
EndSplineSet
EndChar

StartChar: uni043B
Encoding: 158 1083 158
Width: 630
GlyphClass: 1
Flags: MW
HStem: 0 21G<18 178 18 18 449 612 449 449> 520 20G<243 387 387 387>
VStem: 18 594<0 0>
LayerCount: 2
Fore
SplineSet
387 540 m 1
 612 0 l 1
 449 0 l 1
 314 354 l 1
 178 0 l 1
 18 0 l 1
 243 540 l 1
 387 540 l 1
EndSplineSet
EndChar

StartChar: uni043C
Encoding: 159 1084 159
Width: 729
GlyphClass: 1
Flags: MW
HStem: 0 21G<68 68 68 215 514 514 514 661>
VStem: 68 147<0 314 0 536> 514 147<0 317 317 317>
LayerCount: 2
Fore
SplineSet
68 0 m 1
 68 536 l 1
 226 536 l 1
 365 320 l 1
 504 536 l 1
 661 536 l 1
 661 0 l 1
 514 0 l 1
 514 317 l 1
 365 91 l 1
 362 91 l 1
 215 314 l 1
 215 0 l 1
 68 0 l 1
EndSplineSet
EndChar

StartChar: uni043D
Encoding: 160 1085 160
Width: 639
GlyphClass: 1
Flags: MW
HStem: 0 21G<68 68 68 220 419 419 419 571> 200 139<220 419 220 419>
VStem: 68 152<0 200 339 536> 419 152<0 200 200 200 339 536 0 536>
LayerCount: 2
Fore
SplineSet
68 0 m 1
 68 536 l 1
 220 536 l 1
 220 339 l 1
 419 339 l 1
 419 536 l 1
 571 536 l 1
 571 0 l 1
 419 0 l 1
 419 200 l 1
 220 200 l 1
 220 0 l 1
 68 0 l 1
EndSplineSet
EndChar

StartChar: uni043E
Encoding: 161 1086 161
Width: 664
GlyphClass: 1
Flags: MW
HStem: -12 131<291 376.5 291 414.5> 415 131<287.5 373>
VStem: 42 150<265 267 267 269 227.5 344> 472 150<265 267 267 269 190 306.5>
LayerCount: 2
Fore
SplineSet
331 -12 m 0
 166 -12 42 110 42 265 c 2
 42 267 l 2
 42 421 166 546 333 546 c 0
 498 546 622 424 622 269 c 2
 622 267 l 2
 622 113 498 -12 331 -12 c 0
333 119 m 0
 420 119 472 185 472 265 c 2
 472 267 l 2
 472 346 415 415 331 415 c 0
 244 415 192 349 192 269 c 2
 192 267 l 2
 192 188 249 119 333 119 c 0
EndSplineSet
EndChar

StartChar: uni043F
Encoding: 162 1087 162
Width: 639
GlyphClass: 1
Flags: MW
HStem: 0 21G<68 68 68 220 419 419 419 571> 399 137<220 419 220 220>
VStem: 68 152<0 399 0 536 0 536> 419 152<0 399 399 399>
LayerCount: 2
Fore
SplineSet
68 0 m 1
 68 536 l 1
 571 536 l 1
 571 0 l 1
 419 0 l 1
 419 399 l 1
 220 399 l 1
 220 0 l 1
 68 0 l 1
EndSplineSet
Substitution2: "'locl' Localized Forms in Cyrillic lookup 5 subtable" uni043F.bgr
Substitution2: "'aalt' Access All Alternates lookup 0 subtable" uni043F.bgr
EndChar

StartChar: uni043F.bgr
Encoding: 163 -1 163
Width: 623
GlyphClass: 1
Flags: MW
HStem: 0 21G<68 68 68 220 407 407 407 559> 408 128<68 344.5> 408 138<339 344.5>
VStem: 68 152<0 299 460 536> 407 152<0 299 299 335>
LayerCount: 2
Fore
SplineSet
68 0 m 1xb8
 68 536 l 1
 220 536 l 1xd8
 220 460 l 1
 255 505 301 546 377 546 c 0
 493 546 559 471 559 347 c 2
 559 0 l 1
 407 0 l 1
 407 299 l 2
 407 371 374 408 315 408 c 0
 256 408 220 371 220 299 c 2
 220 0 l 1
 68 0 l 1xb8
EndSplineSet
EndChar

StartChar: uni0440
Encoding: 164 1088 164
Width: 675
GlyphClass: 1
Flags: MW
HStem: -160 21G<68 68 68 220> -10 129<346.5 383.5 312.5 450.5> 417 119<68 383.5> 417 129<347 383.5>
VStem: 68 152<-160 70 459 536> 479 152<267 269 177.5 313.5>
LayerCount: 2
Fore
SplineSet
68 -160 m 1xdc
 68 536 l 1
 220 536 l 1xec
 220 459 l 1
 257 510 307 546 387 546 c 0
 512 546 631 448 631 269 c 2
 631 267 l 2
 631 88 514 -10 387 -10 c 0
 306 -10 256 27 220 70 c 1
 220 -160 l 1
 68 -160 l 1xdc
348 119 m 0
 419 119 479 177 479 267 c 2
 479 269 l 2
 479 358 419 417 348 417 c 0xdc
 277 417 218 358 218 269 c 2
 218 267 l 2
 218 178 277 119 348 119 c 0
EndSplineSet
EndChar

StartChar: uni0441
Encoding: 165 1089 165
Width: 571
GlyphClass: 1
Flags: MW
HStem: -12 131<286.5 353.5 286.5 374.5> 415 131<284 349.5>
VStem: 42 150<265 267 267 269 225.5 343.5>
LayerCount: 2
Fore
SplineSet
321 -12 m 0
 160 -12 42 113 42 265 c 2
 42 267 l 2
 42 420 159 546 323 546 c 0
 424 546 486 512 537 456 c 1
 444 356 l 1
 409 392 377 415 322 415 c 0
 246 415 192 349 192 269 c 2
 192 267 l 2
 192 184 245 119 328 119 c 0
 379 119 414 141 451 176 c 1
 540 86 l 1
 488 29 428 -12 321 -12 c 0
EndSplineSet
EndChar

StartChar: uni0442
Encoding: 166 1090 166
Width: 572
GlyphClass: 1
Flags: MW
HStem: 0 21G<210 210 210 362> 401 135<36 210 36 536 362 362 362 536>
VStem: 210 152<0 401 0 401>
LayerCount: 2
Fore
SplineSet
210 0 m 1
 210 401 l 1
 36 401 l 1
 36 536 l 1
 536 536 l 1
 536 401 l 1
 362 401 l 1
 362 0 l 1
 210 0 l 1
EndSplineSet
Substitution2: "'locl' Localized Forms in Cyrillic lookup 5 subtable" uni0442.bgr
Substitution2: "'aalt' Access All Alternates lookup 0 subtable" uni0442.bgr
EndChar

StartChar: uni0442.bgr
Encoding: 167 -1 167
Width: 950
GlyphClass: 1
Flags: MW
HStem: 0 21G<68 68 68 220 401 401 401 553 734 734 734 886> 408 128<68 340.5> 408 138<339.5 340.5 668.5 673.5>
VStem: 68 152<0 299 460 536> 401 152<0 299 0 335> 734 152<0 299 299 335>
CounterMasks: 1 1c
LayerCount: 2
Fore
SplineSet
68 0 m 1xbc
 68 536 l 1
 220 536 l 1xdc
 220 460 l 1
 255 505 301 546 378 546 c 0
 449 546 501 516 529 461 c 1
 576 517 632 546 705 546 c 0
 818 546 886 478 886 349 c 2
 886 0 l 1
 734 0 l 1
 734 299 l 2
 734 371 702 408 645 408 c 0
 588 408 553 371 553 299 c 2
 553 0 l 1
 401 0 l 1
 401 299 l 2
 401 371 369 408 312 408 c 0
 255 408 220 371 220 299 c 2
 220 0 l 1
 68 0 l 1xbc
EndSplineSet
EndChar

StartChar: uni0443
Encoding: 168 1091 168
Width: 600
GlyphClass: 1
Flags: MW
HStem: -163 126<168 190.5 167 241>
VStem: 20 558<536 536>
LayerCount: 2
Fore
SplineSet
303 171 m 1
 420 536 l 1
 578 536 l 1
 372 -13 l 2
 332 -122 286 -163 196 -163 c 0
 140 -163 100 -149 61 -126 c 1
 112 -16 l 1
 132 -28 157 -37 177 -37 c 0
 204 -37 217 -29 230 -2 c 1
 20 536 l 1
 181 536 l 1
 303 171 l 1
EndSplineSet
EndChar

StartChar: uni0444
Encoding: 169 1092 169
Width: 852
GlyphClass: 1
Flags: MW
HStem: -160 21G<351 501 351 351> -1 127<351 354> 410 127<351 354>
VStem: 42 148<267 268 268 269 226.5 341> 351 150<-160 -1 537 730> 354 144<126 410 126 410> 663 147<267 268 268 269 194 309.5>
LayerCount: 2
Fore
SplineSet
501 -160 m 1xfa
 351 -160 l 1
 351 -1 l 1
 154 7 42 117 42 267 c 2
 42 268 l 2
 42 414 154 529 351 537 c 1
 351 730 l 1
 501 730 l 1
 501 537 l 1
 697 529 810 417 810 269 c 2
 810 268 l 2
 810 120 696 7 501 -1 c 1
 501 -160 l 1xfa
663 267 m 2
 663 268 l 2xfa
 663 351 602 407 498 410 c 1
 498 126 l 1xf6
 607 129 663 186 663 267 c 2
190 269 m 2
 190 268 l 2xfa
 190 185 250 130 354 126 c 1
 354 410 l 1xf6
 245 406 190 349 190 269 c 2
EndSplineSet
EndChar

StartChar: uni0445
Encoding: 170 1093 170
Width: 584
GlyphClass: 1
Flags: MW
HStem: 0 21G<23 182 23 23 398 561 398 398>
VStem: 23 538<0 0>
LayerCount: 2
Fore
SplineSet
193 536 m 1
 293 379 l 1
 394 536 l 1
 553 536 l 1
 372 274 l 1
 561 0 l 1
 398 0 l 1
 290 167 l 1
 182 0 l 1
 23 0 l 1
 211 272 l 1
 30 536 l 1
 193 536 l 1
EndSplineSet
EndChar

StartChar: uni0446
Encoding: 171 1094 171
Width: 665
GlyphClass: 1
Flags: MW
HStem: 0 137<220 419 220 504>
VStem: 68 152<137 536 137 536 137 536> 419 152<137 536 137 536> 504 137<-128 0 0 0>
LayerCount: 2
Fore
SplineSet
504 -128 m 1xd0
 504 0 l 1xd0
 68 0 l 1
 68 536 l 1
 220 536 l 1
 220 137 l 1
 419 137 l 1
 419 536 l 1
 571 536 l 1
 571 137 l 1xe0
 641 137 l 1
 641 -128 l 1
 504 -128 l 1xd0
EndSplineSet
Substitution2: "'locl' Localized Forms in Cyrillic lookup 5 subtable" uni0446.bgr
Substitution2: "'aalt' Access All Alternates lookup 0 subtable" uni0446.bgr
EndChar

StartChar: uni0446.bgr
Encoding: 172 -1 172
Width: 649
GlyphClass: 1
Flags: MW
HStem: -10 138<278.5 284> 0 137<403 625>
VStem: 64 152<201 237 237 536> 403 152<0 536 76 536 237 536 137 536> 488 137<-128 0 0 0>
LayerCount: 2
Fore
SplineSet
488 -128 m 1x68
 488 0 l 1x68
 403 0 l 1x70
 403 76 l 1
 368 31 322 -10 246 -10 c 0
 130 -10 64 65 64 189 c 2
 64 536 l 1
 216 536 l 1
 216 237 l 2
 216 165 249 128 308 128 c 0xb0
 367 128 403 165 403 237 c 2
 403 536 l 1
 555 536 l 1
 555 137 l 1x70
 625 137 l 1
 625 -128 l 1
 488 -128 l 1x68
EndSplineSet
EndChar

StartChar: uni0447
Encoding: 173 1095 173
Width: 597
GlyphClass: 1
Flags: MW
HStem: 0 21G<377 377 377 529> 147 136<263 289.5>
VStem: 52 151<347 361 361 536> 377 152<0 162 162 162 297 536 0 536>
LayerCount: 2
Fore
SplineSet
377 0 m 1
 377 162 l 1
 349 154 309 147 270 147 c 0
 133 147 52 210 52 347 c 2
 52 536 l 1
 203 536 l 1
 203 361 l 2
 203 304 233 283 293 283 c 0
 328 283 350 289 377 297 c 1
 377 536 l 1
 529 536 l 1
 529 0 l 1
 377 0 l 1
EndSplineSet
EndChar

StartChar: uni0448
Encoding: 174 1096 174
Width: 948
GlyphClass: 1
Flags: MW
HStem: 0 137<220 398 550 728>
VStem: 68 152<137 536 137 536 137 536> 398 152<137 536 137 536> 728 152<137 536 0 536>
CounterMasks: 1 70
LayerCount: 2
Fore
SplineSet
68 0 m 1
 68 536 l 1
 220 536 l 1
 220 137 l 1
 398 137 l 1
 398 536 l 1
 550 536 l 1
 550 137 l 1
 728 137 l 1
 728 536 l 1
 880 536 l 1
 880 0 l 1
 68 0 l 1
EndSplineSet
Substitution2: "'locl' Localized Forms in Cyrillic lookup 5 subtable" uni0448.bgr
Substitution2: "'aalt' Access All Alternates lookup 0 subtable" uni0448.bgr
EndChar

StartChar: uni0448.bgr
Encoding: 175 -1 175
Width: 950
GlyphClass: 1
Flags: MW
HStem: -10 138<276.5 281.5 609.5 610.5> 0 128
VStem: 64 152<201 237 237 536> 397 152<237 536> 730 152<0 76 76 76 237 536 0 536>
CounterMasks: 1 38
LayerCount: 2
Fore
SplineSet
882 536 m 1xb8
 882 0 l 1
 730 0 l 1x78
 730 76 l 1
 695 31 649 -10 572 -10 c 0
 501 -10 449 20 421 75 c 1
 374 19 318 -10 245 -10 c 0
 132 -10 64 58 64 187 c 2
 64 536 l 1
 216 536 l 1
 216 237 l 2
 216 165 248 128 305 128 c 0
 362 128 397 165 397 237 c 2
 397 536 l 1
 549 536 l 1
 549 237 l 2
 549 165 581 128 638 128 c 0
 695 128 730 165 730 237 c 2
 730 536 l 1
 882 536 l 1xb8
EndSplineSet
EndChar

StartChar: uni0449
Encoding: 176 1097 176
Width: 974
GlyphClass: 1
Flags: MW
HStem: 0 137<220 398 550 728>
VStem: 68 152<137 536 137 536 137 536> 398 152<137 536 137 536> 728 152<137 536 137 536> 813 137<-128 0 0 0>
LayerCount: 2
Fore
SplineSet
68 0 m 1xf0
 68 536 l 1
 220 536 l 1
 220 137 l 1
 398 137 l 1
 398 536 l 1
 550 536 l 1
 550 137 l 1
 728 137 l 1
 728 536 l 1
 880 536 l 1
 880 137 l 1xf0
 950 137 l 1
 950 -128 l 1
 813 -128 l 1
 813 0 l 1xe8
 68 0 l 1xf0
EndSplineSet
Substitution2: "'locl' Localized Forms in Cyrillic lookup 5 subtable" uni0449.bgr
Substitution2: "'aalt' Access All Alternates lookup 0 subtable" uni0449.bgr
EndChar

StartChar: uni0449.bgr
Encoding: 177 -1 177
Width: 976
GlyphClass: 1
Flags: MW
HStem: -10 138<276.5 281.5 609.5 610.5> 0 137<730 952>
VStem: 64 152<201 237 237 536> 397 152<237 536> 730 152<0 536 76 536 237 536 137 536> 815 137<-128 0 0 0>
LayerCount: 2
Fore
SplineSet
882 536 m 1xb8
 882 137 l 1x78
 952 137 l 1
 952 -128 l 1
 815 -128 l 1
 815 0 l 1x74
 730 0 l 1x78
 730 76 l 1
 695 31 649 -10 572 -10 c 0
 501 -10 449 20 421 75 c 1
 374 19 318 -10 245 -10 c 0
 132 -10 64 58 64 187 c 2
 64 536 l 1
 216 536 l 1
 216 237 l 2
 216 165 248 128 305 128 c 0
 362 128 397 165 397 237 c 2
 397 536 l 1
 549 536 l 1
 549 237 l 2
 549 165 581 128 638 128 c 0
 695 128 730 165 730 237 c 2
 730 536 l 1
 882 536 l 1xb8
EndSplineSet
EndChar

StartChar: uni044A
Encoding: 178 1098 178
Width: 675
GlyphClass: 1
Flags: MW
HStem: 0 123<330 413 413 417> 262 121<330 429 331 415> 404 132<30 180 30 331>
VStem: 180 150<123 262 123 404 123 404> 496 149<193 194 134.5 213.5>
LayerCount: 2
Fore
SplineSet
180 0 m 1
 180 404 l 1
 30 404 l 1
 30 536 l 1
 331 536 l 1xb8
 331 383 l 1
 429 383 l 2xf8
 558 383 645 318 645 194 c 2
 645 193 l 2
 645 76 564 0 417 0 c 2
 180 0 l 1
330 262 m 1xf8
 330 123 l 1
 413 123 l 2
 465 123 496 146 496 193 c 2
 496 194 l 2
 496 233 467 263 415 262 c 2
 330 262 l 1xf8
EndSplineSet
EndChar

StartChar: uni044B
Encoding: 179 1099 179
Width: 829
GlyphClass: 1
Flags: MW
HStem: 0 123<218 301 301 305> 262 121<218 317 219 303>
VStem: 68 151<383 536 383 536 383 536> 384 149<193 194 134.5 213.5> 609 152<0 536 0 536>
LayerCount: 2
Fore
SplineSet
219 536 m 1
 219 383 l 1
 317 383 l 2
 446 383 533 318 533 194 c 2
 533 193 l 2
 533 76 452 0 305 0 c 2
 68 0 l 1
 68 536 l 1
 219 536 l 1
218 262 m 1
 218 123 l 1
 301 123 l 2
 353 123 384 146 384 193 c 2
 384 194 l 2
 384 233 355 263 303 262 c 2
 218 262 l 1
609 0 m 1
 609 536 l 1
 761 536 l 1
 761 0 l 1
 609 0 l 1
EndSplineSet
EndChar

StartChar: uni044C
Encoding: 180 1100 180
Width: 563
GlyphClass: 1
Flags: MW
HStem: 0 123<218 301 301 305> 262 121<219 303 218 317>
VStem: 68 151<383 536 383 536 383 536> 384 149<193 194 134.5 213.5>
LayerCount: 2
Fore
SplineSet
68 0 m 1
 68 536 l 1
 219 536 l 1
 219 383 l 1
 317 383 l 2
 446 383 533 318 533 194 c 2
 533 193 l 2
 533 76 452 0 305 0 c 2
 68 0 l 1
218 123 m 1
 301 123 l 2
 353 123 384 146 384 193 c 2
 384 194 l 2
 384 233 355 263 303 262 c 2
 218 262 l 1
 218 123 l 1
EndSplineSet
EndChar

StartChar: uni044D
Encoding: 181 1101 181
Width: 574
GlyphClass: 1
Flags: MW
HStem: -12 125<225 287.5 225 339> 207 119 421 125<222 286.5>
VStem: 32 500<68 267>
LayerCount: 2
Fore
SplineSet
165 328 m 1
 380 326 l 1
 365 385 320 421 253 421 c 0
 191 421 155 399 112 367 c 1
 37 464 l 1
 96 513 161 546 261 546 c 0
 422 546 532 428 532 268 c 2
 532 267 l 2
 532 108 421 -12 257 -12 c 0
 160 -12 92 19 32 68 c 1
 109 169 l 1
 156 130 195 113 255 113 c 0
 320 113 366 151 381 208 c 1
 165 207 l 1
 165 328 l 1
EndSplineSet
EndChar

StartChar: uni044E
Encoding: 182 1102 182
Width: 904
GlyphClass: 1
Flags: MW
HStem: -12 131<541.5 620.5 541.5 658.5> 0 21G<68 220 68 68> 200 140<220 305 220 303> 415 131<537.5 616.5>
VStem: 68 152<0 200 0 340 340 536> 712 150<265 267 267 269 190 306.5>
LayerCount: 2
Fore
SplineSet
220 200 m 1xbc
 220 0 l 1
 68 0 l 1x7c
 68 536 l 1
 220 536 l 1
 220 340 l 1
 305 340 l 1
 337 458 445 546 580 546 c 0
 740 546 862 424 862 269 c 2
 862 267 l 2
 862 113 739 -12 578 -12 c 0
 441 -12 332 78 303 200 c 1
 220 200 l 1xbc
580 119 m 0xbc
 661 119 712 185 712 265 c 2
 712 267 l 2
 712 346 655 415 578 415 c 0
 497 415 446 349 446 269 c 2
 446 267 l 2
 446 188 503 119 580 119 c 0xbc
EndSplineSet
Substitution2: "'locl' Localized Forms in Cyrillic lookup 5 subtable" uni044E.bgr
Substitution2: "'aalt' Access All Alternates lookup 0 subtable" uni044E.bgr
EndChar

StartChar: uni044E.bgr
Encoding: 183 -1 183
Width: 904
GlyphClass: 1
Flags: MW
HStem: -12 131<541.5 620.5 541.5 658.5> 0 21G<68 220 68 68> 200 140<220 305 220 303> 415 131<537.5 616.5>
VStem: 68 152<0 200 0 340 340 730> 712 150<265 267 267 269 190 306.5>
LayerCount: 2
Fore
SplineSet
220 200 m 1xbc
 220 0 l 1
 68 0 l 1x7c
 68 730 l 1
 220 730 l 1
 220 340 l 1
 305 340 l 1
 337 458 445 546 580 546 c 0
 740 546 862 424 862 269 c 2
 862 267 l 2
 862 113 739 -12 578 -12 c 0
 441 -12 332 78 303 200 c 1
 220 200 l 1xbc
580 119 m 0xbc
 661 119 712 185 712 265 c 2
 712 267 l 2
 712 346 655 415 578 415 c 0
 497 415 446 349 446 269 c 2
 446 267 l 2
 446 188 503 119 580 119 c 0xbc
EndSplineSet
EndChar

StartChar: uni044F
Encoding: 184 1103 184
Width: 601
GlyphClass: 1
Flags: MW
HStem: 0 21G<35 206 35 35 383 383 383 533> 172 110<326 383 326 326> 420 116<278 285 285 383>
VStem: 54 148<329.5 352 329.5 414.5> 383 150<0 172 172 172 282 420 420 420>
LayerCount: 2
Fore
SplineSet
206 0 m 1
 35 0 l 1
 171 190 l 1
 103 215 54 267 54 351 c 2
 54 352 l 2
 54 477 142 537 278 536 c 2
 533 536 l 1
 533 0 l 1
 383 0 l 1
 383 172 l 1
 326 172 l 1
 206 0 l 1
383 420 m 1
 285 420 l 2
 234 420 202 397 202 350 c 2
 202 349 l 2
 202 310 231 281 284 282 c 2
 383 282 l 1
 383 420 l 1
EndSplineSet
EndChar

StartChar: Aacute
Encoding: 185 193 185
Width: 790
GlyphClass: 1
Flags: MW
HStem: 0 21G<24 24 24 181 605 605 605 766> 157 136<300 486 300 541 245 486> 685 20G<324 466 466 466>
VStem: 24 742<0 0>
LayerCount: 2
Fore
SplineSet
24 0 m 1
 324 705 l 1
 466 705 l 1
 766 0 l 1
 605 0 l 1
 541 157 l 1
 245 157 l 1
 181 0 l 1
 24 0 l 1
300 293 m 1
 486 293 l 1
 393 520 l 1
 300 293 l 1
333 765 m 1
 454 922 l 1
 585 865 l 1
 449 765 l 1
 333 765 l 1
EndSplineSet
EndChar

StartChar: aacute
Encoding: 186 225 186
Width: 592
GlyphClass: 1
Flags: MW
HStem: -10 105<241.5 257.5> 0 95<241.5 529 241.5 382> 236 91<255.5 279.5 188.5 306.5> 412 130<244.5 306>
VStem: 36 147<154 156 156 160 160 162 139.5 214> 382 147<0 58 58 58>
LayerCount: 2
Fore
SplineSet
220 -10 m 0xbc
 119 -10 36 47 36 154 c 2
 36 156 l 2
 36 272 125 327 252 327 c 0
 307 327 344 318 383 305 c 1
 383 314 l 2
 383 378 344 412 268 412 c 0
 209 412 169 402 120 383 c 1
 82 499 l 1
 141 524 199 542 290 542 c 0
 374 542 432 521 471 482 c 0
 511 442 529 383 529 311 c 2
 529 0 l 1
 382 0 l 1x7c
 382 58 l 1
 345 17 295 -10 220 -10 c 0xbc
266 95 m 0
 338 95 385 133 385 189 c 2
 385 216 l 1
 358 228 325 236 288 236 c 0
 223 236 183 210 183 162 c 2
 183 160 l 2
 183 119 217 95 266 95 c 0
238 595 m 1
 349 772 l 1
 480 715 l 1
 350 595 l 1
 238 595 l 1
EndSplineSet
Substitution2: "'ss03' Style Set 3 lookup 19 subtable" aacute.alt
Substitution2: "'aalt' Access All Alternates lookup 0 subtable" aacute.alt
EndChar

StartChar: aacute.alt
Encoding: 187 -1 187
Width: 675
GlyphClass: 1
Flags: MW
HStem: -10 129<291.5 328> 0 119<291.5 607 291.5 455> 417 119<291.5 607> 417 129<291.5 328.5 224.5 362.5>
VStem: 44 152<267 269 222.5 358.5> 455 152<0 77 77 77 466 536 0 536>
LayerCount: 2
Fore
SplineSet
288 -10 m 0x9c
 163 -10 44 88 44 267 c 2
 44 269 l 2
 44 448 161 546 288 546 c 0
 369 546 419 509 455 466 c 1x9c
 455 536 l 1
 607 536 l 1
 607 0 l 1
 455 0 l 1x6c
 455 77 l 1
 418 26 368 -10 288 -10 c 0x9c
327 119 m 0
 398 119 457 178 457 267 c 2
 457 269 l 2
 457 358 398 417 327 417 c 0
 256 417 196 359 196 269 c 2
 196 267 l 2
 196 178 256 119 327 119 c 0
285 595 m 1
 396 772 l 1
 527 715 l 1
 397 595 l 1
 285 595 l 1
EndSplineSet
EndChar

StartChar: Abreve
Encoding: 188 258 188
Width: 790
GlyphClass: 1
Flags: MW
HStem: 0 21G<24 24 24 181 605 605 605 766> 157 136<300 486 300 541 245 486> 685 20G<324 466 466 466> 763 100<369.5 420.5 369.5 448.5>
VStem: 24 742<0 0>
LayerCount: 2
Fore
SplineSet
24 0 m 1
 324 705 l 1
 466 705 l 1
 766 0 l 1
 605 0 l 1
 541 157 l 1
 245 157 l 1
 181 0 l 1
 24 0 l 1
300 293 m 1
 486 293 l 1
 393 520 l 1
 300 293 l 1
395 763 m 0
 288 763 214 816 205 912 c 1
 309 912 l 1
 321 881 344 863 395 863 c 0
 446 863 469 881 481 912 c 1
 585 912 l 1
 576 816 502 763 395 763 c 0
EndSplineSet
EndChar

StartChar: abreve
Encoding: 189 259 189
Width: 592
GlyphClass: 1
Flags: MW
HStem: -10 105<241.5 257.5> 0 95<241.5 529 241.5 382> 236 91<255.5 279.5 188.5 306.5> 412 130<244.5 306> 593 99<272.5 323.5 272.5 351.5>
VStem: 36 147<154 156 156 160 160 162 139.5 214> 382 147<0 58 58 58>
LayerCount: 2
Fore
SplineSet
220 -10 m 0xbe
 119 -10 36 47 36 154 c 2
 36 156 l 2
 36 272 125 327 252 327 c 0
 307 327 344 318 383 305 c 1
 383 314 l 2
 383 378 344 412 268 412 c 0
 209 412 169 402 120 383 c 1
 82 499 l 1
 141 524 199 542 290 542 c 0
 374 542 432 521 471 482 c 0
 511 442 529 383 529 311 c 2
 529 0 l 1
 382 0 l 1x7e
 382 58 l 1
 345 17 295 -10 220 -10 c 0xbe
266 95 m 0
 338 95 385 133 385 189 c 2
 385 216 l 1
 358 228 325 236 288 236 c 0
 223 236 183 210 183 162 c 2
 183 160 l 2
 183 119 217 95 266 95 c 0
298 593 m 0
 191 593 119 651 110 752 c 1
 212 752 l 1
 224 716 247 692 298 692 c 0
 349 692 372 716 384 752 c 1
 486 752 l 1
 477 651 405 593 298 593 c 0
EndSplineSet
Substitution2: "'ss03' Style Set 3 lookup 19 subtable" abreve.alt
Substitution2: "'aalt' Access All Alternates lookup 0 subtable" abreve.alt
EndChar

StartChar: abreve.alt
Encoding: 190 -1 190
Width: 675
GlyphClass: 1
Flags: MW
HStem: -10 129<291.5 328> 0 119<291.5 607 291.5 455> 417 119<291.5 607> 417 129<291.5 328.5 224.5 362.5> 593 99<319.5 370.5 319.5 398.5>
VStem: 44 152<267 269 222.5 358.5> 455 152<0 77 77 77 466 536 0 536>
LayerCount: 2
Fore
SplineSet
288 -10 m 0x9e
 163 -10 44 88 44 267 c 2
 44 269 l 2
 44 448 161 546 288 546 c 0
 369 546 419 509 455 466 c 1x9e
 455 536 l 1
 607 536 l 1
 607 0 l 1
 455 0 l 1x6e
 455 77 l 1
 418 26 368 -10 288 -10 c 0x9e
327 119 m 0
 398 119 457 178 457 267 c 2
 457 269 l 2
 457 358 398 417 327 417 c 0
 256 417 196 359 196 269 c 2
 196 267 l 2
 196 178 256 119 327 119 c 0
345 593 m 0
 238 593 166 651 157 752 c 1
 259 752 l 1
 271 716 294 692 345 692 c 0
 396 692 419 716 431 752 c 1
 533 752 l 1
 524 651 452 593 345 593 c 0
EndSplineSet
EndChar

StartChar: Acircumflex
Encoding: 191 194 191
Width: 790
GlyphClass: 1
Flags: MW
HStem: 0 21G<24 24 24 181 605 605 605 766> 157 136<300 486 300 541 245 486> 685 20G<324 466 466 466> 760 147<195 467 195 467 323 473 323 595>
VStem: 24 742<0 0>
LayerCount: 2
Fore
SplineSet
24 0 m 1
 324 705 l 1
 466 705 l 1
 766 0 l 1
 605 0 l 1
 541 157 l 1
 245 157 l 1
 181 0 l 1
 24 0 l 1
300 293 m 1
 486 293 l 1
 393 520 l 1
 300 293 l 1
195 760 m 1
 323 907 l 1
 467 907 l 1
 595 760 l 1
 473 760 l 1
 394 816 l 1
 315 760 l 1
 195 760 l 1
EndSplineSet
EndChar

StartChar: acircumflex
Encoding: 192 226 192
Width: 592
GlyphClass: 1
Flags: MW
HStem: -10 105<241.5 257.5> 0 95<241.5 529 241.5 382> 236 91<255.5 279.5 188.5 306.5> 412 130<244.5 306> 595 157<103 370 103 370 226 376 226 493>
VStem: 36 147<154 156 156 160 160 162 139.5 214> 382 147<0 58 58 58>
LayerCount: 2
Fore
SplineSet
220 -10 m 0xbe
 119 -10 36 47 36 154 c 2
 36 156 l 2
 36 272 125 327 252 327 c 0
 307 327 344 318 383 305 c 1
 383 314 l 2
 383 378 344 412 268 412 c 0
 209 412 169 402 120 383 c 1
 82 499 l 1
 141 524 199 542 290 542 c 0
 374 542 432 521 471 482 c 0
 511 442 529 383 529 311 c 2
 529 0 l 1
 382 0 l 1x7e
 382 58 l 1
 345 17 295 -10 220 -10 c 0xbe
266 95 m 0
 338 95 385 133 385 189 c 2
 385 216 l 1
 358 228 325 236 288 236 c 0
 223 236 183 210 183 162 c 2
 183 160 l 2
 183 119 217 95 266 95 c 0
103 595 m 1
 226 752 l 1
 370 752 l 1
 493 595 l 1
 376 595 l 1
 297 661 l 1
 218 595 l 1
 103 595 l 1
EndSplineSet
Substitution2: "'ss03' Style Set 3 lookup 19 subtable" acircumflex.alt
Substitution2: "'aalt' Access All Alternates lookup 0 subtable" acircumflex.alt
EndChar

StartChar: acircumflex.alt
Encoding: 193 -1 193
Width: 675
GlyphClass: 1
Flags: MW
HStem: -10 129<291.5 328> 0 119<291.5 607 291.5 455> 417 119<291.5 607> 417 129<291.5 328.5 224.5 362.5> 595 157<150 417 150 417 273 423 273 540>
VStem: 44 152<267 269 222.5 358.5> 455 152<0 77 77 77 466 536 0 536>
LayerCount: 2
Fore
SplineSet
288 -10 m 0x9e
 163 -10 44 88 44 267 c 2
 44 269 l 2
 44 448 161 546 288 546 c 0
 369 546 419 509 455 466 c 1x9e
 455 536 l 1
 607 536 l 1
 607 0 l 1
 455 0 l 1x6e
 455 77 l 1
 418 26 368 -10 288 -10 c 0x9e
327 119 m 0
 398 119 457 178 457 267 c 2
 457 269 l 2
 457 358 398 417 327 417 c 0
 256 417 196 359 196 269 c 2
 196 267 l 2
 196 178 256 119 327 119 c 0
150 595 m 1
 273 752 l 1
 417 752 l 1
 540 595 l 1
 423 595 l 1
 344 661 l 1
 265 595 l 1
 150 595 l 1
EndSplineSet
EndChar

StartChar: Adieresis
Encoding: 194 196 194
Width: 790
GlyphClass: 1
Flags: MW
HStem: 0 21G<24 24 24 181 605 605 605 766> 157 136<300 486 300 541 245 486> 685 20G<324 466 466 466> 765 127<213 359 213 359 213 431 431 577>
VStem: 213 146<765 892 765 892> 431 146<765 892 765 892>
LayerCount: 2
Fore
SplineSet
24 0 m 1
 324 705 l 1
 466 705 l 1
 766 0 l 1
 605 0 l 1
 541 157 l 1
 245 157 l 1
 181 0 l 1
 24 0 l 1
300 293 m 1
 486 293 l 1
 393 520 l 1
 300 293 l 1
431 765 m 1
 431 892 l 1
 577 892 l 1
 577 765 l 1
 431 765 l 1
213 765 m 1
 213 892 l 1
 359 892 l 1
 359 765 l 1
 213 765 l 1
EndSplineSet
EndChar

StartChar: adieresis
Encoding: 195 228 195
Width: 592
GlyphClass: 1
Flags: MW
HStem: -10 105<241.5 257.5> 0 95<241.5 529 241.5 382> 236 91<255.5 279.5 188.5 306.5> 412 130<244.5 306> 595 135<121 267 121 267 121 329 329 475>
VStem: 36 147<154 156 156 160 160 162 139.5 214> 121 146<595 730 595 730> 329 146<595 730 595 730> 382 147<0 58 58 58>
LayerCount: 2
Fore
SplineSet
220 -10 m 0x9c80
 119 -10 36 47 36 154 c 2
 36 156 l 2
 36 272 125 327 252 327 c 0
 307 327 344 318 383 305 c 1
 383 314 l 2
 383 378 344 412 268 412 c 0
 209 412 169 402 120 383 c 1
 82 499 l 1
 141 524 199 542 290 542 c 0
 374 542 432 521 471 482 c 0
 511 442 529 383 529 311 c 2
 529 0 l 1
 382 0 l 1x7c80
 382 58 l 1
 345 17 295 -10 220 -10 c 0x9c80
266 95 m 0
 338 95 385 133 385 189 c 2
 385 216 l 1
 358 228 325 236 288 236 c 0xbc80
 223 236 183 210 183 162 c 2
 183 160 l 2
 183 119 217 95 266 95 c 0
329 595 m 1x9b
 329 730 l 1
 475 730 l 1
 475 595 l 1
 329 595 l 1x9b
121 595 m 1
 121 730 l 1
 267 730 l 1
 267 595 l 1
 121 595 l 1
EndSplineSet
Substitution2: "'ss03' Style Set 3 lookup 19 subtable" adieresis.alt
Substitution2: "'aalt' Access All Alternates lookup 0 subtable" adieresis.alt
EndChar

StartChar: adieresis.alt
Encoding: 196 -1 196
Width: 675
GlyphClass: 1
Flags: MW
HStem: -10 129<291.5 328> 0 119<291.5 607 291.5 455> 417 119<291.5 607> 417 129<291.5 328.5 224.5 362.5> 595 135<168 314 168 314 168 376 376 522>
VStem: 44 152<267 269 222.5 358.5> 168 146<595 730 595 730> 376 146<595 730 595 730> 455 152<0 77 77 77 466 536 0 536>
LayerCount: 2
Fore
SplineSet
288 -10 m 0x9c80
 163 -10 44 88 44 267 c 2
 44 269 l 2
 44 448 161 546 288 546 c 0
 369 546 419 509 455 466 c 1x9c80
 455 536 l 1
 607 536 l 1
 607 0 l 1
 455 0 l 1x6a80
 455 77 l 1
 418 26 368 -10 288 -10 c 0x9c80
327 119 m 0
 398 119 457 178 457 267 c 2
 457 269 l 2
 457 358 398 417 327 417 c 0
 256 417 196 359 196 269 c 2
 196 267 l 2
 196 178 256 119 327 119 c 0
376 595 m 1x9b
 376 730 l 1
 522 730 l 1
 522 595 l 1
 376 595 l 1x9b
168 595 m 1
 168 730 l 1
 314 730 l 1
 314 595 l 1
 168 595 l 1
EndSplineSet
EndChar

StartChar: Agrave
Encoding: 197 192 197
Width: 790
GlyphClass: 1
Flags: MW
HStem: 0 21G<24 24 24 181 605 605 605 766> 157 136<300 486 300 541 245 486> 685 20G<324 466 466 466>
VStem: 24 742<0 0>
LayerCount: 2
Fore
SplineSet
24 0 m 1
 324 705 l 1
 466 705 l 1
 766 0 l 1
 605 0 l 1
 541 157 l 1
 245 157 l 1
 181 0 l 1
 24 0 l 1
300 293 m 1
 486 293 l 1
 393 520 l 1
 300 293 l 1
457 765 m 1
 341 765 l 1
 205 865 l 1
 336 922 l 1
 457 765 l 1
EndSplineSet
EndChar

StartChar: agrave
Encoding: 198 224 198
Width: 592
GlyphClass: 1
Flags: MW
HStem: -10 105<241.5 257.5> 0 95<241.5 529 241.5 382> 236 91<255.5 279.5 188.5 306.5> 412 130<244.5 306>
VStem: 36 147<154 156 156 160 160 162 139.5 214> 382 147<0 58 58 58>
LayerCount: 2
Fore
SplineSet
220 -10 m 0xbc
 119 -10 36 47 36 154 c 2
 36 156 l 2
 36 272 125 327 252 327 c 0
 307 327 344 318 383 305 c 1
 383 314 l 2
 383 378 344 412 268 412 c 0
 209 412 169 402 120 383 c 1
 82 499 l 1
 141 524 199 542 290 542 c 0
 374 542 432 521 471 482 c 0
 511 442 529 383 529 311 c 2
 529 0 l 1
 382 0 l 1x7c
 382 58 l 1
 345 17 295 -10 220 -10 c 0xbc
266 95 m 0
 338 95 385 133 385 189 c 2
 385 216 l 1
 358 228 325 236 288 236 c 0
 223 236 183 210 183 162 c 2
 183 160 l 2
 183 119 217 95 266 95 c 0
246 595 m 1
 116 715 l 1
 247 772 l 1
 358 595 l 1
 246 595 l 1
EndSplineSet
Substitution2: "'ss03' Style Set 3 lookup 19 subtable" agrave.alt
Substitution2: "'aalt' Access All Alternates lookup 0 subtable" agrave.alt
EndChar

StartChar: agrave.alt
Encoding: 199 -1 199
Width: 675
GlyphClass: 1
Flags: MW
HStem: -10 129<291.5 328> 0 119<291.5 607 291.5 455> 417 119<291.5 607> 417 129<291.5 328.5 224.5 362.5>
VStem: 44 152<267 269 222.5 358.5> 455 152<0 77 77 77 466 536 0 536>
LayerCount: 2
Fore
SplineSet
288 -10 m 0x9c
 163 -10 44 88 44 267 c 2
 44 269 l 2
 44 448 161 546 288 546 c 0
 369 546 419 509 455 466 c 1x9c
 455 536 l 1
 607 536 l 1
 607 0 l 1
 455 0 l 1x6c
 455 77 l 1
 418 26 368 -10 288 -10 c 0x9c
327 119 m 0
 398 119 457 178 457 267 c 2
 457 269 l 2
 457 358 398 417 327 417 c 0
 256 417 196 359 196 269 c 2
 196 267 l 2
 196 178 256 119 327 119 c 0
293 595 m 1
 163 715 l 1
 294 772 l 1
 405 595 l 1
 293 595 l 1
EndSplineSet
EndChar

StartChar: Amacron
Encoding: 200 256 200
Width: 790
GlyphClass: 1
Flags: MW
HStem: 0 21G<24 24 24 181 605 605 605 766> 157 136<300 486 300 541 245 486> 685 20G<324 466 466 466> 770 107<205 585 205 585>
VStem: 24 742<0 0>
LayerCount: 2
Fore
SplineSet
24 0 m 1
 324 705 l 1
 466 705 l 1
 766 0 l 1
 605 0 l 1
 541 157 l 1
 245 157 l 1
 181 0 l 1
 24 0 l 1
300 293 m 1
 486 293 l 1
 393 520 l 1
 300 293 l 1
205 770 m 1
 205 877 l 1
 585 877 l 1
 585 770 l 1
 205 770 l 1
EndSplineSet
EndChar

StartChar: amacron
Encoding: 201 257 201
Width: 592
GlyphClass: 1
Flags: MW
HStem: -10 105<241.5 257.5> 0 95<241.5 529 241.5 382> 236 91<255.5 279.5 188.5 306.5> 412 130<244.5 306> 600 105<118 478 118 478>
VStem: 36 147<154 156 156 160 160 162 139.5 214> 382 147<0 58 58 58>
LayerCount: 2
Fore
SplineSet
220 -10 m 0xbe
 119 -10 36 47 36 154 c 2
 36 156 l 2
 36 272 125 327 252 327 c 0
 307 327 344 318 383 305 c 1
 383 314 l 2
 383 378 344 412 268 412 c 0
 209 412 169 402 120 383 c 1
 82 499 l 1
 141 524 199 542 290 542 c 0
 374 542 432 521 471 482 c 0
 511 442 529 383 529 311 c 2
 529 0 l 1
 382 0 l 1x7e
 382 58 l 1
 345 17 295 -10 220 -10 c 0xbe
266 95 m 0
 338 95 385 133 385 189 c 2
 385 216 l 1
 358 228 325 236 288 236 c 0
 223 236 183 210 183 162 c 2
 183 160 l 2
 183 119 217 95 266 95 c 0
118 600 m 1
 118 705 l 1
 478 705 l 1
 478 600 l 1
 118 600 l 1
EndSplineSet
Substitution2: "'ss03' Style Set 3 lookup 19 subtable" amacron.alt
Substitution2: "'aalt' Access All Alternates lookup 0 subtable" amacron.alt
EndChar

StartChar: amacron.alt
Encoding: 202 -1 202
Width: 675
GlyphClass: 1
Flags: MW
HStem: -10 129<291.5 328> 0 119<291.5 607 291.5 455> 417 119<291.5 607> 417 129<291.5 328.5 224.5 362.5> 600 105<165 525 165 525>
VStem: 44 152<267 269 222.5 358.5> 455 152<0 77 77 77 466 536 0 536>
LayerCount: 2
Fore
SplineSet
288 -10 m 0x9e
 163 -10 44 88 44 267 c 2
 44 269 l 2
 44 448 161 546 288 546 c 0
 369 546 419 509 455 466 c 1x9e
 455 536 l 1
 607 536 l 1
 607 0 l 1
 455 0 l 1x6e
 455 77 l 1
 418 26 368 -10 288 -10 c 0x9e
327 119 m 0
 398 119 457 178 457 267 c 2
 457 269 l 2
 457 358 398 417 327 417 c 0
 256 417 196 359 196 269 c 2
 196 267 l 2
 196 178 256 119 327 119 c 0
165 600 m 1
 165 705 l 1
 525 705 l 1
 525 600 l 1
 165 600 l 1
EndSplineSet
EndChar

StartChar: Aogonek
Encoding: 203 260 203
Width: 790
GlyphClass: 1
Flags: MW
HStem: -167 70<684 773> -164 21G<773 773> 0 21G<24 181 24 24 605 627 605 605 728 728 728 766> 157 136<300 486 300 541 245 486> 685 20G<324 466 466 466>
VStem: 24 749<-164 0> 594 179<-104.5 -97 -164 -65.5>
LayerCount: 2
Fore
SplineSet
773 -97 m 1xba
 773 -164 l 1
 757 -166 742 -167 728 -167 c 0
 640 -167 594 -129 594 -80 c 0x7a
 594 -51 607 -27 627 0 c 1
 605 0 l 1
 541 157 l 1
 245 157 l 1
 181 0 l 1
 24 0 l 1
 324 705 l 1
 466 705 l 1
 766 0 l 1
 728 0 l 1
 709 -21 703 -40 703 -56 c 0
 703 -85 729 -100 773 -97 c 1xba
300 293 m 1
 486 293 l 1
 393 520 l 1
 300 293 l 1
EndSplineSet
EndChar

StartChar: aogonek
Encoding: 204 261 204
Width: 592
GlyphClass: 1
Flags: MW
HStem: -167 70<443 532> -164 21G<532 532> -10 105<241.5 257.5> 0 21G<382 386 382 382 487 487 487 529> 236 91<255.5 279.5 188.5 306.5> 412 130<244.5 306>
VStem: 36 147<154 156 156 160 160 162 139.5 214> 353 109<-70.5 -65.5> 382 147<0 58 58 58>
LayerCount: 2
Fore
SplineSet
532 -97 m 1x9e80
 532 -164 l 1x6e80
 516 -166 501 -167 487 -167 c 0
 399 -167 353 -129 353 -80 c 0x6f
 353 -51 366 -27 386 0 c 1
 382 0 l 1x5e80
 382 58 l 1
 345 17 295 -10 220 -10 c 0x6e80
 119 -10 36 47 36 154 c 2
 36 156 l 2
 36 272 125 327 252 327 c 0
 307 327 344 318 383 305 c 1
 383 314 l 2
 383 378 344 412 268 412 c 0
 209 412 169 402 120 383 c 1
 82 499 l 1
 141 524 199 542 290 542 c 0
 374 542 432 521 471 482 c 0
 511 442 529 383 529 311 c 2
 529 0 l 1
 487 0 l 1
 468 -21 462 -40 462 -56 c 0
 462 -85 488 -100 532 -97 c 1x9e80
266 95 m 0
 338 95 385 133 385 189 c 2
 385 216 l 1
 358 228 325 236 288 236 c 0
 223 236 183 210 183 162 c 2
 183 160 l 2
 183 119 217 95 266 95 c 0
EndSplineSet
Substitution2: "'ss03' Style Set 3 lookup 19 subtable" aogonek.alt
Substitution2: "'aalt' Access All Alternates lookup 0 subtable" aogonek.alt
EndChar

StartChar: aogonek.alt
Encoding: 205 -1 205
Width: 675
GlyphClass: 1
Flags: MW
HStem: -167 70<528 617> -164 21G<617 617> -10 129<291.5 328> 0 21G<455 471 455 455 572 572 572 607> 417 119<291.5 607> 417 129<291.5 328.5 224.5 362.5>
VStem: 44 152<267 269 222.5 358.5> 438 109<-70.5 -65.5> 455 152<0 77 77 77 466 536 0 536>
LayerCount: 2
Fore
SplineSet
617 -97 m 1x9a80
 617 -164 l 1x6680
 601 -166 586 -167 572 -167 c 0
 484 -167 438 -129 438 -80 c 0
 438 -51 451 -27 471 0 c 1x57
 455 0 l 1x5680
 455 77 l 1
 418 26 368 -10 288 -10 c 0
 163 -10 44 88 44 267 c 2
 44 269 l 2
 44 448 161 546 288 546 c 0
 369 546 419 509 455 466 c 1x6680
 455 536 l 1
 607 536 l 1
 607 0 l 1
 572 0 l 1
 553 -21 547 -40 547 -56 c 0
 547 -85 573 -100 617 -97 c 1x9a80
327 119 m 0
 398 119 457 178 457 267 c 2
 457 269 l 2
 457 358 398 417 327 417 c 0
 256 417 196 359 196 269 c 2
 196 267 l 2
 196 178 256 119 327 119 c 0
EndSplineSet
EndChar

StartChar: Aring
Encoding: 206 197 206
Width: 790
GlyphClass: 1
Flags: MW
HStem: 0 21G<24 24 24 181 605 605 605 766> 157 136<300 486 300 541 245 486> 798 54<375.5 414.5>
VStem: 271 61<726.5 757.5 726.5 774.5> 458 61<726.5 757.5>
LayerCount: 2
Fore
SplineSet
24 0 m 1
 306 664 l 1
 283 684 271 710 271 742 c 0
 271 807 328 852 395 852 c 0
 462 852 519 807 519 742 c 0
 519 710 505 683 484 664 c 1
 766 0 l 1
 605 0 l 1
 541 157 l 1
 245 157 l 1
 181 0 l 1
 24 0 l 1
300 293 m 1
 486 293 l 1
 393 520 l 1
 300 293 l 1
395 686 m 0
 434 686 458 711 458 742 c 0
 458 773 434 798 395 798 c 0
 356 798 332 773 332 742 c 0
 332 711 356 686 395 686 c 0
EndSplineSet
EndChar

StartChar: aring
Encoding: 207 229 207
Width: 592
GlyphClass: 1
Flags: MW
HStem: -10 105<241.5 257.5> 0 95<241.5 529 241.5 382> 236 91<255.5 279.5 188.5 306.5> 412 130<244.5 306> 593 51<280 316 280 331.5> 776 51<280 316>
VStem: 36 147<154 156 156 160 160 162 139.5 214> 177 55<692 728 692 742.5> 364 55<692 728> 382 147<0 58 58 58>
LayerCount: 2
Fore
SplineSet
220 -10 m 0xbe40
 119 -10 36 47 36 154 c 2
 36 156 l 2
 36 272 125 327 252 327 c 0
 307 327 344 318 383 305 c 1
 383 314 l 2
 383 378 344 412 268 412 c 0
 209 412 169 402 120 383 c 1
 82 499 l 1
 141 524 199 542 290 542 c 0
 374 542 432 521 471 482 c 0
 511 442 529 383 529 311 c 2
 529 0 l 1
 382 0 l 1x7e40
 382 58 l 1
 345 17 295 -10 220 -10 c 0xbe40
266 95 m 0
 338 95 385 133 385 189 c 2
 385 216 l 1
 358 228 325 236 288 236 c 0
 223 236 183 210 183 162 c 2
 183 160 l 2
 183 119 217 95 266 95 c 0
298 593 m 0xbd80
 231 593 177 645 177 710 c 0
 177 775 231 827 298 827 c 0
 365 827 419 775 419 710 c 0
 419 645 365 593 298 593 c 0xbd80
298 644 m 0
 334 644 364 674 364 710 c 0
 364 746 334 776 298 776 c 0
 262 776 232 746 232 710 c 0
 232 674 262 644 298 644 c 0
EndSplineSet
Substitution2: "'ss04' Style Set 4 lookup 20 subtable" aring.alt2
Substitution2: "'ss03' Style Set 3 lookup 19 subtable" aring.alt
AlternateSubs2: "'aalt' Access All Alternates lookup 1 subtable" aring.alt aring.alt2
EndChar

StartChar: aring.alt
Encoding: 208 -1 208
Width: 675
GlyphClass: 1
Flags: MW
HStem: -10 129<291.5 328> 0 119<291.5 607 291.5 455> 417 119<291.5 607> 417 129<291.5 328.5 224.5 362.5> 593 51<327 363 327 378.5> 776 51<327 363>
VStem: 44 152<267 269 222.5 358.5> 224 55<692 728 692 742.5> 411 55<692 728> 455 152<0 77 77 77 466 536 0 536>
LayerCount: 2
Fore
SplineSet
288 -10 m 0x9f40
 163 -10 44 88 44 267 c 2
 44 269 l 2
 44 448 161 546 288 546 c 0
 369 546 419 509 455 466 c 1x9f40
 455 536 l 1
 607 536 l 1
 607 0 l 1
 455 0 l 1x6d40
 455 77 l 1
 418 26 368 -10 288 -10 c 0x9f40
327 119 m 0
 398 119 457 178 457 267 c 2
 457 269 l 2
 457 358 398 417 327 417 c 0
 256 417 196 359 196 269 c 2
 196 267 l 2
 196 178 256 119 327 119 c 0
345 593 m 0x9d80
 278 593 224 645 224 710 c 0
 224 775 278 827 345 827 c 0
 412 827 466 775 466 710 c 0
 466 645 412 593 345 593 c 0x9d80
345 644 m 0
 381 644 411 674 411 710 c 0
 411 746 381 776 345 776 c 0
 309 776 279 746 279 710 c 0
 279 674 309 644 345 644 c 0
EndSplineSet
EndChar

StartChar: aring.alt2
Encoding: 209 -1 209
Width: 592
GlyphClass: 1
Flags: MW
HStem: -10 105<241.5 257.5> 0 95<241.5 529 241.5 382> 236 91<255.5 279.5 188.5 306.5> 412 131<280 306> 675 51<280 316>
VStem: 36 147<154 156 156 160 160 162 139.5 214> 177 55<595 627 591 641.5> 364 55<593.5 627> 382 147<0 58 58 58>
LayerCount: 2
Fore
SplineSet
220 -10 m 0xbc80
 119 -10 36 47 36 154 c 2
 36 156 l 2
 36 272 125 327 252 327 c 0
 307 327 344 318 383 305 c 1
 383 314 l 2xbc80
 383 378 344 412 268 412 c 0
 209 412 169 402 120 383 c 1
 82 499 l 1
 121 516 158 529 205 536 c 1
 186 557 177 581 177 609 c 0
 177 674 231 726 298 726 c 0
 365 726 419 674 419 609 c 0
 419 578 405 550 384 530 c 1xbb
 420 519 448 503 471 482 c 0
 511 442 529 383 529 311 c 2
 529 0 l 1
 382 0 l 1x7a80
 382 58 l 1
 345 17 295 -10 220 -10 c 0xbc80
266 95 m 0
 338 95 385 133 385 189 c 2
 385 216 l 1
 358 228 325 236 288 236 c 0
 223 236 183 210 183 162 c 2
 183 160 l 2
 183 119 217 95 266 95 c 0
232 609 m 0xbb
 232 573 262 543 298 543 c 0
 334 543 364 573 364 609 c 0
 364 645 334 675 298 675 c 0
 262 675 232 645 232 609 c 0xbb
EndSplineSet
EndChar

StartChar: Aringacute
Encoding: 210 506 210
Width: 790
GlyphClass: 1
Flags: MW
HStem: 0 21G<24 24 24 181 605 605 605 766> 157 136<300 486 300 541 245 486> 798 54<375.5 414.5>
VStem: 271 61<726.5 757.5 726.5 774.5> 458 61<726.5 757.5>
LayerCount: 2
Fore
SplineSet
24 0 m 1
 306 664 l 1
 283 684 271 710 271 742 c 0
 271 807 328 852 395 852 c 0
 462 852 519 807 519 742 c 0
 519 710 505 683 484 664 c 1
 766 0 l 1
 605 0 l 1
 541 157 l 1
 245 157 l 1
 181 0 l 1
 24 0 l 1
300 293 m 1
 486 293 l 1
 393 520 l 1
 300 293 l 1
327 880 m 1
 454 1017 l 1
 585 960 l 1
 443 880 l 1
 327 880 l 1
395 686 m 0
 434 686 458 711 458 742 c 0
 458 773 434 798 395 798 c 0
 356 798 332 773 332 742 c 0
 332 711 356 686 395 686 c 0
EndSplineSet
EndChar

StartChar: aringacute
Encoding: 211 507 211
Width: 592
GlyphClass: 1
Flags: MW
HStem: -10 105<241.5 257.5> 0 95<241.5 529 241.5 382> 236 91<255.5 279.5 188.5 306.5> 412 130<244.5 306> 593 51<280 316 280 331.5> 776 51<280 316>
VStem: 36 147<154 156 156 160 160 162 139.5 214> 177 55<692 728 692 742.5> 364 55<692 728> 382 147<0 58 58 58>
LayerCount: 2
Fore
SplineSet
237 861 m 1xbe40
 356 1008 l 1
 485 951 l 1x7e40
 349 861 l 1
 237 861 l 1xbe40
220 -10 m 0
 119 -10 36 47 36 154 c 2
 36 156 l 2
 36 272 125 327 252 327 c 0
 307 327 344 318 383 305 c 1xbe40
 383 314 l 2
 383 378 344 412 268 412 c 0
 209 412 169 402 120 383 c 1
 82 499 l 1
 141 524 199 542 290 542 c 0
 374 542 432 521 471 482 c 0
 511 442 529 383 529 311 c 2
 529 0 l 1
 382 0 l 1
 382 58 l 1
 345 17 295 -10 220 -10 c 0
266 95 m 0
 338 95 385 133 385 189 c 2
 385 216 l 1
 358 228 325 236 288 236 c 0xbd80
 223 236 183 210 183 162 c 2
 183 160 l 2
 183 119 217 95 266 95 c 0
298 593 m 0
 231 593 177 645 177 710 c 0
 177 775 231 827 298 827 c 0
 365 827 419 775 419 710 c 0
 419 645 365 593 298 593 c 0
298 644 m 0
 334 644 364 674 364 710 c 0
 364 746 334 776 298 776 c 0
 262 776 232 746 232 710 c 0
 232 674 262 644 298 644 c 0
EndSplineSet
Substitution2: "'ss04' Style Set 4 lookup 20 subtable" aringacute.alt2
Substitution2: "'ss03' Style Set 3 lookup 19 subtable" aringacute.alt
AlternateSubs2: "'aalt' Access All Alternates lookup 1 subtable" aringacute.alt aringacute.alt2
EndChar

StartChar: aringacute.alt
Encoding: 212 -1 212
Width: 675
GlyphClass: 1
Flags: MW
HStem: -10 129<291.5 328> 0 119<291.5 607 291.5 455> 417 119<291.5 607> 417 129<291.5 328.5 224.5 362.5> 593 51<327 363 327 378.5> 776 51<327 363>
VStem: 44 152<267 269 222.5 358.5> 224 55<692 728 692 742.5> 411 55<692 728> 455 152<0 77 77 77 466 536 0 536>
LayerCount: 2
Fore
SplineSet
284 861 m 1x9f40
 403 1008 l 1
 532 951 l 1x6d40
 396 861 l 1
 284 861 l 1x9f40
288 -10 m 0
 163 -10 44 88 44 267 c 2
 44 269 l 2
 44 448 161 546 288 546 c 0
 369 546 419 509 455 466 c 1
 455 536 l 1
 607 536 l 1
 607 0 l 1
 455 0 l 1x9f40
 455 77 l 1
 418 26 368 -10 288 -10 c 0
327 119 m 0
 398 119 457 178 457 267 c 2
 457 269 l 2
 457 358 398 417 327 417 c 0x9d80
 256 417 196 359 196 269 c 2
 196 267 l 2
 196 178 256 119 327 119 c 0
345 593 m 0
 278 593 224 645 224 710 c 0
 224 775 278 827 345 827 c 0
 412 827 466 775 466 710 c 0
 466 645 412 593 345 593 c 0
345 644 m 0
 381 644 411 674 411 710 c 0
 411 746 381 776 345 776 c 0
 309 776 279 746 279 710 c 0
 279 674 309 644 345 644 c 0
EndSplineSet
EndChar

StartChar: aringacute.alt2
Encoding: 213 -1 213
Width: 592
GlyphClass: 1
Flags: MW
HStem: -10 105<241.5 257.5> 0 95<241.5 529 241.5 382> 236 91<255.5 279.5 188.5 306.5> 412 131<280 306> 675 51<280 316>
VStem: 36 147<154 156 156 160 160 162 139.5 214> 177 55<595 627 591 641.5> 364 55<593.5 627> 382 147<0 58 58 58>
LayerCount: 2
Fore
SplineSet
237 761 m 1xbc80
 356 908 l 1
 485 851 l 1x7a80
 349 761 l 1
 237 761 l 1xbc80
220 -10 m 0
 119 -10 36 47 36 154 c 2
 36 156 l 2
 36 272 125 327 252 327 c 0
 307 327 344 318 383 305 c 1
 383 314 l 2
 383 378 344 412 268 412 c 0
 209 412 169 402 120 383 c 1
 82 499 l 1
 121 516 158 529 205 536 c 1xbc80
 186 557 177 581 177 609 c 0
 177 674 231 726 298 726 c 0
 365 726 419 674 419 609 c 0
 419 578 405 550 384 530 c 1
 420 519 448 503 471 482 c 0
 511 442 529 383 529 311 c 2
 529 0 l 1
 382 0 l 1xbb
 382 58 l 1
 345 17 295 -10 220 -10 c 0
266 95 m 0
 338 95 385 133 385 189 c 2
 385 216 l 1
 358 228 325 236 288 236 c 0xbb
 223 236 183 210 183 162 c 2
 183 160 l 2
 183 119 217 95 266 95 c 0
232 609 m 0
 232 573 262 543 298 543 c 0
 334 543 364 573 364 609 c 0
 364 645 334 675 298 675 c 0
 262 675 232 645 232 609 c 0
EndSplineSet
EndChar

StartChar: Atilde
Encoding: 214 195 214
Width: 790
GlyphClass: 1
Flags: MW
HStem: 0 21G<24 24 24 181 605 605 605 766> 157 136<300 486 300 541 245 486> 685 20G<324 466 466 466> 765 114<467.5 486.5 463 519.5> 804 114<313.5 332.5 280 337>
VStem: 24 742<0 0>
LayerCount: 2
Fore
SplineSet
24 0 m 1xf4
 324 705 l 1
 466 705 l 1
 766 0 l 1
 605 0 l 1
 541 157 l 1
 245 157 l 1
 181 0 l 1
 24 0 l 1xf4
300 293 m 1
 486 293 l 1
 393 520 l 1
 300 293 l 1
485 765 m 0
 450 765 417 777 388 788 c 0
 364 797 345 804 329 804 c 0
 298 804 286 787 271 755 c 1
 190 780 l 1
 214 863 245 918 315 918 c 0xec
 350 918 383 906 412 895 c 0
 436 886 455 879 471 879 c 0
 502 879 514 896 529 928 c 1
 610 903 l 1
 587 819 554 765 485 765 c 0
EndSplineSet
EndChar

StartChar: atilde
Encoding: 215 227 215
Width: 592
GlyphClass: 1
Flags: MW
HStem: -10 105<241.5 257.5> 0 95<241.5 529 241.5 382> 236 91<255.5 279.5 188.5 306.5> 412 130<244.5 306> 595 114<367.5 386.5 363 419.5> 634 114<219.5 238.5 186 243>
VStem: 36 147<154 156 156 160 160 162 139.5 214> 382 147<0 58 58 58>
LayerCount: 2
Fore
SplineSet
220 -10 m 0xbb
 119 -10 36 47 36 154 c 2
 36 156 l 2
 36 272 125 327 252 327 c 0
 307 327 344 318 383 305 c 1
 383 314 l 2
 383 378 344 412 268 412 c 0
 209 412 169 402 120 383 c 1
 82 499 l 1
 141 524 199 542 290 542 c 0
 374 542 432 521 471 482 c 0
 511 442 529 383 529 311 c 2
 529 0 l 1
 382 0 l 1x7b
 382 58 l 1
 345 17 295 -10 220 -10 c 0xbb
266 95 m 0
 338 95 385 133 385 189 c 2
 385 216 l 1
 358 228 325 236 288 236 c 0
 223 236 183 210 183 162 c 2
 183 160 l 2
 183 119 217 95 266 95 c 0
385 595 m 0
 350 595 319 606 294 617 c 0
 271 626 251 634 235 634 c 0
 204 634 193 617 178 585 c 1
 97 610 l 1
 121 693 151 748 221 748 c 0xb7
 256 748 287 737 312 726 c 0
 335 717 355 709 371 709 c 0
 402 709 413 726 428 758 c 1
 509 733 l 1
 486 649 454 595 385 595 c 0
EndSplineSet
Substitution2: "'ss03' Style Set 3 lookup 19 subtable" atilde.alt
Substitution2: "'aalt' Access All Alternates lookup 0 subtable" atilde.alt
EndChar

StartChar: atilde.alt
Encoding: 216 -1 216
Width: 675
GlyphClass: 1
Flags: MW
HStem: -10 129<291.5 328> 0 119<291.5 607 291.5 455> 417 119<291.5 607> 417 129<291.5 328.5 224.5 362.5> 595 114<414.5 433.5 410 466.5> 634 114<266.5 285.5 233 290>
VStem: 44 152<267 269 222.5 358.5> 455 152<0 77 77 77 466 536 0 536>
LayerCount: 2
Fore
SplineSet
288 -10 m 0x9b
 163 -10 44 88 44 267 c 2
 44 269 l 2
 44 448 161 546 288 546 c 0
 369 546 419 509 455 466 c 1x9b
 455 536 l 1
 607 536 l 1
 607 0 l 1
 455 0 l 1x6b
 455 77 l 1
 418 26 368 -10 288 -10 c 0x9b
327 119 m 0
 398 119 457 178 457 267 c 2
 457 269 l 2
 457 358 398 417 327 417 c 0
 256 417 196 359 196 269 c 2
 196 267 l 2
 196 178 256 119 327 119 c 0
432 595 m 0
 397 595 366 606 341 617 c 0
 318 626 298 634 282 634 c 0
 251 634 240 617 225 585 c 1
 144 610 l 1
 168 693 198 748 268 748 c 0x97
 303 748 334 737 359 726 c 0
 382 717 402 709 418 709 c 0
 449 709 460 726 475 758 c 1
 556 733 l 1
 533 649 501 595 432 595 c 0
EndSplineSet
EndChar

StartChar: Cacute
Encoding: 217 262 217
Width: 738
GlyphClass: 1
Flags: MW
HStem: -12 142<357 457 357 480> 570 142<358 452.5>
VStem: 53 161<348 350 350 352 290 449.5>
LayerCount: 2
Fore
SplineSet
412 -12 m 0
 206 -12 53 147 53 348 c 2
 53 350 l 2
 53 549 203 712 418 712 c 0
 549 712 630 668 694 604 c 1
 596 491 l 1
 541 540 488 570 417 570 c 0
 299 570 214 472 214 352 c 2
 214 350 l 2
 214 230 297 130 417 130 c 0
 497 130 546 161 601 212 c 1
 699 113 l 1
 627 36 548 -12 412 -12 c 0
343 765 m 1
 464 922 l 1
 595 865 l 1
 459 765 l 1
 343 765 l 1
EndSplineSet
EndChar

StartChar: cacute
Encoding: 218 263 218
Width: 571
GlyphClass: 1
Flags: MW
HStem: -12 131<286.5 353.5 286.5 374.5> 415 131<284 349.5>
VStem: 42 150<265 267 267 269 225.5 343.5>
LayerCount: 2
Fore
SplineSet
321 -12 m 0
 160 -12 42 113 42 265 c 2
 42 267 l 2
 42 420 159 546 323 546 c 0
 424 546 486 512 537 456 c 1
 444 356 l 1
 409 392 377 415 322 415 c 0
 246 415 192 349 192 269 c 2
 192 267 l 2
 192 184 245 119 328 119 c 0
 379 119 414 141 451 176 c 1
 540 86 l 1
 488 29 428 -12 321 -12 c 0
257 595 m 1
 368 772 l 1
 499 715 l 1
 369 595 l 1
 257 595 l 1
EndSplineSet
EndChar

StartChar: Ccaron
Encoding: 219 268 219
Width: 738
GlyphClass: 1
Flags: MW
HStem: -12 142<357 457 357 480> 570 142<358 452.5> 765 147<205 477 205 333>
VStem: 53 161<348 350 350 352 290 449.5>
LayerCount: 2
Fore
SplineSet
412 -12 m 0
 206 -12 53 147 53 348 c 2
 53 350 l 2
 53 549 203 712 418 712 c 0
 549 712 630 668 694 604 c 1
 596 491 l 1
 541 540 488 570 417 570 c 0
 299 570 214 472 214 352 c 2
 214 350 l 2
 214 230 297 130 417 130 c 0
 497 130 546 161 601 212 c 1
 699 113 l 1
 627 36 548 -12 412 -12 c 0
605 912 m 1
 477 765 l 1
 333 765 l 1
 205 912 l 1
 327 912 l 1
 406 856 l 1
 485 912 l 1
 605 912 l 1
EndSplineSet
EndChar

StartChar: ccaron
Encoding: 220 269 220
Width: 571
GlyphClass: 1
Flags: MW
HStem: -12 131<286.5 353.5 286.5 374.5> 415 131<284 349.5> 595 157<122 389 122 245>
VStem: 42 150<265 267 267 269 225.5 343.5>
LayerCount: 2
Fore
SplineSet
321 -12 m 0
 160 -12 42 113 42 265 c 2
 42 267 l 2
 42 420 159 546 323 546 c 0
 424 546 486 512 537 456 c 1
 444 356 l 1
 409 392 377 415 322 415 c 0
 246 415 192 349 192 269 c 2
 192 267 l 2
 192 184 245 119 328 119 c 0
 379 119 414 141 451 176 c 1
 540 86 l 1
 488 29 428 -12 321 -12 c 0
512 752 m 1
 389 595 l 1
 245 595 l 1
 122 752 l 1
 239 752 l 1
 318 686 l 1
 397 752 l 1
 512 752 l 1
EndSplineSet
EndChar

StartChar: Ccedilla
Encoding: 221 199 221
Width: 738
GlyphClass: 1
Flags: MW
HStem: -2 21G<326 326> 570 142<358 452.5>
VStem: 53 161<348 350 350 352 290 449.5>
LayerCount: 2
Fore
SplineSet
373 -173 m 1
 246 -120 l 1
 326 -2 l 1
 165 33 53 176 53 348 c 2
 53 350 l 2
 53 549 203 712 418 712 c 0
 549 712 630 668 694 604 c 1
 596 491 l 1
 541 540 488 570 417 570 c 0
 299 570 214 472 214 352 c 2
 214 350 l 2
 214 230 297 130 417 130 c 0
 497 130 546 161 601 212 c 1
 699 113 l 1
 632 41 557 -6 438 -11 c 1
 373 -173 l 1
EndSplineSet
EndChar

StartChar: ccedilla
Encoding: 222 231 222
Width: 571
GlyphClass: 1
Flags: MW
HStem: 0 21G<236 236> 415 131<284 349.5>
VStem: 42 150<265 267 267 269 225.5 343.5>
LayerCount: 2
Fore
SplineSet
281 -173 m 1
 154 -120 l 1
 236 0 l 1
 120 34 42 140 42 265 c 2
 42 267 l 2
 42 420 159 546 323 546 c 0
 424 546 486 512 537 456 c 1
 444 356 l 1
 409 392 377 415 322 415 c 0
 246 415 192 349 192 269 c 2
 192 267 l 2
 192 184 245 119 328 119 c 0
 379 119 414 141 451 176 c 1
 540 86 l 1
 492 33 438 -4 346 -11 c 1
 281 -173 l 1
EndSplineSet
EndChar

StartChar: Cdotaccent
Encoding: 223 266 223
Width: 738
GlyphClass: 1
Flags: MW
HStem: -12 142<357 457 357 480> 570 142<358 452.5> 765 127<330 480 330 480>
VStem: 53 161<348 350 350 352 290 449.5> 330 150<765 892 765 892>
LayerCount: 2
Fore
SplineSet
412 -12 m 0
 206 -12 53 147 53 348 c 2
 53 350 l 2
 53 549 203 712 418 712 c 0
 549 712 630 668 694 604 c 1
 596 491 l 1
 541 540 488 570 417 570 c 0
 299 570 214 472 214 352 c 2
 214 350 l 2
 214 230 297 130 417 130 c 0
 497 130 546 161 601 212 c 1
 699 113 l 1
 627 36 548 -12 412 -12 c 0
330 765 m 1
 330 892 l 1
 480 892 l 1
 480 765 l 1
 330 765 l 1
EndSplineSet
EndChar

StartChar: cdotaccent
Encoding: 224 267 224
Width: 571
GlyphClass: 1
Flags: MW
HStem: -12 131<286.5 353.5 286.5 374.5> 415 131<284 349.5> 595 135<242 392 242 392>
VStem: 42 150<265 267 267 269 225.5 343.5> 242 150<595 730 595 730>
LayerCount: 2
Fore
SplineSet
321 -12 m 0
 160 -12 42 113 42 265 c 2
 42 267 l 2
 42 420 159 546 323 546 c 0
 424 546 486 512 537 456 c 1
 444 356 l 1
 409 392 377 415 322 415 c 0
 246 415 192 349 192 269 c 2
 192 267 l 2
 192 184 245 119 328 119 c 0
 379 119 414 141 451 176 c 1
 540 86 l 1
 488 29 428 -12 321 -12 c 0
242 595 m 1
 242 730 l 1
 392 730 l 1
 392 595 l 1
 242 595 l 1
EndSplineSet
EndChar

StartChar: Dcaron
Encoding: 225 270 225
Width: 782
GlyphClass: 1
Flags: MW
HStem: 0 139<238 357 238 357> 561 139<238 357 238 238> 755 147<178 450 178 306>
VStem: 84 154<139 561 139 700 139 700> 568 161<348 350 350 352 251.5 412>
LayerCount: 2
Fore
SplineSet
84 0 m 1
 84 700 l 1
 357 700 l 2
 577 700 729 549 729 352 c 2
 729 350 l 2
 729 153 577 0 357 0 c 2
 84 0 l 1
357 561 m 2
 238 561 l 1
 238 139 l 1
 357 139 l 2
 482 139 568 224 568 348 c 2
 568 350 l 2
 568 474 482 561 357 561 c 2
578 902 m 1
 450 755 l 1
 306 755 l 1
 178 902 l 1
 300 902 l 1
 379 846 l 1
 458 902 l 1
 578 902 l 1
EndSplineSet
EndChar

StartChar: dcaron
Encoding: 226 271 226
Width: 675
GlyphClass: 1
Flags: MW
HStem: -10 129<291.5 328> 0 119<291.5 607 291.5 455> 417 129<291.5 328.5 224.5 362.5> 523 208<657 776 667 717>
VStem: 44 152<267 269 222.5 358.5> 455 152<0 77 77 77 466 730 0 730>
LayerCount: 2
Fore
SplineSet
288 -10 m 0xac
 163 -10 44 88 44 267 c 2
 44 269 l 2
 44 448 161 546 288 546 c 0
 369 546 419 509 455 466 c 1xac
 455 730 l 1
 607 730 l 1
 607 0 l 1
 455 0 l 1x5c
 455 77 l 1
 418 26 368 -10 288 -10 c 0xac
327 119 m 0
 398 119 457 178 457 267 c 2
 457 269 l 2
 457 358 398 417 327 417 c 0
 256 417 196 359 196 269 c 2
 196 267 l 2
 196 178 256 119 327 119 c 0
657 523 m 1x9c
 667 731 l 1
 776 731 l 1
 776 728 l 1
 717 523 l 1
 657 523 l 1x9c
EndSplineSet
EndChar

StartChar: Dcroat
Encoding: 227 272 227
Width: 812
GlyphClass: 1
Flags: MW
HStem: 0 139<268 387 268 387> 299 106<39 114 39 114 268 418> 561 139<268 387 268 268>
VStem: 114 154<139 299 139 299 139 299 405 561> 598 161<348 350 350 352 251.5 412>
LayerCount: 2
Fore
SplineSet
39 299 m 1
 39 405 l 1
 114 405 l 1
 114 700 l 1
 387 700 l 2
 607 700 759 549 759 352 c 2
 759 350 l 2
 759 153 607 0 387 0 c 2
 114 0 l 1
 114 299 l 1
 39 299 l 1
598 348 m 2
 598 350 l 2
 598 474 512 561 387 561 c 2
 268 561 l 1
 268 405 l 1
 418 405 l 1
 418 299 l 1
 268 299 l 1
 268 139 l 1
 387 139 l 2
 512 139 598 224 598 348 c 2
EndSplineSet
EndChar

StartChar: dcroat
Encoding: 228 273 228
Width: 675
GlyphClass: 1
Flags: MW
HStem: -10 129<291.5 328> 0 119<291.5 607 291.5 455> 417 129<291.5 328.5 224.5 362.5> 593 85<300 455 300 455 607 675>
VStem: 44 152<267 269 222.5 358.5> 455 152<0 77 77 77 466 593 0 593 678 730 0 730>
LayerCount: 2
Fore
SplineSet
300 593 m 1xbc
 300 678 l 1
 455 678 l 1
 455 730 l 1
 607 730 l 1
 607 678 l 1
 675 678 l 1
 675 593 l 1
 607 593 l 1
 607 0 l 1
 455 0 l 1x7c
 455 77 l 1
 418 26 368 -10 288 -10 c 0
 163 -10 44 88 44 267 c 2
 44 269 l 2
 44 448 161 546 288 546 c 0
 369 546 419 509 455 466 c 1
 455 593 l 1
 300 593 l 1xbc
327 119 m 0xbc
 398 119 457 178 457 267 c 2
 457 269 l 2
 457 358 398 417 327 417 c 0
 256 417 196 359 196 269 c 2
 196 267 l 2
 196 178 256 119 327 119 c 0xbc
EndSplineSet
EndChar

StartChar: Eacute
Encoding: 229 201 229
Width: 670
GlyphClass: 1
Flags: MW
HStem: 0 137<237 617 237 617> 284 137<237 567 237 567> 563 137<237 612 237 237>
VStem: 84 153<137 284 421 563>
LayerCount: 2
Fore
SplineSet
84 0 m 1
 84 700 l 1
 612 700 l 1
 612 563 l 1
 237 563 l 1
 237 421 l 1
 567 421 l 1
 567 284 l 1
 237 284 l 1
 237 137 l 1
 617 137 l 1
 617 0 l 1
 84 0 l 1
288 755 m 1
 409 912 l 1
 540 855 l 1
 404 755 l 1
 288 755 l 1
EndSplineSet
EndChar

StartChar: eacute
Encoding: 230 233 230
Width: 613
GlyphClass: 1
Flags: MW
HStem: -12 122<290 349.5 290 370.5> 215 95<193 420 191 566 193 193> 424 122<275 339>
VStem: 42 526<265 267 267 331 249 343.5> 420 148<310 310>
LayerCount: 2
Fore
SplineSet
322 -12 m 0xf0
 161 -12 42 101 42 265 c 2
 42 267 l 2
 42 420 151 546 307 546 c 0
 486 546 568 407 568 255 c 0
 568 243 567 230 566 215 c 1xe8
 193 215 l 1
 208 146 256 110 324 110 c 0
 375 110 411 126 454 165 c 1
 541 88 l 1
 490 25 419 -12 322 -12 c 0xf0
191 310 m 1
 420 310 l 1xe8
 411 378 371 424 307 424 c 0
 243 424 203 379 191 310 c 1
245 595 m 1
 356 772 l 1
 487 715 l 1
 357 595 l 1
 245 595 l 1
EndSplineSet
EndChar

StartChar: Ebreve
Encoding: 231 276 231
Width: 670
GlyphClass: 1
Flags: MW
HStem: 0 137<237 617 237 617> 284 137<237 567 237 567> 563 137<237 612 237 237> 753 100<324.5 375.5 324.5 403.5>
VStem: 84 153<137 284 421 563>
LayerCount: 2
Fore
SplineSet
84 0 m 1
 84 700 l 1
 612 700 l 1
 612 563 l 1
 237 563 l 1
 237 421 l 1
 567 421 l 1
 567 284 l 1
 237 284 l 1
 237 137 l 1
 617 137 l 1
 617 0 l 1
 84 0 l 1
350 753 m 0
 243 753 169 806 160 902 c 1
 264 902 l 1
 276 871 299 853 350 853 c 0
 401 853 424 871 436 902 c 1
 540 902 l 1
 531 806 457 753 350 753 c 0
EndSplineSet
EndChar

StartChar: ebreve
Encoding: 232 277 232
Width: 613
GlyphClass: 1
Flags: MW
HStem: -12 122<290 349.5 290 370.5> 215 95<193 420 191 566 193 193> 424 122<275 339> 593 99<279.5 330.5 279.5 358.5>
VStem: 42 526<265 267 267 331 249 343.5> 420 148<310 310>
LayerCount: 2
Fore
SplineSet
322 -12 m 0xf8
 161 -12 42 101 42 265 c 2
 42 267 l 2
 42 420 151 546 307 546 c 0
 486 546 568 407 568 255 c 0
 568 243 567 230 566 215 c 1xf4
 193 215 l 1
 208 146 256 110 324 110 c 0
 375 110 411 126 454 165 c 1
 541 88 l 1
 490 25 419 -12 322 -12 c 0xf8
191 310 m 1
 420 310 l 1xf4
 411 378 371 424 307 424 c 0
 243 424 203 379 191 310 c 1
305 593 m 0
 198 593 126 651 117 752 c 1
 219 752 l 1
 231 716 254 692 305 692 c 0
 356 692 379 716 391 752 c 1
 493 752 l 1
 484 651 412 593 305 593 c 0
EndSplineSet
EndChar

StartChar: Ecaron
Encoding: 233 282 233
Width: 670
GlyphClass: 1
Flags: MW
HStem: 0 137<237 617 237 617> 284 137<237 567 237 567> 563 137<237 612 237 237> 755 147<150 422 150 278>
VStem: 84 153<137 284 421 563>
LayerCount: 2
Fore
SplineSet
84 0 m 1
 84 700 l 1
 612 700 l 1
 612 563 l 1
 237 563 l 1
 237 421 l 1
 567 421 l 1
 567 284 l 1
 237 284 l 1
 237 137 l 1
 617 137 l 1
 617 0 l 1
 84 0 l 1
550 902 m 1
 422 755 l 1
 278 755 l 1
 150 902 l 1
 272 902 l 1
 351 846 l 1
 430 902 l 1
 550 902 l 1
EndSplineSet
EndChar

StartChar: ecaron
Encoding: 234 283 234
Width: 613
GlyphClass: 1
Flags: MW
HStem: -12 122<290 349.5 290 370.5> 215 95<193 420 191 566 193 193> 424 122<275 339> 595 157<110 377 110 233>
VStem: 42 526<265 267 267 331 249 343.5> 420 148<310 310>
LayerCount: 2
Fore
SplineSet
322 -12 m 0xf8
 161 -12 42 101 42 265 c 2
 42 267 l 2
 42 420 151 546 307 546 c 0
 486 546 568 407 568 255 c 0
 568 243 567 230 566 215 c 1xf4
 193 215 l 1
 208 146 256 110 324 110 c 0
 375 110 411 126 454 165 c 1
 541 88 l 1
 490 25 419 -12 322 -12 c 0xf8
191 310 m 1
 420 310 l 1xf4
 411 378 371 424 307 424 c 0
 243 424 203 379 191 310 c 1
500 752 m 1
 377 595 l 1
 233 595 l 1
 110 752 l 1
 227 752 l 1
 306 686 l 1
 385 752 l 1
 500 752 l 1
EndSplineSet
EndChar

StartChar: Ecircumflex
Encoding: 235 202 235
Width: 670
GlyphClass: 1
Flags: MW
HStem: 0 137<237 617 237 617> 284 137<237 567 237 567> 563 137<237 612 237 237> 755 147<150 422 150 422 278 428 278 550>
VStem: 84 153<137 284 421 563>
LayerCount: 2
Fore
SplineSet
84 0 m 1
 84 700 l 1
 612 700 l 1
 612 563 l 1
 237 563 l 1
 237 421 l 1
 567 421 l 1
 567 284 l 1
 237 284 l 1
 237 137 l 1
 617 137 l 1
 617 0 l 1
 84 0 l 1
150 755 m 1
 278 902 l 1
 422 902 l 1
 550 755 l 1
 428 755 l 1
 349 811 l 1
 270 755 l 1
 150 755 l 1
EndSplineSet
EndChar

StartChar: ecircumflex
Encoding: 236 234 236
Width: 613
GlyphClass: 1
Flags: MW
HStem: -12 122<290 349.5 290 370.5> 215 95<193 420 191 566 193 193> 424 122<275 339> 595 157<110 377 110 377 233 383 233 500>
VStem: 42 526<265 267 267 331 249 343.5> 420 148<310 310>
LayerCount: 2
Fore
SplineSet
322 -12 m 0xf8
 161 -12 42 101 42 265 c 2
 42 267 l 2
 42 420 151 546 307 546 c 0
 486 546 568 407 568 255 c 0
 568 243 567 230 566 215 c 1xf4
 193 215 l 1
 208 146 256 110 324 110 c 0
 375 110 411 126 454 165 c 1
 541 88 l 1
 490 25 419 -12 322 -12 c 0xf8
191 310 m 1
 420 310 l 1xf4
 411 378 371 424 307 424 c 0
 243 424 203 379 191 310 c 1
110 595 m 1
 233 752 l 1
 377 752 l 1
 500 595 l 1
 383 595 l 1
 304 661 l 1
 225 595 l 1
 110 595 l 1
EndSplineSet
EndChar

StartChar: Edieresis
Encoding: 237 203 237
Width: 670
GlyphClass: 1
Flags: MW
HStem: 0 137<237 617 237 617> 284 137<237 567 237 567> 563 137<237 612 237 237> 755 127<168 314 168 314 168 386 386 532>
VStem: 84 153<137 284 421 563> 168 146<755 882 755 882> 386 146<755 882 755 882>
LayerCount: 2
Fore
SplineSet
84 0 m 1xfa
 84 700 l 1
 612 700 l 1
 612 563 l 1
 237 563 l 1
 237 421 l 1
 567 421 l 1
 567 284 l 1
 237 284 l 1
 237 137 l 1
 617 137 l 1
 617 0 l 1
 84 0 l 1xfa
386 755 m 1
 386 882 l 1
 532 882 l 1
 532 755 l 1
 386 755 l 1
168 755 m 1xf6
 168 882 l 1
 314 882 l 1
 314 755 l 1
 168 755 l 1xf6
EndSplineSet
EndChar

StartChar: edieresis
Encoding: 238 235 238
Width: 613
GlyphClass: 1
Flags: MW
HStem: -12 122<290 349.5 290 370.5> 215 95<193 420 191 566 193 193> 424 122<275 339> 595 135<128 274 128 274 128 336 336 482>
VStem: 128 146<595 730 595 730> 336 146<595 730 595 730> 420 148<310 310>
LayerCount: 2
Fore
SplineSet
322 -12 m 0xfc
 161 -12 42 101 42 265 c 2
 42 267 l 2
 42 420 151 546 307 546 c 0
 486 546 568 407 568 255 c 0
 568 243 567 230 566 215 c 1xfa
 193 215 l 1
 208 146 256 110 324 110 c 0
 375 110 411 126 454 165 c 1
 541 88 l 1
 490 25 419 -12 322 -12 c 0xfc
191 310 m 1
 420 310 l 1xfa
 411 378 371 424 307 424 c 0
 243 424 203 379 191 310 c 1
336 595 m 1xfc
 336 730 l 1
 482 730 l 1
 482 595 l 1
 336 595 l 1xfc
128 595 m 1
 128 730 l 1
 274 730 l 1
 274 595 l 1
 128 595 l 1
EndSplineSet
EndChar

StartChar: Edotaccent
Encoding: 239 278 239
Width: 670
GlyphClass: 1
Flags: MW
HStem: 0 137<237 617 237 617> 284 137<237 567 237 567> 563 137<237 612 237 237> 755 127<275 425 275 425>
VStem: 84 153<137 284 421 563> 275 150<755 882 755 882>
LayerCount: 2
Fore
SplineSet
84 0 m 1
 84 700 l 1
 612 700 l 1
 612 563 l 1
 237 563 l 1
 237 421 l 1
 567 421 l 1
 567 284 l 1
 237 284 l 1
 237 137 l 1
 617 137 l 1
 617 0 l 1
 84 0 l 1
275 755 m 1
 275 882 l 1
 425 882 l 1
 425 755 l 1
 275 755 l 1
EndSplineSet
EndChar

StartChar: edotaccent
Encoding: 240 279 240
Width: 613
GlyphClass: 1
Flags: MW
HStem: -12 122<290 349.5 290 370.5> 215 95<193 420 191 566 193 193> 424 122<275 339> 595 135<230 380 230 380>
VStem: 230 150<595 730 595 730> 420 148<310 310>
LayerCount: 2
Fore
SplineSet
322 -12 m 0
 161 -12 42 101 42 265 c 2
 42 267 l 2
 42 420 151 546 307 546 c 0
 486 546 568 407 568 255 c 0
 568 243 567 230 566 215 c 1
 193 215 l 1
 208 146 256 110 324 110 c 0
 375 110 411 126 454 165 c 1
 541 88 l 1
 490 25 419 -12 322 -12 c 0
191 310 m 1
 420 310 l 1
 411 378 371 424 307 424 c 0
 243 424 203 379 191 310 c 1
230 595 m 1
 230 730 l 1
 380 730 l 1
 380 595 l 1
 230 595 l 1
EndSplineSet
EndChar

StartChar: Egrave
Encoding: 241 200 241
Width: 670
GlyphClass: 1
Flags: MW
HStem: 0 137<237 617 237 617> 284 137<237 567 237 567> 563 137<237 612 237 237>
VStem: 84 153<137 284 421 563>
LayerCount: 2
Fore
SplineSet
84 0 m 1
 84 700 l 1
 612 700 l 1
 612 563 l 1
 237 563 l 1
 237 421 l 1
 567 421 l 1
 567 284 l 1
 237 284 l 1
 237 137 l 1
 617 137 l 1
 617 0 l 1
 84 0 l 1
412 755 m 1
 296 755 l 1
 160 855 l 1
 291 912 l 1
 412 755 l 1
EndSplineSet
EndChar

StartChar: egrave
Encoding: 242 232 242
Width: 613
GlyphClass: 1
Flags: MW
HStem: -12 122<290 349.5 290 370.5> 215 95<193 420 191 566 193 193> 424 122<275 339>
VStem: 42 526<265 267 267 331 249 343.5> 420 148<310 310>
LayerCount: 2
Fore
SplineSet
322 -12 m 0xf0
 161 -12 42 101 42 265 c 2
 42 267 l 2
 42 420 151 546 307 546 c 0
 486 546 568 407 568 255 c 0
 568 243 567 230 566 215 c 1xe8
 193 215 l 1
 208 146 256 110 324 110 c 0
 375 110 411 126 454 165 c 1
 541 88 l 1
 490 25 419 -12 322 -12 c 0xf0
191 310 m 1
 420 310 l 1xe8
 411 378 371 424 307 424 c 0
 243 424 203 379 191 310 c 1
253 595 m 1
 123 715 l 1
 254 772 l 1
 365 595 l 1
 253 595 l 1
EndSplineSet
EndChar

StartChar: Emacron
Encoding: 243 274 243
Width: 670
GlyphClass: 1
Flags: MW
HStem: 0 137<237 617 237 617> 284 137<237 567 237 567> 563 137<237 612 237 237> 760 107<160 540 160 540>
VStem: 84 153<137 284 421 563>
LayerCount: 2
Fore
SplineSet
84 0 m 1
 84 700 l 1
 612 700 l 1
 612 563 l 1
 237 563 l 1
 237 421 l 1
 567 421 l 1
 567 284 l 1
 237 284 l 1
 237 137 l 1
 617 137 l 1
 617 0 l 1
 84 0 l 1
160 760 m 1
 160 867 l 1
 540 867 l 1
 540 760 l 1
 160 760 l 1
EndSplineSet
EndChar

StartChar: emacron
Encoding: 244 275 244
Width: 613
GlyphClass: 1
Flags: MW
HStem: -12 122<290 349.5 290 370.5> 215 95<193 420 191 566 193 193> 424 122<275 339> 600 105<125 485 125 485>
VStem: 42 526<265 267 267 331 249 343.5> 420 148<310 310>
LayerCount: 2
Fore
SplineSet
322 -12 m 0xf8
 161 -12 42 101 42 265 c 2
 42 267 l 2
 42 420 151 546 307 546 c 0
 486 546 568 407 568 255 c 0
 568 243 567 230 566 215 c 1xf4
 193 215 l 1
 208 146 256 110 324 110 c 0
 375 110 411 126 454 165 c 1
 541 88 l 1
 490 25 419 -12 322 -12 c 0xf8
191 310 m 1
 420 310 l 1xf4
 411 378 371 424 307 424 c 0
 243 424 203 379 191 310 c 1
125 600 m 1
 125 705 l 1
 485 705 l 1
 485 600 l 1
 125 600 l 1
EndSplineSet
EndChar

StartChar: Eogonek
Encoding: 245 280 245
Width: 670
GlyphClass: 1
Flags: MW
HStem: -167 70<528 617> -164 21G<617 617> 0 137<237 471 572 572 572 617> 284 137<237 567 237 567> 563 137<237 612 237 237>
VStem: 84 153<137 284 421 563> 438 179<-104.5 -97 -164 -65.5>
LayerCount: 2
Fore
SplineSet
84 0 m 1x7e
 84 700 l 1
 612 700 l 1
 612 563 l 1
 237 563 l 1
 237 421 l 1
 567 421 l 1
 567 284 l 1
 237 284 l 1
 237 137 l 1
 617 137 l 1
 617 0 l 1
 572 0 l 1
 553 -21 547 -40 547 -56 c 0
 547 -85 573 -100 617 -97 c 1xbe
 617 -164 l 1
 601 -166 586 -167 572 -167 c 0
 484 -167 438 -129 438 -80 c 0
 438 -51 451 -27 471 0 c 1
 84 0 l 1x7e
EndSplineSet
EndChar

StartChar: eogonek
Encoding: 246 281 246
Width: 613
GlyphClass: 1
Flags: MW
HStem: -167 70<414 504> -164 21G<504 504> -12 122<290 327.5> 215 95<193 420 191 566 193 193> 424 122<275 339>
VStem: 42 526<265 267 267 331 249 343.5> 325 179<-107.5 -97 -164 -73> 420 148<310 310>
LayerCount: 2
Fore
SplineSet
191 310 m 1x7c
 420 310 l 1x79
 411 378 371 424 307 424 c 0
 243 424 203 379 191 310 c 1x7c
454 165 m 1
 541 88 l 1
 518 63 503 47 480 26 c 0
 449 -3 434 -28 434 -51 c 0
 434 -86 460 -100 504 -97 c 1xba
 504 -164 l 1
 488 -166 473 -167 458 -167 c 0
 370 -167 325 -130 325 -85 c 0
 325 -61 337 -37 357 -10 c 1
 348 -11 333 -12 322 -12 c 0x7a
 161 -12 42 101 42 265 c 2
 42 267 l 2
 42 420 151 546 307 546 c 0
 486 546 568 407 568 255 c 0
 568 243 567 230 566 215 c 1
 193 215 l 1
 208 146 256 110 324 110 c 0
 375 110 411 126 454 165 c 1
EndSplineSet
EndChar

StartChar: Gbreve
Encoding: 247 286 247
Width: 784
GlyphClass: 1
Flags: MW
HStem: -12 140<364 454.5 364 485> 270 133<416 571 416 720> 570 142<359 455> 763 100<386.5 437.5 386.5 465.5>
VStem: 53 161<348 350 350 352 286 449.5> 571 149<170 270 270 270>
LayerCount: 2
Fore
SplineSet
421 -12 m 0
 203 -12 53 140 53 348 c 2
 53 350 l 2
 53 549 208 712 420 712 c 0
 545 712 623 678 695 616 c 1
 598 499 l 1
 545 544 495 570 415 570 c 0
 303 570 214 471 214 352 c 2
 214 350 l 2
 214 222 302 128 426 128 c 0
 483 128 532 142 571 170 c 1
 571 270 l 1
 416 270 l 1
 416 403 l 1
 720 403 l 1
 720 99 l 1
 648 38 549 -12 421 -12 c 0
412 763 m 0
 305 763 231 816 222 912 c 1
 326 912 l 1
 338 881 361 863 412 863 c 0
 463 863 486 881 498 912 c 1
 602 912 l 1
 593 816 519 763 412 763 c 0
EndSplineSet
EndChar

StartChar: gbreve
Encoding: 248 287 248
Width: 675
GlyphClass: 1
Flags: MW
HStem: -162 121<268 356 268 360> 44 126<288.5 322.5> 420 116<289 607> 420 126<289 323.5 220.5 363.5> 593 99<319.5 370.5 319.5 398.5>
VStem: 44 152<294 296 256.5 376> 457 150<105 121 121 131 131 131 294 296 296 332.5>
LayerCount: 2
Fore
SplineSet
308 -162 m 0xde
 220 -162 139 -142 71 -106 c 1
 123 8 l 1
 179 -23 232 -41 304 -41 c 0
 408 -41 457 9 457 105 c 2
 457 131 l 1
 412 76 363 44 282 44 c 0
 157 44 44 134 44 294 c 2
 44 296 l 2
 44 456 159 546 282 546 c 0
 365 546 414 511 455 466 c 1xde
 455 536 l 1
 607 536 l 1xee
 607 121 l 2
 607 26 584 -45 539 -90 c 0
 488 -141 412 -162 308 -162 c 0xde
326 170 m 0
 401 170 457 221 457 294 c 2
 457 296 l 2
 457 369 401 420 326 420 c 0
 252 420 196 369 196 296 c 2
 196 294 l 2
 196 219 251 170 326 170 c 0
345 593 m 0
 238 593 166 651 157 752 c 1
 259 752 l 1
 271 716 294 692 345 692 c 0
 396 692 419 716 431 752 c 1
 533 752 l 1
 524 651 452 593 345 593 c 0
EndSplineSet
EndChar

StartChar: Gcommaaccent
Encoding: 249 290 249
Width: 784
GlyphClass: 1
Flags: MW
HStem: -296 46<331 339> -178 115<343 407 343 481> -12 140<364 454.5 364 485> 270 133<416 571 416 720> 570 142<359 455>
VStem: 53 161<348 350 350 352 286 449.5> 343 138<-178 -160 -160 -63 -208 -63> 571 149<170 270 270 270>
LayerCount: 2
Fore
SplineSet
421 -12 m 0
 203 -12 53 140 53 348 c 2
 53 350 l 2
 53 549 208 712 420 712 c 0
 545 712 623 678 695 616 c 1
 598 499 l 1
 545 544 495 570 415 570 c 0
 303 570 214 471 214 352 c 2
 214 350 l 2
 214 222 302 128 426 128 c 0
 483 128 532 142 571 170 c 1
 571 270 l 1
 416 270 l 1
 416 403 l 1
 720 403 l 1
 720 99 l 1
 648 38 549 -12 421 -12 c 0
339 -296 m 1
 331 -250 l 1
 385 -245 410 -221 407 -178 c 1
 343 -178 l 1
 343 -63 l 1
 481 -63 l 1
 481 -160 l 2
 481 -256 431 -293 339 -296 c 1
EndSplineSet
EndChar

StartChar: gcommaaccent
Encoding: 250 291 250
Width: 675
GlyphClass: 1
Flags: MW
HStem: -162 121<268 356 268 360> 44 126<288.5 322.5> 420 116<289 607> 420 126<289 323.5 220.5 363.5> 595 115<347 411 347 411 273 411> 782 46<415 423>
VStem: 44 152<294 296 256.5 376> 273 138<595 692 692 710 595 740> 457 150<105 121 121 131 131 131 294 296 296 332.5>
LayerCount: 2
Fore
SplineSet
308 -162 m 0xdf80
 220 -162 139 -142 71 -106 c 1
 123 8 l 1
 179 -23 232 -41 304 -41 c 0
 408 -41 457 9 457 105 c 2
 457 131 l 1
 412 76 363 44 282 44 c 0
 157 44 44 134 44 294 c 2
 44 296 l 2
 44 456 159 546 282 546 c 0
 365 546 414 511 455 466 c 1xdf80
 455 536 l 1
 607 536 l 1xef80
 607 121 l 2
 607 26 584 -45 539 -90 c 0
 488 -141 412 -162 308 -162 c 0xdf80
326 170 m 0
 401 170 457 221 457 294 c 2
 457 296 l 2
 457 369 401 420 326 420 c 0
 252 420 196 369 196 296 c 2
 196 294 l 2
 196 219 251 170 326 170 c 0
415 828 m 1
 423 782 l 1
 369 777 344 753 347 710 c 1
 411 710 l 1
 411 595 l 1
 273 595 l 1
 273 692 l 2
 273 788 323 825 415 828 c 1
EndSplineSet
EndChar

StartChar: Gdotaccent
Encoding: 251 288 251
Width: 784
GlyphClass: 1
Flags: MW
HStem: -12 140<364 454.5 364 485> 270 133<416 571 416 720> 570 142<359 455> 765 127<337 487 337 487>
VStem: 53 161<348 350 350 352 286 449.5> 337 150<765 892 765 892> 571 149<170 270 270 270>
LayerCount: 2
Fore
SplineSet
421 -12 m 0
 203 -12 53 140 53 348 c 2
 53 350 l 2
 53 549 208 712 420 712 c 0
 545 712 623 678 695 616 c 1
 598 499 l 1
 545 544 495 570 415 570 c 0
 303 570 214 471 214 352 c 2
 214 350 l 2
 214 222 302 128 426 128 c 0
 483 128 532 142 571 170 c 1
 571 270 l 1
 416 270 l 1
 416 403 l 1
 720 403 l 1
 720 99 l 1
 648 38 549 -12 421 -12 c 0
337 765 m 1
 337 892 l 1
 487 892 l 1
 487 765 l 1
 337 765 l 1
EndSplineSet
EndChar

StartChar: gdotaccent
Encoding: 252 289 252
Width: 675
GlyphClass: 1
Flags: MW
HStem: -162 121<268 356 268 360> 44 126<288.5 322.5> 420 116<289 607> 420 126<289 323.5 220.5 363.5> 595 135<270 420 270 420>
VStem: 44 152<294 296 256.5 376> 270 150<595 730 595 730> 457 150<105 121 121 131 131 131 294 296 296 332.5>
LayerCount: 2
Fore
SplineSet
308 -162 m 0xdf
 220 -162 139 -142 71 -106 c 1
 123 8 l 1
 179 -23 232 -41 304 -41 c 0
 408 -41 457 9 457 105 c 2
 457 131 l 1
 412 76 363 44 282 44 c 0
 157 44 44 134 44 294 c 2
 44 296 l 2
 44 456 159 546 282 546 c 0
 365 546 414 511 455 466 c 1xdf
 455 536 l 1
 607 536 l 1xef
 607 121 l 2
 607 26 584 -45 539 -90 c 0
 488 -141 412 -162 308 -162 c 0xdf
326 170 m 0
 401 170 457 221 457 294 c 2
 457 296 l 2
 457 369 401 420 326 420 c 0
 252 420 196 369 196 296 c 2
 196 294 l 2
 196 219 251 170 326 170 c 0
270 595 m 1
 270 730 l 1
 420 730 l 1
 420 595 l 1
 270 595 l 1
EndSplineSet
EndChar

StartChar: Hbar
Encoding: 253 294 253
Width: 760
GlyphClass: 1
Flags: MW
HStem: 0 21G<84 238 84 84 522 676 522 522> 281 142<238 522 238 522> 514 103<238 522> 514 186<84 522 84 238>
VStem: 84 154<0 281 423 512 512 512 617 700> 522 154<0 281 281 281 423 512 0 514 0 514 617 700>
LayerCount: 2
Fore
SplineSet
14 512 m 1xec
 14 617 l 1
 84 617 l 1xec
 84 700 l 1
 238 700 l 1xdc
 238 617 l 1
 522 617 l 1xec
 522 700 l 1
 676 700 l 1xdc
 676 617 l 1
 746 617 l 1
 746 512 l 1
 676 512 l 1
 676 0 l 1
 522 0 l 1
 522 281 l 1
 238 281 l 1
 238 0 l 1
 84 0 l 1
 84 512 l 1
 14 512 l 1xec
238 423 m 1
 522 423 l 1
 522 514 l 1
 238 514 l 1xdc
 238 423 l 1
EndSplineSet
EndChar

StartChar: hbar
Encoding: 254 295 254
Width: 623
GlyphClass: 1
Flags: MW
HStem: 0 21G<68 220 68 68 407 559 407 407> 408 138<339 344.5> 593 85<0 68 0 68 220 375>
VStem: 68 152<0 299 460 593 678 730> 407 152<0 299 299 335>
LayerCount: 2
Fore
SplineSet
375 593 m 1
 220 593 l 1
 220 460 l 1
 255 505 301 546 377 546 c 0
 493 546 559 471 559 347 c 2
 559 0 l 1
 407 0 l 1
 407 299 l 2
 407 371 374 408 315 408 c 0
 256 408 220 371 220 299 c 2
 220 0 l 1
 68 0 l 1
 68 593 l 1
 0 593 l 1
 0 678 l 1
 68 678 l 1
 68 730 l 1
 220 730 l 1
 220 678 l 1
 375 678 l 1
 375 593 l 1
EndSplineSet
EndChar

StartChar: Iacute
Encoding: 255 205 255
Width: 336
GlyphClass: 1
Flags: MW
HStem: 0 21G<91 91 91 245> 680 20G<91 245 245 245>
VStem: 91 154<0 700 0 700>
LayerCount: 2
Fore
SplineSet
91 0 m 1
 91 700 l 1
 245 700 l 1
 245 0 l 1
 91 0 l 1
107 755 m 1
 228 912 l 1
 359 855 l 1
 223 755 l 1
 107 755 l 1
EndSplineSet
EndChar

StartChar: iacute
Encoding: 256 237 256
Width: 302
GlyphClass: 1
Flags: MW
HStem: 0 21G<75 75 75 227>
VStem: 75 152<0 536 0 536>
LayerCount: 2
Fore
SplineSet
75 0 m 1
 75 536 l 1
 227 536 l 1
 227 0 l 1
 75 0 l 1
92 595 m 1
 203 772 l 1
 334 715 l 1
 204 595 l 1
 92 595 l 1
EndSplineSet
EndChar

StartChar: Ibreve
Encoding: 257 300 257
Width: 336
GlyphClass: 1
Flags: MW
HStem: 0 21G<91 91 91 245> 680 20G<91 245 245 245> 753 100<143.5 194.5 143.5 222.5>
VStem: 91 154<0 700 0 700>
LayerCount: 2
Fore
SplineSet
91 0 m 1
 91 700 l 1
 245 700 l 1
 245 0 l 1
 91 0 l 1
169 753 m 0
 62 753 -12 806 -21 902 c 1
 83 902 l 1
 95 871 118 853 169 853 c 0
 220 853 243 871 255 902 c 1
 359 902 l 1
 350 806 276 753 169 753 c 0
EndSplineSet
EndChar

StartChar: ibreve
Encoding: 258 301 258
Width: 302
GlyphClass: 1
Flags: MW
HStem: 0 21G<75 75 75 227> 593 99<126.5 177.5 126.5 205.5>
VStem: 75 152<0 536 0 536>
LayerCount: 2
Fore
SplineSet
75 0 m 1
 75 536 l 1
 227 536 l 1
 227 0 l 1
 75 0 l 1
152 593 m 0
 45 593 -27 651 -36 752 c 1
 66 752 l 1
 78 716 101 692 152 692 c 0
 203 692 226 716 238 752 c 1
 340 752 l 1
 331 651 259 593 152 593 c 0
EndSplineSet
EndChar

StartChar: Icircumflex
Encoding: 259 206 259
Width: 336
GlyphClass: 1
Flags: MW
HStem: 0 21G<91 91 91 245> 680 20G<91 245 245 245> 755 147<-31 241 -31 241 97 247 97 369>
VStem: 91 154<0 700 0 700>
LayerCount: 2
Fore
SplineSet
91 0 m 1
 91 700 l 1
 245 700 l 1
 245 0 l 1
 91 0 l 1
-31 755 m 1
 97 902 l 1
 241 902 l 1
 369 755 l 1
 247 755 l 1
 168 811 l 1
 89 755 l 1
 -31 755 l 1
EndSplineSet
EndChar

StartChar: icircumflex
Encoding: 260 238 260
Width: 302
GlyphClass: 1
Flags: MW
HStem: 0 21G<75 75 75 227> 595 157<-43 224 -43 224 80 230 80 347>
VStem: 75 152<0 536 0 536>
LayerCount: 2
Fore
SplineSet
75 0 m 1
 75 536 l 1
 227 536 l 1
 227 0 l 1
 75 0 l 1
-43 595 m 1
 80 752 l 1
 224 752 l 1
 347 595 l 1
 230 595 l 1
 151 661 l 1
 72 595 l 1
 -43 595 l 1
EndSplineSet
EndChar

StartChar: Idieresis
Encoding: 261 207 261
Width: 336
GlyphClass: 1
Flags: MW
HStem: 0 21G<91 91 91 245> 680 20G<91 245 245 245> 755 127<-13 133 -13 133 -13 205 205 351>
VStem: -13 146<755 882 755 882> 91 154<0 700 0 700> 205 146<755 882 755 882>
LayerCount: 2
Fore
SplineSet
91 0 m 1xe8
 91 700 l 1
 245 700 l 1
 245 0 l 1
 91 0 l 1xe8
205 755 m 1
 205 882 l 1xe8
 351 882 l 1
 351 755 l 1xe4
 205 755 l 1
-13 755 m 1xf0
 -13 882 l 1xf0
 133 882 l 1
 133 755 l 1xe8
 -13 755 l 1xf0
EndSplineSet
EndChar

StartChar: idieresis
Encoding: 262 239 262
Width: 302
GlyphClass: 1
Flags: MW
HStem: 0 21G<75 75 75 227> 595 135<-25 121 -25 121 -25 183 183 329>
VStem: -25 146<595 730 595 730> 75 152<0 536 0 536> 183 146<595 730 595 730>
LayerCount: 2
Fore
SplineSet
75 0 m 1xd0
 75 536 l 1
 227 536 l 1
 227 0 l 1
 75 0 l 1xd0
183 595 m 1
 183 730 l 1xd0
 329 730 l 1
 329 595 l 1xc8
 183 595 l 1
-25 595 m 1xe0
 -25 730 l 1xe0
 121 730 l 1
 121 595 l 1xd0
 -25 595 l 1xe0
EndSplineSet
EndChar

StartChar: Idotaccent
Encoding: 263 304 263
Width: 336
GlyphClass: 1
Flags: MW
HStem: 0 21G<91 91 91 245> 680 20G<91 245 245 245> 755 127<94 244 94 244>
VStem: 91 154<0 700 0 700>
LayerCount: 2
Fore
SplineSet
91 0 m 1
 91 700 l 1
 245 700 l 1
 245 0 l 1
 91 0 l 1
94 755 m 1
 94 882 l 1
 244 882 l 1
 244 755 l 1
 94 755 l 1
EndSplineSet
EndChar

StartChar: i.dot
Encoding: 264 -1 264
Width: 302
GlyphClass: 1
Flags: MW
HStem: 0 21G<75 75 75 227> 595 135<71 231 71 231>
VStem: 75 152<0 536 0 536>
LayerCount: 2
Fore
SplineSet
71 595 m 1
 71 730 l 1
 231 730 l 1
 231 595 l 1
 71 595 l 1
75 0 m 1
 75 536 l 1
 227 536 l 1
 227 0 l 1
 75 0 l 1
EndSplineSet
EndChar

StartChar: dotlessi
Encoding: 265 305 265
Width: 302
GlyphClass: 1
Flags: MW
HStem: 0 21G<75 75 75 227>
VStem: 75 152<0 536 0 536>
LayerCount: 2
Fore
SplineSet
75 0 m 1
 75 536 l 1
 227 536 l 1
 227 0 l 1
 75 0 l 1
EndSplineSet
EndChar

StartChar: Igrave
Encoding: 266 204 266
Width: 336
GlyphClass: 1
Flags: MW
HStem: 0 21G<91 91 91 245> 680 20G<91 245 245 245>
VStem: 91 154<0 700 0 700>
LayerCount: 2
Fore
SplineSet
91 0 m 1
 91 700 l 1
 245 700 l 1
 245 0 l 1
 91 0 l 1
231 755 m 1
 115 755 l 1
 -21 855 l 1
 110 912 l 1
 231 755 l 1
EndSplineSet
EndChar

StartChar: igrave
Encoding: 267 236 267
Width: 302
GlyphClass: 1
Flags: MW
HStem: 0 21G<75 75 75 227>
VStem: 75 152<0 536 0 536>
LayerCount: 2
Fore
SplineSet
75 0 m 1
 75 536 l 1
 227 536 l 1
 227 0 l 1
 75 0 l 1
100 595 m 1
 -30 715 l 1
 101 772 l 1
 212 595 l 1
 100 595 l 1
EndSplineSet
EndChar

StartChar: Imacron
Encoding: 268 298 268
Width: 336
GlyphClass: 1
Flags: MW
HStem: 0 21G<91 91 91 245> 680 20G<91 245 245 245> 760 107<-21 359 -21 359>
VStem: 91 154<0 700 0 700>
LayerCount: 2
Fore
SplineSet
91 0 m 1
 91 700 l 1
 245 700 l 1
 245 0 l 1
 91 0 l 1
-21 760 m 1
 -21 867 l 1
 359 867 l 1
 359 760 l 1
 -21 760 l 1
EndSplineSet
EndChar

StartChar: imacron
Encoding: 269 299 269
Width: 302
GlyphClass: 1
Flags: MW
HStem: 0 21G<75 75 75 227> 600 105<-28 332 -28 332>
VStem: 75 152<0 536 0 536>
LayerCount: 2
Fore
SplineSet
75 0 m 1
 75 536 l 1
 227 536 l 1
 227 0 l 1
 75 0 l 1
-28 600 m 1
 -28 705 l 1
 332 705 l 1
 332 600 l 1
 -28 600 l 1
EndSplineSet
EndChar

StartChar: Iogonek
Encoding: 270 302 270
Width: 336
GlyphClass: 1
Flags: MW
HStem: -167 70<172 261> -164 21G<261 261> 0 21G<91 91 91 115 216 216 216 245> 680 20G<91 245 245 245>
VStem: 91 154<0 700 0 700>
LayerCount: 2
Fore
SplineSet
91 0 m 1x78
 91 700 l 1
 245 700 l 1
 245 0 l 1
 216 0 l 1
 197 -21 191 -40 191 -56 c 0
 191 -85 217 -100 261 -97 c 1xb8
 261 -164 l 1
 245 -166 230 -167 216 -167 c 0
 128 -167 82 -129 82 -80 c 0
 82 -51 95 -27 115 0 c 1
 91 0 l 1x78
EndSplineSet
EndChar

StartChar: iogonek
Encoding: 271 303 271
Width: 302
GlyphClass: 1
Flags: MW
HStem: -167 70<155 244> -164 21G<244 244> 0 21G<75 75 75 98 199 199 199 227> 595 135<71 231 71 231>
VStem: 75 152<0 536 0 536>
LayerCount: 2
Fore
SplineSet
75 0 m 1x78
 75 536 l 1
 227 536 l 1
 227 0 l 1
 199 0 l 1
 180 -21 174 -40 174 -56 c 0
 174 -85 200 -100 244 -97 c 1xb8
 244 -164 l 1
 228 -166 213 -167 199 -167 c 0
 111 -167 65 -129 65 -80 c 0
 65 -51 78 -27 98 0 c 1
 75 0 l 1x78
71 595 m 1
 71 730 l 1
 231 730 l 1
 231 595 l 1
 71 595 l 1
EndSplineSet
EndChar

StartChar: Kcommaaccent
Encoding: 272 310 272
Width: 730
GlyphClass: 1
Flags: MW
HStem: -287 46<285 293> -169 115<297 361 297 435> 0 21G<84 84 84 238 536 536 536 721> 680 20G<84 238 238 238 520 709 709 709>
VStem: 84 154<0 214 394 700> 297 138<-169 -151 -151 -54 -199 -54>
LayerCount: 2
Fore
SplineSet
84 0 m 1
 84 700 l 1
 238 700 l 1
 238 394 l 1
 520 700 l 1
 709 700 l 1
 423 403 l 1
 721 0 l 1
 536 0 l 1
 319 298 l 1
 238 214 l 1
 238 0 l 1
 84 0 l 1
293 -287 m 1
 285 -241 l 1
 339 -236 364 -212 361 -169 c 1
 297 -169 l 1
 297 -54 l 1
 435 -54 l 1
 435 -151 l 2
 435 -247 385 -284 293 -287 c 1
EndSplineSet
EndChar

StartChar: kcommaaccent
Encoding: 273 311 273
Width: 592
GlyphClass: 1
Flags: MW
HStem: -292 46<226 234> -174 115<238 302 238 376> 0 21G<68 68 68 220 411 411 411 587>
VStem: 68 152<0 163 341 730> 238 138<-174 -156 -156 -59 -204 -59>
LayerCount: 2
Fore
SplineSet
68 0 m 1
 68 730 l 1
 220 730 l 1
 220 341 l 1
 398 536 l 1
 580 536 l 1
 376 325 l 1
 587 0 l 1
 411 0 l 1
 274 220 l 1
 220 163 l 1
 220 0 l 1
 68 0 l 1
234 -292 m 1
 226 -246 l 1
 280 -241 305 -217 302 -174 c 1
 238 -174 l 1
 238 -59 l 1
 376 -59 l 1
 376 -156 l 2xf8
 376 -252 326 -289 234 -292 c 1
EndSplineSet
EndChar

StartChar: Lacute
Encoding: 274 313 274
Width: 619
GlyphClass: 1
Flags: MW
HStem: 0 140<238 587 238 587> 680 20G<84 238 238 238>
VStem: 84 154<140 700 140 700 140 700>
LayerCount: 2
Fore
SplineSet
84 0 m 1
 84 700 l 1
 238 700 l 1
 238 140 l 1
 587 140 l 1
 587 0 l 1
 84 0 l 1
120 755 m 1
 241 912 l 1
 372 855 l 1
 236 755 l 1
 120 755 l 1
EndSplineSet
EndChar

StartChar: lacute
Encoding: 275 314 275
Width: 302
GlyphClass: 1
Flags: MW
HStem: 0 21G<75 75 75 227>
VStem: 75 152<0 730 0 730>
LayerCount: 2
Fore
SplineSet
75 0 m 1
 75 730 l 1
 227 730 l 1
 227 0 l 1
 75 0 l 1
94 770 m 1
 215 927 l 1
 346 870 l 1
 210 770 l 1
 94 770 l 1
EndSplineSet
EndChar

StartChar: Lcaron
Encoding: 276 317 276
Width: 619
GlyphClass: 1
Flags: MW
HStem: 0 140<238 587 238 587> 493 208<307 426 317 367>
VStem: 84 154<140 700 140 700 140 700>
LayerCount: 2
Fore
SplineSet
84 0 m 1
 84 700 l 1
 238 700 l 1
 238 140 l 1
 587 140 l 1
 587 0 l 1
 84 0 l 1
307 493 m 1
 317 701 l 1
 426 701 l 1
 426 698 l 1
 367 493 l 1
 307 493 l 1
EndSplineSet
EndChar

StartChar: lcaron
Encoding: 277 318 277
Width: 302
GlyphClass: 1
Flags: MW
HStem: 0 21G<75 75 75 227> 523 208<277 396 287 337>
VStem: 75 152<0 730 0 730>
LayerCount: 2
Fore
SplineSet
75 0 m 1
 75 730 l 1
 227 730 l 1
 227 0 l 1
 75 0 l 1
277 523 m 1
 287 731 l 1
 396 731 l 1
 396 728 l 1
 337 523 l 1
 277 523 l 1
EndSplineSet
EndChar

StartChar: Lcommaaccent
Encoding: 278 315 278
Width: 619
GlyphClass: 1
Flags: MW
HStem: -292 46<254 262> -174 115<266 330 266 404> 0 140<238 587 238 587> 680 20G<84 238 238 238>
VStem: 84 154<140 700 140 700 140 700> 266 138<-174 -156 -156 -59 -204 -59>
LayerCount: 2
Fore
SplineSet
84 0 m 1
 84 700 l 1
 238 700 l 1
 238 140 l 1
 587 140 l 1
 587 0 l 1
 84 0 l 1
262 -292 m 1
 254 -246 l 1
 308 -241 333 -217 330 -174 c 1
 266 -174 l 1
 266 -59 l 1
 404 -59 l 1
 404 -156 l 2xfc
 404 -252 354 -289 262 -292 c 1
EndSplineSet
EndChar

StartChar: lcommaaccent
Encoding: 279 316 279
Width: 302
GlyphClass: 1
Flags: MW
HStem: -292 46<71 79> -174 115<83 147 83 221> 0 21G<75 75 75 227>
VStem: 75 152<0 730 0 730> 147 74<-174 -174>
LayerCount: 2
Fore
SplineSet
75 0 m 1xf0
 75 730 l 1
 227 730 l 1
 227 0 l 1
 75 0 l 1xf0
79 -292 m 1
 71 -246 l 1
 125 -241 150 -217 147 -174 c 1xe8
 83 -174 l 1
 83 -59 l 1
 221 -59 l 1
 221 -156 l 2
 221 -252 171 -289 79 -292 c 1
EndSplineSet
EndChar

StartChar: Ldot
Encoding: 280 319 280
Width: 619
GlyphClass: 1
Flags: MW
HStem: 0 140<238 587 238 587> 315 135<411 555 411 555> 680 20G<84 238 238 238>
VStem: 84 154<140 700 140 700 140 700> 411 144<315 450 315 450>
LayerCount: 2
Fore
SplineSet
411 315 m 1
 411 450 l 1
 555 450 l 1
 555 315 l 1
 411 315 l 1
84 0 m 1
 84 700 l 1
 238 700 l 1
 238 140 l 1
 587 140 l 1
 587 0 l 1
 84 0 l 1
EndSplineSet
EndChar

StartChar: ldot
Encoding: 281 320 281
Width: 392
GlyphClass: 1
Flags: MW
HStem: 0 21G<75 75 75 227> 316 125<287 407 287 407>
VStem: 75 152<0 730 0 730> 287 120<316 441 316 441>
LayerCount: 2
Fore
SplineSet
287 316 m 1
 287 441 l 1
 407 441 l 1
 407 316 l 1
 287 316 l 1
75 0 m 1
 75 730 l 1
 227 730 l 1
 227 0 l 1
 75 0 l 1
EndSplineSet
EndChar

StartChar: Lslash
Encoding: 282 321 282
Width: 649
GlyphClass: 1
Flags: MW
HStem: 0 140<266 617 266 617> 680 20G<114 266 266 266>
VStem: 114 152<140 243 243 243 140 454 454 700>
LayerCount: 2
Fore
SplineSet
415 376 m 1
 266 310 l 1
 266 140 l 1
 617 140 l 1
 617 0 l 1
 114 0 l 1
 114 243 l 1
 39 210 l 1
 39 354 l 1
 114 387 l 1
 114 700 l 1
 266 700 l 1
 266 454 l 1
 415 520 l 1
 415 376 l 1
EndSplineSet
EndChar

StartChar: lslash
Encoding: 283 322 283
Width: 362
GlyphClass: 1
Flags: MW
HStem: 0 21G<106 256 106 106>
VStem: 106 150<0 264 264 264 0 482 482 730>
LayerCount: 2
Fore
SplineSet
332 377 m 1
 256 339 l 1
 256 0 l 1
 106 0 l 1
 106 264 l 1
 30 227 l 1
 30 370 l 1
 106 407 l 1
 106 730 l 1
 256 730 l 1
 256 482 l 1
 332 520 l 1
 332 377 l 1
EndSplineSet
EndChar

StartChar: Nacute
Encoding: 284 323 284
Width: 790
GlyphClass: 1
Flags: MW
HStem: 0 21G<84 84 84 236 575 575 575 706> 680 20G<84 226 226 226 554 706 706 706>
VStem: 84 152<0 445 0 700> 554 152<269 700 0 700>
LayerCount: 2
Fore
SplineSet
84 0 m 1
 84 700 l 1
 226 700 l 1
 554 269 l 1
 554 700 l 1
 706 700 l 1
 706 0 l 1
 575 0 l 1
 236 445 l 1
 236 0 l 1
 84 0 l 1
333 755 m 1
 454 912 l 1
 585 855 l 1
 449 755 l 1
 333 755 l 1
EndSplineSet
EndChar

StartChar: nacute
Encoding: 285 324 285
Width: 623
GlyphClass: 1
Flags: MW
HStem: 0 21G<68 68 68 220 407 407 407 559> 408 128<68 344.5> 408 138<339 344.5>
VStem: 68 152<0 299 460 536> 407 152<0 299 299 335>
LayerCount: 2
Fore
SplineSet
68 0 m 1xb8
 68 536 l 1
 220 536 l 1xd8
 220 460 l 1
 255 505 301 546 377 546 c 0
 493 546 559 471 559 347 c 2
 559 0 l 1
 407 0 l 1
 407 299 l 2
 407 371 374 408 315 408 c 0
 256 408 220 371 220 299 c 2
 220 0 l 1
 68 0 l 1xb8
253 595 m 1
 364 772 l 1
 495 715 l 1
 365 595 l 1
 253 595 l 1
EndSplineSet
EndChar

StartChar: Ncaron
Encoding: 286 327 286
Width: 790
GlyphClass: 1
Flags: MW
HStem: 0 21G<84 84 84 236 575 575 575 706> 680 20G<84 226 226 226 554 706 706 706> 755 147<195 467 195 323>
VStem: 84 152<0 445 0 700> 554 152<269 700 0 700>
LayerCount: 2
Fore
SplineSet
84 0 m 1
 84 700 l 1
 226 700 l 1
 554 269 l 1
 554 700 l 1
 706 700 l 1
 706 0 l 1
 575 0 l 1
 236 445 l 1
 236 0 l 1
 84 0 l 1
595 902 m 1
 467 755 l 1
 323 755 l 1
 195 902 l 1
 317 902 l 1
 396 846 l 1
 475 902 l 1
 595 902 l 1
EndSplineSet
EndChar

StartChar: ncaron
Encoding: 287 328 287
Width: 623
GlyphClass: 1
Flags: MW
HStem: 0 21G<68 68 68 220 407 407 407 559> 408 128<68 344.5> 408 138<339 344.5> 595 157<118 385 118 241>
VStem: 68 152<0 299 460 536> 407 152<0 299 299 335>
LayerCount: 2
Fore
SplineSet
68 0 m 1xbc
 68 536 l 1
 220 536 l 1xdc
 220 460 l 1
 255 505 301 546 377 546 c 0
 493 546 559 471 559 347 c 2
 559 0 l 1
 407 0 l 1
 407 299 l 2
 407 371 374 408 315 408 c 0
 256 408 220 371 220 299 c 2
 220 0 l 1
 68 0 l 1xbc
508 752 m 1
 385 595 l 1
 241 595 l 1
 118 752 l 1
 235 752 l 1
 314 686 l 1
 393 752 l 1
 508 752 l 1
EndSplineSet
EndChar

StartChar: Ncommaaccent
Encoding: 288 325 288
Width: 790
GlyphClass: 1
Flags: MW
HStem: -287 46<314 322> -169 115<326 390 326 464> 0 21G<84 84 84 236 575 575 575 706> 680 20G<84 226 226 226 554 706 706 706>
VStem: 84 152<0 445 0 700> 326 138<-169 -151 -151 -54 -199 -54> 554 152<269 700 0 700>
CounterMasks: 1 0e
LayerCount: 2
Fore
SplineSet
84 0 m 1
 84 700 l 1
 226 700 l 1
 554 269 l 1
 554 700 l 1
 706 700 l 1
 706 0 l 1
 575 0 l 1
 236 445 l 1
 236 0 l 1
 84 0 l 1
322 -287 m 1
 314 -241 l 1
 368 -236 393 -212 390 -169 c 1
 326 -169 l 1
 326 -54 l 1
 464 -54 l 1
 464 -151 l 2
 464 -247 414 -284 322 -287 c 1
EndSplineSet
EndChar

StartChar: ncommaaccent
Encoding: 289 326 289
Width: 623
GlyphClass: 1
Flags: MW
HStem: -292 46<232 240> -174 115<244 308 244 382> 0 21G<68 68 68 220 407 407 407 559> 408 128<68 344.5> 408 138<339 344.5>
VStem: 68 152<0 299 460 536> 244 138<-174 -156 -156 -59 -204 -59> 407 152<0 299 299 335>
LayerCount: 2
Fore
SplineSet
68 0 m 1xed
 68 536 l 1
 220 536 l 1xf5
 220 460 l 1
 255 505 301 546 377 546 c 0
 493 546 559 471 559 347 c 2
 559 0 l 1
 407 0 l 1
 407 299 l 2
 407 371 374 408 315 408 c 0
 256 408 220 371 220 299 c 2
 220 0 l 1
 68 0 l 1xed
240 -292 m 1
 232 -246 l 1
 286 -241 311 -217 308 -174 c 1
 244 -174 l 1
 244 -59 l 1
 382 -59 l 1
 382 -156 l 2xef
 382 -252 332 -289 240 -292 c 1
EndSplineSet
EndChar

StartChar: Ntilde
Encoding: 290 209 290
Width: 790
GlyphClass: 1
Flags: MW
HStem: 0 21G<84 84 84 236 575 575 575 706> 680 20G<84 226 226 226 554 706 706 706> 755 114<467.5 486.5 463 519.5> 794 114<313.5 332.5 280 337>
VStem: 84 152<0 445 0 700> 554 152<269 700 0 700>
LayerCount: 2
Fore
SplineSet
84 0 m 1xdc
 84 700 l 1
 226 700 l 1
 554 269 l 1
 554 700 l 1
 706 700 l 1
 706 0 l 1
 575 0 l 1
 236 445 l 1
 236 0 l 1
 84 0 l 1xdc
485 755 m 0xec
 450 755 417 767 388 778 c 0
 364 787 345 794 329 794 c 0
 298 794 286 777 271 745 c 1
 190 770 l 1
 214 853 245 908 315 908 c 0xdc
 350 908 383 896 412 885 c 0
 436 876 455 869 471 869 c 0
 502 869 514 886 529 918 c 1
 610 893 l 1
 587 809 554 755 485 755 c 0xec
EndSplineSet
EndChar

StartChar: ntilde
Encoding: 291 241 291
Width: 623
GlyphClass: 1
Flags: MW
HStem: 0 21G<68 68 68 220 407 407 407 559> 408 128<68 344.5> 408 138<339 344.5> 595 114<382.5 401.5 378 434.5> 634 114<234.5 253.5 201 258>
VStem: 68 152<0 299 460 536> 407 152<0 299 299 335>
LayerCount: 2
Fore
SplineSet
68 0 m 1xb6
 68 536 l 1
 220 536 l 1xd6
 220 460 l 1
 255 505 301 546 377 546 c 0
 493 546 559 471 559 347 c 2
 559 0 l 1
 407 0 l 1
 407 299 l 2
 407 371 374 408 315 408 c 0
 256 408 220 371 220 299 c 2
 220 0 l 1
 68 0 l 1xb6
400 595 m 0
 365 595 334 606 309 617 c 0
 286 626 266 634 250 634 c 0
 219 634 208 617 193 585 c 1
 112 610 l 1
 136 693 166 748 236 748 c 0xae
 271 748 302 737 327 726 c 0
 350 717 370 709 386 709 c 0
 417 709 428 726 443 758 c 1
 524 733 l 1
 501 649 469 595 400 595 c 0
EndSplineSet
EndChar

StartChar: Oacute
Encoding: 292 211 292
Width: 850
GlyphClass: 1
Flags: MW
HStem: -12 142<364 488 364 532> 570 142<362 486>
VStem: 53 161<348 350 350 352 290 449.5> 636 161<348 350 350 352 250.5 410>
LayerCount: 2
Fore
SplineSet
424 -12 m 0
 208 -12 53 149 53 348 c 2
 53 350 l 2
 53 549 210 712 426 712 c 0
 642 712 797 551 797 352 c 2
 797 350 l 2
 797 151 640 -12 424 -12 c 0
426 130 m 0
 550 130 636 228 636 348 c 2
 636 350 l 2
 636 470 548 570 424 570 c 0
 300 570 214 472 214 352 c 2
 214 350 l 2
 214 230 302 130 426 130 c 0
363 765 m 1
 484 922 l 1
 615 865 l 1
 479 765 l 1
 363 765 l 1
EndSplineSet
EndChar

StartChar: oacute
Encoding: 293 243 293
Width: 664
GlyphClass: 1
Flags: MW
HStem: -12 131<291 376.5 291 414.5> 415 131<287.5 373>
VStem: 42 150<265 267 267 269 227.5 344> 472 150<265 267 267 269 190 306.5>
LayerCount: 2
Fore
SplineSet
331 -12 m 0
 166 -12 42 110 42 265 c 2
 42 267 l 2
 42 421 166 546 333 546 c 0
 498 546 622 424 622 269 c 2
 622 267 l 2
 622 113 498 -12 331 -12 c 0
333 119 m 0
 420 119 472 185 472 265 c 2
 472 267 l 2
 472 346 415 415 331 415 c 0
 244 415 192 349 192 269 c 2
 192 267 l 2
 192 188 249 119 333 119 c 0
272 595 m 1
 383 772 l 1
 514 715 l 1
 384 595 l 1
 272 595 l 1
EndSplineSet
EndChar

StartChar: Obreve
Encoding: 294 334 294
Width: 850
GlyphClass: 1
Flags: MW
HStem: -12 142<364 488 364 532> 570 142<362 486> 763 100<399.5 450.5 399.5 478.5>
VStem: 53 161<348 350 350 352 290 449.5> 636 161<348 350 350 352 250.5 410>
LayerCount: 2
Fore
SplineSet
424 -12 m 0
 208 -12 53 149 53 348 c 2
 53 350 l 2
 53 549 210 712 426 712 c 0
 642 712 797 551 797 352 c 2
 797 350 l 2
 797 151 640 -12 424 -12 c 0
426 130 m 0
 550 130 636 228 636 348 c 2
 636 350 l 2
 636 470 548 570 424 570 c 0
 300 570 214 472 214 352 c 2
 214 350 l 2
 214 230 302 130 426 130 c 0
425 763 m 0
 318 763 244 816 235 912 c 1
 339 912 l 1
 351 881 374 863 425 863 c 0
 476 863 499 881 511 912 c 1
 615 912 l 1
 606 816 532 763 425 763 c 0
EndSplineSet
EndChar

StartChar: obreve
Encoding: 295 335 295
Width: 664
GlyphClass: 1
Flags: MW
HStem: -12 131<291 376.5 291 414.5> 415 131<287.5 373> 593 99<306.5 357.5 306.5 385.5>
VStem: 42 150<265 267 267 269 227.5 344> 472 150<265 267 267 269 190 306.5>
LayerCount: 2
Fore
SplineSet
331 -12 m 0
 166 -12 42 110 42 265 c 2
 42 267 l 2
 42 421 166 546 333 546 c 0
 498 546 622 424 622 269 c 2
 622 267 l 2
 622 113 498 -12 331 -12 c 0
333 119 m 0
 420 119 472 185 472 265 c 2
 472 267 l 2
 472 346 415 415 331 415 c 0
 244 415 192 349 192 269 c 2
 192 267 l 2
 192 188 249 119 333 119 c 0
332 593 m 0
 225 593 153 651 144 752 c 1
 246 752 l 1
 258 716 281 692 332 692 c 0
 383 692 406 716 418 752 c 1
 520 752 l 1
 511 651 439 593 332 593 c 0
EndSplineSet
EndChar

StartChar: Ocircumflex
Encoding: 296 212 296
Width: 850
GlyphClass: 1
Flags: MW
HStem: -12 142<364 488 364 532> 570 142<362 486> 765 147<225 497 225 497 353 503 353 625>
VStem: 53 161<348 350 350 352 290 449.5> 636 161<348 350 350 352 250.5 410>
LayerCount: 2
Fore
SplineSet
424 -12 m 0
 208 -12 53 149 53 348 c 2
 53 350 l 2
 53 549 210 712 426 712 c 0
 642 712 797 551 797 352 c 2
 797 350 l 2
 797 151 640 -12 424 -12 c 0
426 130 m 0
 550 130 636 228 636 348 c 2
 636 350 l 2
 636 470 548 570 424 570 c 0
 300 570 214 472 214 352 c 2
 214 350 l 2
 214 230 302 130 426 130 c 0
225 765 m 1
 353 912 l 1
 497 912 l 1
 625 765 l 1
 503 765 l 1
 424 821 l 1
 345 765 l 1
 225 765 l 1
EndSplineSet
EndChar

StartChar: ocircumflex
Encoding: 297 244 297
Width: 664
GlyphClass: 1
Flags: MW
HStem: -12 131<291 376.5 291 414.5> 415 131<287.5 373> 595 157<137 404 137 404 260 410 260 527>
VStem: 42 150<265 267 267 269 227.5 344> 472 150<265 267 267 269 190 306.5>
LayerCount: 2
Fore
SplineSet
331 -12 m 0
 166 -12 42 110 42 265 c 2
 42 267 l 2
 42 421 166 546 333 546 c 0
 498 546 622 424 622 269 c 2
 622 267 l 2
 622 113 498 -12 331 -12 c 0
333 119 m 0
 420 119 472 185 472 265 c 2
 472 267 l 2
 472 346 415 415 331 415 c 0
 244 415 192 349 192 269 c 2
 192 267 l 2
 192 188 249 119 333 119 c 0
137 595 m 1
 260 752 l 1
 404 752 l 1
 527 595 l 1
 410 595 l 1
 331 661 l 1
 252 595 l 1
 137 595 l 1
EndSplineSet
EndChar

StartChar: Odieresis
Encoding: 298 214 298
Width: 850
GlyphClass: 1
Flags: MW
HStem: -12 142<364 488 364 532> 570 142<362 486> 765 127<243 389 243 389 243 461 461 607>
VStem: 53 161<348 350 350 352 290 449.5> 243 146<765 892 765 892> 461 146<765 892 765 892> 636 161<348 350 350 352 250.5 410>
LayerCount: 2
Fore
SplineSet
424 -12 m 0
 208 -12 53 149 53 348 c 2
 53 350 l 2
 53 549 210 712 426 712 c 0
 642 712 797 551 797 352 c 2
 797 350 l 2
 797 151 640 -12 424 -12 c 0
426 130 m 0
 550 130 636 228 636 348 c 2
 636 350 l 2
 636 470 548 570 424 570 c 0
 300 570 214 472 214 352 c 2
 214 350 l 2
 214 230 302 130 426 130 c 0
461 765 m 1xec
 461 892 l 1
 607 892 l 1
 607 765 l 1
 461 765 l 1xec
243 765 m 1
 243 892 l 1
 389 892 l 1
 389 765 l 1
 243 765 l 1
EndSplineSet
EndChar

StartChar: odieresis
Encoding: 299 246 299
Width: 664
GlyphClass: 1
Flags: MW
HStem: -12 131<291 376.5 291 414.5> 415 131<287.5 373> 595 135<155 301 155 301 155 363 363 509>
VStem: 42 150<265 267 267 269 227.5 344> 155 146<595 730 595 730> 363 146<595 730 595 730> 472 150<265 267 267 269 190 306.5>
LayerCount: 2
Fore
SplineSet
331 -12 m 0xf2
 166 -12 42 110 42 265 c 2
 42 267 l 2
 42 421 166 546 333 546 c 0
 498 546 622 424 622 269 c 2
 622 267 l 2
 622 113 498 -12 331 -12 c 0xf2
333 119 m 0
 420 119 472 185 472 265 c 2
 472 267 l 2
 472 346 415 415 331 415 c 0
 244 415 192 349 192 269 c 2
 192 267 l 2
 192 188 249 119 333 119 c 0
363 595 m 1xec
 363 730 l 1
 509 730 l 1
 509 595 l 1
 363 595 l 1xec
155 595 m 1
 155 730 l 1
 301 730 l 1
 301 595 l 1
 155 595 l 1
EndSplineSet
EndChar

StartChar: Ograve
Encoding: 300 210 300
Width: 850
GlyphClass: 1
Flags: MW
HStem: -12 142<364 488 364 532> 570 142<362 486>
VStem: 53 161<348 350 350 352 290 449.5> 636 161<348 350 350 352 250.5 410>
LayerCount: 2
Fore
SplineSet
424 -12 m 0
 208 -12 53 149 53 348 c 2
 53 350 l 2
 53 549 210 712 426 712 c 0
 642 712 797 551 797 352 c 2
 797 350 l 2
 797 151 640 -12 424 -12 c 0
426 130 m 0
 550 130 636 228 636 348 c 2
 636 350 l 2
 636 470 548 570 424 570 c 0
 300 570 214 472 214 352 c 2
 214 350 l 2
 214 230 302 130 426 130 c 0
487 765 m 1
 371 765 l 1
 235 865 l 1
 366 922 l 1
 487 765 l 1
EndSplineSet
EndChar

StartChar: ograve
Encoding: 301 242 301
Width: 664
GlyphClass: 1
Flags: MW
HStem: -12 131<291 376.5 291 414.5> 415 131<287.5 373>
VStem: 42 150<265 267 267 269 227.5 344> 472 150<265 267 267 269 190 306.5>
LayerCount: 2
Fore
SplineSet
331 -12 m 0
 166 -12 42 110 42 265 c 2
 42 267 l 2
 42 421 166 546 333 546 c 0
 498 546 622 424 622 269 c 2
 622 267 l 2
 622 113 498 -12 331 -12 c 0
333 119 m 0
 420 119 472 185 472 265 c 2
 472 267 l 2
 472 346 415 415 331 415 c 0
 244 415 192 349 192 269 c 2
 192 267 l 2
 192 188 249 119 333 119 c 0
280 595 m 1
 150 715 l 1
 281 772 l 1
 392 595 l 1
 280 595 l 1
EndSplineSet
EndChar

StartChar: Ohungarumlaut
Encoding: 302 336 302
Width: 850
GlyphClass: 1
Flags: MW
HStem: -12 142<364 488 364 532> 570 142<362 486>
VStem: 53 161<348 350 350 352 290 449.5> 636 161<348 350 350 352 250.5 410>
LayerCount: 2
Fore
SplineSet
424 -12 m 0
 208 -12 53 149 53 348 c 2
 53 350 l 2
 53 549 210 712 426 712 c 0
 642 712 797 551 797 352 c 2
 797 350 l 2
 797 151 640 -12 424 -12 c 0
426 130 m 0
 550 130 636 228 636 348 c 2
 636 350 l 2
 636 470 548 570 424 570 c 0
 300 570 214 472 214 352 c 2
 214 350 l 2
 214 230 302 130 426 130 c 0
262 765 m 1
 383 922 l 1
 509 865 l 1
 373 765 l 1
 262 765 l 1
452 765 m 1
 573 922 l 1
 699 865 l 1
 563 765 l 1
 452 765 l 1
EndSplineSet
EndChar

StartChar: ohungarumlaut
Encoding: 303 337 303
Width: 664
GlyphClass: 1
Flags: MW
HStem: -12 131<291 376.5 291 414.5> 415 131<287.5 373>
VStem: 42 150<265 267 267 269 227.5 344> 472 150<265 267 267 269 190 306.5>
LayerCount: 2
Fore
SplineSet
331 -12 m 0
 166 -12 42 110 42 265 c 2
 42 267 l 2
 42 421 166 546 333 546 c 0
 498 546 622 424 622 269 c 2
 622 267 l 2
 622 113 498 -12 331 -12 c 0
333 119 m 0
 420 119 472 185 472 265 c 2
 472 267 l 2
 472 346 415 415 331 415 c 0
 244 415 192 349 192 269 c 2
 192 267 l 2
 192 188 249 119 333 119 c 0
359 595 m 1
 470 772 l 1
 598 715 l 1
 466 595 l 1
 359 595 l 1
174 595 m 1
 283 772 l 1
 411 715 l 1
 281 595 l 1
 174 595 l 1
EndSplineSet
EndChar

StartChar: Omacron
Encoding: 304 332 304
Width: 850
GlyphClass: 1
Flags: MW
HStem: -12 142<364 488 364 532> 570 142<362 486> 770 107<235 615 235 615>
VStem: 53 161<348 350 350 352 290 449.5> 636 161<348 350 350 352 250.5 410>
LayerCount: 2
Fore
SplineSet
424 -12 m 0
 208 -12 53 149 53 348 c 2
 53 350 l 2
 53 549 210 712 426 712 c 0
 642 712 797 551 797 352 c 2
 797 350 l 2
 797 151 640 -12 424 -12 c 0
426 130 m 0
 550 130 636 228 636 348 c 2
 636 350 l 2
 636 470 548 570 424 570 c 0
 300 570 214 472 214 352 c 2
 214 350 l 2
 214 230 302 130 426 130 c 0
235 770 m 1
 235 877 l 1
 615 877 l 1
 615 770 l 1
 235 770 l 1
EndSplineSet
EndChar

StartChar: omacron
Encoding: 305 333 305
Width: 664
GlyphClass: 1
Flags: MW
HStem: -12 131<291 376.5 291 414.5> 415 131<287.5 373> 600 105<152 512 152 512>
VStem: 42 150<265 267 267 269 227.5 344> 472 150<265 267 267 269 190 306.5>
LayerCount: 2
Fore
SplineSet
331 -12 m 0
 166 -12 42 110 42 265 c 2
 42 267 l 2
 42 421 166 546 333 546 c 0
 498 546 622 424 622 269 c 2
 622 267 l 2
 622 113 498 -12 331 -12 c 0
333 119 m 0
 420 119 472 185 472 265 c 2
 472 267 l 2
 472 346 415 415 331 415 c 0
 244 415 192 349 192 269 c 2
 192 267 l 2
 192 188 249 119 333 119 c 0
152 600 m 1
 152 705 l 1
 512 705 l 1
 512 600 l 1
 152 600 l 1
EndSplineSet
EndChar

StartChar: Oslash
Encoding: 306 216 306
Width: 850
GlyphClass: 1
Flags: MW
HStem: -12 139<407.5 488.5 407.5 532> -5 114<143 143 143 192 45 143> 573 139<361.5 442> 591 114<707 707> 685 20G<658 805 805 805>
VStem: 53 158<348 350 350 352 327 449.5> 639 158<348 350 350 352 250.5 372.5>
LayerCount: 2
Fore
SplineSet
658 705 m 1x8e
 805 705 l 1
 707 591 l 1
 764 527 797 444 797 352 c 2
 797 350 l 2
 797 151 640 -12 424 -12 c 0
 351 -12 287 6 231 38 c 1x96
 192 -5 l 1
 45 -5 l 1
 143 109 l 1
 86 173 53 256 53 348 c 2
 53 350 l 2
 53 549 210 712 426 712 c 0
 498 712 563 693 619 662 c 1x66
 658 705 l 1x8e
426 127 m 0
 551 127 639 227 639 348 c 2
 639 350 l 2
 639 395 627 438 604 474 c 1
 327 151 l 1
 356 136 389 127 426 127 c 0
211 352 m 2
 211 350 l 2x96
 211 304 223 263 246 226 c 1
 523 549 l 1
 494 564 460 573 424 573 c 0xa6
 299 573 211 473 211 352 c 2
EndSplineSet
EndChar

StartChar: oslash
Encoding: 307 248 307
Width: 664
GlyphClass: 1
Flags: MW
HStem: -12 127<323 378.5 323 414.5> -5 92<107 107 107 160 27 107> 419 127<285.5 341.5> 448 93<556 556> 521 20G<504 637 637 637>
VStem: 42 146<265 267 267 269 254.5 344> 476 146<265 267 267 269 190 279.5>
LayerCount: 2
Fore
SplineSet
504 541 m 1x8e
 637 541 l 1
 556 448 l 1
 597 400 622 337 622 269 c 2
 622 267 l 2
 622 113 498 -12 331 -12 c 0
 276 -12 230 0 187 23 c 1x96
 160 -5 l 1
 27 -5 l 1
 107 87 l 1
 66 135 42 197 42 265 c 2
 42 267 l 2
 42 421 166 546 333 546 c 0
 386 546 435 534 476 511 c 1x66
 504 541 l 1x8e
188 269 m 2
 188 267 l 2x96
 188 242 193 218 204 195 c 1
 388 407 l 1
 371 414 352 419 331 419 c 0xa6
 240 419 188 350 188 269 c 2
333 115 m 0
 424 115 476 184 476 265 c 2
 476 267 l 2
 476 292 470 316 459 339 c 1
 276 126 l 1
 294 119 313 115 333 115 c 0
EndSplineSet
EndChar

StartChar: Oslashacute
Encoding: 308 510 308
Width: 850
GlyphClass: 1
Flags: MW
HStem: -12 139<407.5 488.5 407.5 532> -5 114<143 143 143 192 45 143> 573 139<361.5 442> 591 114<707 707> 685 20G<658 805 805 805>
VStem: 53 158<348 350 350 352 327 449.5> 639 158<348 350 350 352 250.5 372.5>
LayerCount: 2
Fore
SplineSet
658 705 m 1x8e
 805 705 l 1
 707 591 l 1
 764 527 797 444 797 352 c 2
 797 350 l 2
 797 151 640 -12 424 -12 c 0
 351 -12 287 6 231 38 c 1x96
 192 -5 l 1
 45 -5 l 1
 143 109 l 1
 86 173 53 256 53 348 c 2
 53 350 l 2
 53 549 210 712 426 712 c 0
 498 712 563 693 619 662 c 1x66
 658 705 l 1x8e
426 127 m 0
 551 127 639 227 639 348 c 2
 639 350 l 2
 639 395 627 438 604 474 c 1
 327 151 l 1
 356 136 389 127 426 127 c 0
211 352 m 2
 211 350 l 2x96
 211 304 223 263 246 226 c 1
 523 549 l 1
 494 564 460 573 424 573 c 0xa6
 299 573 211 473 211 352 c 2
363 765 m 1
 484 922 l 1
 615 865 l 1
 479 765 l 1
 363 765 l 1
EndSplineSet
EndChar

StartChar: oslashacute
Encoding: 309 511 309
Width: 664
GlyphClass: 1
Flags: MW
HStem: -12 127<323 378.5 323 414.5> -5 92<107 107 107 160 27 107> 419 127<285.5 341.5> 448 93<556 556> 521 20G<504 637 637 637>
VStem: 42 146<265 267 267 269 254.5 344> 476 146<265 267 267 269 190 279.5>
LayerCount: 2
Fore
SplineSet
504 541 m 1x8e
 637 541 l 1
 556 448 l 1
 597 400 622 337 622 269 c 2
 622 267 l 2
 622 113 498 -12 331 -12 c 0
 276 -12 230 0 187 23 c 1x96
 160 -5 l 1
 27 -5 l 1
 107 87 l 1
 66 135 42 197 42 265 c 2
 42 267 l 2
 42 421 166 546 333 546 c 0
 386 546 435 534 476 511 c 1x66
 504 541 l 1x8e
188 269 m 2
 188 267 l 2x96
 188 242 193 218 204 195 c 1
 388 407 l 1
 371 414 352 419 331 419 c 0xa6
 240 419 188 350 188 269 c 2
333 115 m 0
 424 115 476 184 476 265 c 2
 476 267 l 2
 476 292 470 316 459 339 c 1
 276 126 l 1
 294 119 313 115 333 115 c 0
272 595 m 1
 383 772 l 1
 514 715 l 1
 384 595 l 1
 272 595 l 1
EndSplineSet
EndChar

StartChar: Otilde
Encoding: 310 213 310
Width: 850
GlyphClass: 1
Flags: MW
HStem: -12 142<364 488 364 532> 570 142<362 486> 765 114<497.5 516.5 493 549.5> 804 114<343.5 362.5 310 367>
VStem: 53 161<348 350 350 352 290 449.5> 636 161<348 350 350 352 250.5 410>
LayerCount: 2
Fore
SplineSet
424 -12 m 0xec
 208 -12 53 149 53 348 c 2
 53 350 l 2
 53 549 210 712 426 712 c 0
 642 712 797 551 797 352 c 2
 797 350 l 2
 797 151 640 -12 424 -12 c 0xec
426 130 m 0
 550 130 636 228 636 348 c 2
 636 350 l 2
 636 470 548 570 424 570 c 0
 300 570 214 472 214 352 c 2
 214 350 l 2
 214 230 302 130 426 130 c 0
515 765 m 0
 480 765 447 777 418 788 c 0
 394 797 375 804 359 804 c 0
 328 804 316 787 301 755 c 1
 220 780 l 1
 244 863 275 918 345 918 c 0xdc
 380 918 413 906 442 895 c 0
 466 886 485 879 501 879 c 0
 532 879 544 896 559 928 c 1
 640 903 l 1
 617 819 584 765 515 765 c 0
EndSplineSet
EndChar

StartChar: otilde
Encoding: 311 245 311
Width: 664
GlyphClass: 1
Flags: MW
HStem: -12 131<291 376.5 291 414.5> 415 131<287.5 373> 595 114<401.5 420.5 397 453.5> 634 114<253.5 272.5 220 277>
VStem: 42 150<265 267 267 269 227.5 344> 472 150<265 267 267 269 190 306.5>
LayerCount: 2
Fore
SplineSet
331 -12 m 0xec
 166 -12 42 110 42 265 c 2
 42 267 l 2
 42 421 166 546 333 546 c 0
 498 546 622 424 622 269 c 2
 622 267 l 2
 622 113 498 -12 331 -12 c 0xec
333 119 m 0
 420 119 472 185 472 265 c 2
 472 267 l 2
 472 346 415 415 331 415 c 0
 244 415 192 349 192 269 c 2
 192 267 l 2
 192 188 249 119 333 119 c 0
419 595 m 0
 384 595 353 606 328 617 c 0
 305 626 285 634 269 634 c 0
 238 634 227 617 212 585 c 1
 131 610 l 1
 155 693 185 748 255 748 c 0xdc
 290 748 321 737 346 726 c 0
 369 717 389 709 405 709 c 0
 436 709 447 726 462 758 c 1
 543 733 l 1
 520 649 488 595 419 595 c 0
EndSplineSet
EndChar

StartChar: Racute
Encoding: 312 340 312
Width: 723
GlyphClass: 1
Flags: MW
HStem: 0 21G<84 84 84 238 509 509 509 689> 224 136<238 359 238 394> 561 139<238 391 238 238>
VStem: 84 154<0 224 360 561> 512 156<459 461 461 467 467 469 410.5 494.5>
LayerCount: 2
Fore
SplineSet
84 0 m 1
 84 700 l 1
 404 700 l 2
 493 700 561 676 608 629 c 0
 648 589 668 536 668 469 c 2
 668 467 l 2
 668 354 607 283 518 250 c 1
 689 0 l 1
 509 0 l 1
 359 224 l 1
 238 224 l 1
 238 0 l 1
 84 0 l 1
238 360 m 1
 394 360 l 2
 470 360 512 399 512 459 c 2
 512 461 l 2
 512 528 467 561 391 561 c 2
 238 561 l 1
 238 360 l 1
291 755 m 1
 412 912 l 1
 543 855 l 1
 407 755 l 1
 291 755 l 1
EndSplineSet
EndChar

StartChar: racute
Encoding: 313 341 313
Width: 418
GlyphClass: 1
Flags: MW
HStem: 0 21G<68 68 68 220> 387 149<68 383> 387 159<332.5 391 383 391>
VStem: 68 152<0 198 428 536>
LayerCount: 2
Fore
SplineSet
68 0 m 1xb0
 68 536 l 1
 220 536 l 1xd0
 220 428 l 1
 251 501 300 550 391 546 c 1
 391 387 l 1
 383 387 l 2
 282 387 220 327 220 198 c 2
 220 0 l 1
 68 0 l 1xb0
169 595 m 1
 280 772 l 1
 411 715 l 1
 281 595 l 1
 169 595 l 1
EndSplineSet
EndChar

StartChar: Rcaron
Encoding: 314 344 314
Width: 723
GlyphClass: 1
Flags: MW
HStem: 0 21G<84 84 84 238 509 509 509 689> 224 136<238 359 238 394> 561 139<238 391 238 238> 755 147<153 425 153 281>
VStem: 84 154<0 224 360 561> 512 156<459 461 461 467 467 469 410.5 494.5>
LayerCount: 2
Fore
SplineSet
84 0 m 1
 84 700 l 1
 404 700 l 2
 493 700 561 676 608 629 c 0
 648 589 668 536 668 469 c 2
 668 467 l 2
 668 354 607 283 518 250 c 1
 689 0 l 1
 509 0 l 1
 359 224 l 1
 238 224 l 1
 238 0 l 1
 84 0 l 1
238 360 m 1
 394 360 l 2
 470 360 512 399 512 459 c 2
 512 461 l 2
 512 528 467 561 391 561 c 2
 238 561 l 1
 238 360 l 1
553 902 m 1
 425 755 l 1
 281 755 l 1
 153 902 l 1
 275 902 l 1
 354 846 l 1
 433 902 l 1
 553 902 l 1
EndSplineSet
EndChar

StartChar: rcaron
Encoding: 315 345 315
Width: 418
GlyphClass: 1
Flags: MW
HStem: 0 21G<68 68 68 220> 387 149<68 383> 387 159<332.5 391 383 391> 595 157<35 302 35 158>
VStem: 68 152<0 198 428 536>
LayerCount: 2
Fore
SplineSet
68 0 m 1xb8
 68 536 l 1
 220 536 l 1xd8
 220 428 l 1
 251 501 300 550 391 546 c 1
 391 387 l 1
 383 387 l 2
 282 387 220 327 220 198 c 2
 220 0 l 1
 68 0 l 1xb8
425 752 m 1
 302 595 l 1
 158 595 l 1
 35 752 l 1
 152 752 l 1
 231 686 l 1
 310 752 l 1
 425 752 l 1
EndSplineSet
EndChar

StartChar: Rcommaaccent
Encoding: 316 342 316
Width: 723
GlyphClass: 1
Flags: MW
HStem: -287 46<272 280> -169 115<284 348 284 422> 0 21G<84 84 84 238 509 509 509 689> 224 136<238 359 238 394> 561 139<238 391 238 238>
VStem: 84 154<0 224 360 561> 284 138<-169 -151 -151 -54 -199 -54> 512 156<459 461 461 467 467 469 410.5 494.5>
LayerCount: 2
Fore
SplineSet
84 0 m 1
 84 700 l 1
 404 700 l 2
 493 700 561 676 608 629 c 0
 648 589 668 536 668 469 c 2
 668 467 l 2
 668 354 607 283 518 250 c 1
 689 0 l 1
 509 0 l 1
 359 224 l 1
 238 224 l 1
 238 0 l 1
 84 0 l 1
238 360 m 1
 394 360 l 2
 470 360 512 399 512 459 c 2
 512 461 l 2
 512 528 467 561 391 561 c 2
 238 561 l 1
 238 360 l 1
280 -287 m 1
 272 -241 l 1
 326 -236 351 -212 348 -169 c 1
 284 -169 l 1
 284 -54 l 1
 422 -54 l 1
 422 -151 l 2
 422 -247 372 -284 280 -287 c 1
EndSplineSet
EndChar

StartChar: rcommaaccent
Encoding: 317 343 317
Width: 418
GlyphClass: 1
Flags: MW
HStem: -292 46<70 78> -174 115<82 146 82 220> 0 21G<68 68 68 220> 387 149<68 383> 387 159<332.5 391 383 391>
VStem: 68 152<0 198 428 536>
LayerCount: 2
Fore
SplineSet
68 0 m 1xec
 68 536 l 1
 220 536 l 1xf4
 220 428 l 1
 251 501 300 550 391 546 c 1
 391 387 l 1
 383 387 l 2
 282 387 220 327 220 198 c 2
 220 0 l 1
 68 0 l 1xec
78 -292 m 1
 70 -246 l 1
 124 -241 149 -217 146 -174 c 1
 82 -174 l 1
 82 -59 l 1
 220 -59 l 1
 220 -156 l 2
 220 -252 170 -289 78 -292 c 1
EndSplineSet
EndChar

StartChar: Sacute
Encoding: 318 346 318
Width: 640
GlyphClass: 1
Flags: MW
HStem: -10 136<296 368 296 408.5> 574 136<277 337>
VStem: 64 153<497 499 499 511 511 513 487.5 562.5> 437 153<192 194 194 207 207 209 137.5 213.5>
LayerCount: 2
Fore
SplineSet
333 -10 m 0
 226 -10 120 26 36 102 c 1
 127 211 l 1
 191 159 256 126 336 126 c 0
 400 126 437 151 437 192 c 2
 437 194 l 2
 437 233 413 254 296 283 c 0
 154 318 64 359 64 497 c 2
 64 499 l 2
 64 626 165 710 309 710 c 0
 412 710 497 678 569 621 c 1
 489 505 l 1
 426 548 367 574 307 574 c 0
 247 574 217 548 217 513 c 2
 217 511 l 2
 217 464 247 451 368 419 c 0
 510 381 590 331 590 209 c 2
 590 207 l 2
 590 68 484 -10 333 -10 c 0
262 765 m 1
 383 922 l 1
 514 865 l 1
 378 765 l 1
 262 765 l 1
EndSplineSet
EndChar

StartChar: sacute
Encoding: 319 347 319
Width: 502
GlyphClass: 1
Flags: MW
HStem: -10 117<234.5 282 234.5 314> 427 117<227.5 265.5>
VStem: 53 137<372 388 374 388 388 390 374 428.5> 324 137<147 149 149 163 163 165 103.5 165.5>
LayerCount: 2
Fore
SplineSet
256 -10 m 0
 180 -10 98 15 26 71 c 1
 91 171 l 1
 150 128 209 107 260 107 c 0
 304 107 324 123 324 147 c 2
 324 149 l 2
 324 182 272 192 213 211 c 0
 138 232 53 268 53 372 c 2
 53 374 l 2
 53 483 141 544 249 544 c 0
 317 544 390 521 449 482 c 1
 391 377 l 1
 338 408 285 427 246 427 c 0
 209 427 190 411 190 390 c 2
 190 388 l 2
 190 360 241 342 299 324 c 0
 374 300 461 263 461 165 c 2
 461 163 l 2
 461 44 372 -10 256 -10 c 0
194 595 m 1
 305 772 l 1
 436 715 l 1
 306 595 l 1
 194 595 l 1
EndSplineSet
EndChar

StartChar: Scaron
Encoding: 320 352 320
Width: 640
GlyphClass: 1
Flags: MW
HStem: -10 136<296 368 296 408.5> 574 136<277 337> 765 147<124 396 124 252>
VStem: 64 153<497 499 499 511 511 513 487.5 562.5> 437 153<192 194 194 207 207 209 137.5 213.5>
LayerCount: 2
Fore
SplineSet
333 -10 m 0
 226 -10 120 26 36 102 c 1
 127 211 l 1
 191 159 256 126 336 126 c 0
 400 126 437 151 437 192 c 2
 437 194 l 2
 437 233 413 254 296 283 c 0
 154 318 64 359 64 497 c 2
 64 499 l 2
 64 626 165 710 309 710 c 0
 412 710 497 678 569 621 c 1
 489 505 l 1
 426 548 367 574 307 574 c 0
 247 574 217 548 217 513 c 2
 217 511 l 2
 217 464 247 451 368 419 c 0
 510 381 590 331 590 209 c 2
 590 207 l 2
 590 68 484 -10 333 -10 c 0
524 912 m 1
 396 765 l 1
 252 765 l 1
 124 912 l 1
 246 912 l 1
 325 856 l 1
 404 912 l 1
 524 912 l 1
EndSplineSet
EndChar

StartChar: scaron
Encoding: 321 353 321
Width: 502
GlyphClass: 1
Flags: MW
HStem: -10 117<234.5 282 234.5 314> 427 117<227.5 265.5> 595 157<59 326 59 182>
VStem: 53 137<372 388 374 388 388 390 374 428.5> 324 137<147 149 149 163 163 165 103.5 165.5>
LayerCount: 2
Fore
SplineSet
256 -10 m 0
 180 -10 98 15 26 71 c 1
 91 171 l 1
 150 128 209 107 260 107 c 0
 304 107 324 123 324 147 c 2
 324 149 l 2
 324 182 272 192 213 211 c 0
 138 232 53 268 53 372 c 2
 53 374 l 2
 53 483 141 544 249 544 c 0
 317 544 390 521 449 482 c 1
 391 377 l 1
 338 408 285 427 246 427 c 0
 209 427 190 411 190 390 c 2
 190 388 l 2
 190 360 241 342 299 324 c 0
 374 300 461 263 461 165 c 2
 461 163 l 2
 461 44 372 -10 256 -10 c 0
449 752 m 1
 326 595 l 1
 182 595 l 1
 59 752 l 1
 176 752 l 1
 255 686 l 1
 334 752 l 1
 449 752 l 1
EndSplineSet
EndChar

StartChar: Scedilla
Encoding: 322 350 322
Width: 640
GlyphClass: 1
Flags: MW
HStem: -5 21G<266 266> 574 136<277 337>
VStem: 64 153<497 499 499 511 511 513 487.5 562.5> 437 153<192 194 194 207 207 209 144.5 213.5>
LayerCount: 2
Fore
SplineSet
315 -173 m 1
 188 -120 l 1
 266 -5 l 1
 182 7 103 42 36 102 c 1
 127 211 l 1
 191 159 256 126 336 126 c 0
 400 126 437 151 437 192 c 2
 437 194 l 2
 437 233 413 254 296 283 c 0
 154 318 64 359 64 497 c 2
 64 499 l 2
 64 626 165 710 309 710 c 0
 412 710 497 678 569 621 c 1
 489 505 l 1
 426 548 367 574 307 574 c 0
 247 574 217 548 217 513 c 2
 217 511 l 2
 217 464 247 451 368 419 c 0
 510 381 590 331 590 209 c 2
 590 207 l 2
 590 82 506 9 382 -7 c 1
 315 -173 l 1
EndSplineSet
EndChar

StartChar: scedilla
Encoding: 323 351 323
Width: 502
GlyphClass: 1
Flags: MW
HStem: -3 21G<189 189> 427 117<227.5 265.5>
VStem: 53 137<372 388 374 388 388 390 374 428.5> 324 137<147 149 149 163 163 165 111.5 165.5>
LayerCount: 2
Fore
SplineSet
236 -173 m 1
 109 -120 l 1
 189 -3 l 1
 133 8 77 31 26 71 c 1
 91 171 l 1
 150 128 209 107 260 107 c 0
 304 107 324 123 324 147 c 2
 324 149 l 2
 324 182 272 192 213 211 c 0
 138 232 53 268 53 372 c 2
 53 374 l 2
 53 483 141 544 249 544 c 0
 317 544 390 521 449 482 c 1
 391 377 l 1
 338 408 285 427 246 427 c 0
 209 427 190 411 190 390 c 2
 190 388 l 2
 190 360 241 342 299 324 c 0
 374 300 461 263 461 165 c 2
 461 163 l 2
 461 60 395 6 303 -7 c 1
 236 -173 l 1
EndSplineSet
EndChar

StartChar: Scommaaccent
Encoding: 324 536 324
Width: 640
GlyphClass: 1
Flags: MW
HStem: -296 46<243 251> -178 115<255 319 255 393> -10 136<296 368 296 408.5> 574 136<277 337>
VStem: 64 153<497 499 499 511 511 513 487.5 562.5> 255 138<-178 -160 -160 -63 -208 -63> 437 153<192 194 194 207 207 209 137.5 213.5>
LayerCount: 2
Fore
SplineSet
333 -10 m 0
 226 -10 120 26 36 102 c 1
 127 211 l 1
 191 159 256 126 336 126 c 0
 400 126 437 151 437 192 c 2
 437 194 l 2
 437 233 413 254 296 283 c 0
 154 318 64 359 64 497 c 2
 64 499 l 2
 64 626 165 710 309 710 c 0
 412 710 497 678 569 621 c 1
 489 505 l 1
 426 548 367 574 307 574 c 0
 247 574 217 548 217 513 c 2
 217 511 l 2
 217 464 247 451 368 419 c 0
 510 381 590 331 590 209 c 2
 590 207 l 2
 590 68 484 -10 333 -10 c 0
251 -296 m 1
 243 -250 l 1
 297 -245 322 -221 319 -178 c 1
 255 -178 l 1
 255 -63 l 1
 393 -63 l 1
 393 -160 l 2
 393 -256 343 -293 251 -296 c 1
EndSplineSet
EndChar

StartChar: scommaaccent
Encoding: 325 537 325
Width: 502
GlyphClass: 1
Flags: MW
HStem: -292 46<173 181> -174 115<185 249 185 323> -10 117<234.5 282 234.5 314> 427 117<227.5 265.5>
VStem: 53 137<372 388 374 388 388 390 374 428.5> 185 138<-174 -156 -156 -59 -204 -59> 324 137<147 149 149 163 163 165 103.5 165.5>
LayerCount: 2
Fore
SplineSet
256 -10 m 0xf4
 180 -10 98 15 26 71 c 1
 91 171 l 1
 150 128 209 107 260 107 c 0
 304 107 324 123 324 147 c 2
 324 149 l 2
 324 182 272 192 213 211 c 0
 138 232 53 268 53 372 c 2
 53 374 l 2
 53 483 141 544 249 544 c 0
 317 544 390 521 449 482 c 1
 391 377 l 1
 338 408 285 427 246 427 c 0
 209 427 190 411 190 390 c 2
 190 388 l 2
 190 360 241 342 299 324 c 0
 374 300 461 263 461 165 c 2
 461 163 l 2xfa
 461 44 372 -10 256 -10 c 0xf4
181 -292 m 1
 173 -246 l 1
 227 -241 252 -217 249 -174 c 1
 185 -174 l 1
 185 -59 l 1
 323 -59 l 1
 323 -156 l 2
 323 -252 273 -289 181 -292 c 1
EndSplineSet
EndChar

StartChar: Tcaron
Encoding: 326 356 326
Width: 648
GlyphClass: 1
Flags: MW
HStem: 0 21G<247 247 247 401> 558 142<34 247 34 614 401 401 401 614> 755 147<124 396 124 252>
VStem: 247 154<0 558 0 558>
LayerCount: 2
Fore
SplineSet
247 0 m 1
 247 558 l 1
 34 558 l 1
 34 700 l 1
 614 700 l 1
 614 558 l 1
 401 558 l 1
 401 0 l 1
 247 0 l 1
524 902 m 1
 396 755 l 1
 252 755 l 1
 124 902 l 1
 246 902 l 1
 325 846 l 1
 404 902 l 1
 524 902 l 1
EndSplineSet
EndChar

StartChar: tcaron
Encoding: 327 357 327
Width: 415
GlyphClass: 1
Flags: MW
HStem: -9 21G<203 274.5> -9 134<203 307.5> 406 130<29 93 29 93 245 371> 592 81<93 309 93 369>
VStem: 93 152<159.5 177 177 406 536 673> 314 57
LayerCount: 2
Fore
SplineSet
249 -9 m 0xb8
 157 -9 93 28 93 152 c 2
 93 406 l 1
 29 406 l 1
 29 536 l 1
 93 536 l 1
 93 673 l 1
 245 673 l 1
 245 536 l 1
 371 536 l 1
 371 406 l 1
 245 406 l 1
 245 177 l 2
 245 142 261 125 294 125 c 0
 321 125 346 131 369 144 c 1x7c
 369 22 l 1
 337 3 300 -9 249 -9 c 0xb8
309 592 m 1xbc
 319 800 l 1
 428 800 l 1
 428 797 l 1
 369 592 l 1
 309 592 l 1xbc
EndSplineSet
EndChar

StartChar: Tcommaaccent
Encoding: 328 354 328
AltUni2: 00021a.ffffffff.0 00021a.ffffffff.0
Width: 648
GlyphClass: 1
Flags: MW
HStem: -292 46<243 251> -174 115<255 319 255 393> 0 21G<247 247 247 401> 558 142<34 247 34 614 401 401 401 614>
VStem: 247 154<0 558 0 558> 255 138<-174 -156 -156 -59 -204 -59>
LayerCount: 2
Fore
SplineSet
247 0 m 1xf8
 247 558 l 1
 34 558 l 1
 34 700 l 1
 614 700 l 1
 614 558 l 1
 401 558 l 1
 401 0 l 1
 247 0 l 1xf8
251 -292 m 1
 243 -246 l 1
 297 -241 322 -217 319 -174 c 1
 255 -174 l 1
 255 -59 l 1xf4
 393 -59 l 1
 393 -156 l 2
 393 -252 343 -289 251 -292 c 1
EndSplineSet
EndChar

StartChar: tcommaaccent
Encoding: 329 355 329
AltUni2: 00021b.ffffffff.0 00021b.ffffffff.0
Width: 415
GlyphClass: 1
Flags: MW
HStem: -292 46<142 150> -174 115<154 218 154 292> -9 21G<203 274.5> -9 134<203 307.5> 406 130<29 93 29 93 245 371>
VStem: 93 152<159.5 177 177 406 536 673> 154 138<-174 -156 -156 -59 -204 -59>
LayerCount: 2
Fore
SplineSet
249 -9 m 0xec
 157 -9 93 28 93 152 c 2
 93 406 l 1
 29 406 l 1
 29 536 l 1
 93 536 l 1
 93 673 l 1
 245 673 l 1
 245 536 l 1
 371 536 l 1
 371 406 l 1
 245 406 l 1
 245 177 l 2
 245 142 261 125 294 125 c 0
 321 125 346 131 369 144 c 1xdc
 369 22 l 1
 337 3 300 -9 249 -9 c 0xec
150 -292 m 1
 142 -246 l 1
 196 -241 221 -217 218 -174 c 1
 154 -174 l 1
 154 -59 l 1
 292 -59 l 1
 292 -156 l 2xea
 292 -252 242 -289 150 -292 c 1
EndSplineSet
EndChar

StartChar: Uacute
Encoding: 330 218 330
Width: 756
GlyphClass: 1
Flags: MW
HStem: -11 142<330.5 425.5 330.5 470> 680 20G<73 227 227 227 529 683 683 683>
VStem: 73 154<300 304 304 700> 529 154<299 305 305 700>
LayerCount: 2
Fore
SplineSet
376 -11 m 0
 188 -11 73 93 73 300 c 2
 73 700 l 1
 227 700 l 1
 227 304 l 2
 227 189 283 131 378 131 c 0
 473 131 529 187 529 299 c 2
 529 700 l 1
 683 700 l 1
 683 305 l 2
 683 93 564 -11 376 -11 c 0
316 755 m 1
 437 912 l 1
 568 855 l 1
 432 755 l 1
 316 755 l 1
EndSplineSet
EndChar

StartChar: uacute
Encoding: 331 250 331
Width: 623
GlyphClass: 1
Flags: MW
HStem: -10 138<278.5 284> 0 128<278.5 555 278.5 403>
VStem: 64 152<201 237 237 536> 403 152<0 76 76 76 237 536 0 536>
LayerCount: 2
Fore
SplineSet
246 -10 m 0xb0
 130 -10 64 65 64 189 c 2
 64 536 l 1
 216 536 l 1
 216 237 l 2
 216 165 249 128 308 128 c 0xb0
 367 128 403 165 403 237 c 2
 403 536 l 1
 555 536 l 1
 555 0 l 1
 403 0 l 1x70
 403 76 l 1
 368 31 322 -10 246 -10 c 0xb0
249 595 m 1
 360 772 l 1
 491 715 l 1
 361 595 l 1
 249 595 l 1
EndSplineSet
EndChar

StartChar: Ubreve
Encoding: 332 364 332
Width: 756
GlyphClass: 1
Flags: MW
HStem: -11 142<330.5 425.5 330.5 470> 680 20G<73 227 227 227 529 683 683 683> 744 100<352.5 403.5 352.5 431.5>
VStem: 73 154<300 304 304 700> 529 154<299 305 305 700>
LayerCount: 2
Fore
SplineSet
376 -11 m 0
 188 -11 73 93 73 300 c 2
 73 700 l 1
 227 700 l 1
 227 304 l 2
 227 189 283 131 378 131 c 0
 473 131 529 187 529 299 c 2
 529 700 l 1
 683 700 l 1
 683 305 l 2
 683 93 564 -11 376 -11 c 0
378 744 m 0
 271 744 197 797 188 893 c 1
 292 893 l 1
 304 862 327 844 378 844 c 0
 429 844 452 862 464 893 c 1
 568 893 l 1
 559 797 485 744 378 744 c 0
EndSplineSet
EndChar

